STARTFONT 2.1
FONT -FontForge-Noto Mono-Book-R-Normal--36-350-75-75-P-219-ISO8859-1
SIZE 35 75 75
FONTBOUNDINGBOX 29 48 -5 -10
COMMENT "Generated by fontforge, http://fontforge.sourceforge.net"
COMMENT "Copyright 2007 Google Inc. All Rights Reserved."
STARTPROPERTIES 41
FOUNDRY "FontForge"
FAMILY_NAME "Noto Mono"
WEIGHT_NAME "Book"
SLANT "R"
SETWIDTH_NAME "Normal"
ADD_STYLE_NAME ""
PIXEL_SIZE 36
POINT_SIZE 350
RESOLUTION_X 75
RESOLUTION_Y 75
SPACING "P"
AVERAGE_WIDTH 219
CHARSET_REGISTRY "ISO8859"
CHARSET_ENCODING "1"
FONTNAME_REGISTRY ""
CHARSET_COLLECTIONS "ISO8859-2 ISO8859-5 ISO8859-7 ISO8859-9 ISO8859-4 ISOLatin1Encoding"
FONT_NAME "NotoMono"
FACE_NAME "Noto Mono"
COPYRIGHT "Copyright 2007 Google Inc. All Rights Reserved."
FONT_VERSION "1.00"
FONT_ASCENT 29
FONT_DESCENT 7
UNDERLINE_POSITION -4
UNDERLINE_THICKNESS 2
X_HEIGHT 18
CAP_HEIGHT 25
DEFAULT_CHAR 1
RAW_ASCENT 799
RAW_DESCENT 200
NORM_SPACE 22
RELATIVE_WEIGHT 40
RELATIVE_SETWIDTH 50
SUPERSCRIPT_X 0
SUPERSCRIPT_Y 17
SUPERSCRIPT_SIZE 23
SUBSCRIPT_X 0
SUBSCRIPT_Y 5
SUBSCRIPT_SIZE 23
FIGURE_WIDTH 22
AVG_LOWERCASE_WIDTH 220
AVG_UPPERCASE_WIDTH 220
ENDPROPERTIES
CHARS 897
STARTCHAR uni0000
ENCODING 0
SWIDTH 0 0
DWIDTH 0 0
BBX 1 1 0 0
BITMAP
00
ENDCHAR
STARTCHAR uni000D
ENCODING 13
SWIDTH 600 0
DWIDTH 22 0
BBX 1 1 0 0
BITMAP
00
ENDCHAR
STARTCHAR space
ENCODING 32
SWIDTH 600 0
DWIDTH 22 0
BBX 1 1 0 0
BITMAP
00
ENDCHAR
STARTCHAR exclam
ENCODING 33
SWIDTH 600 0
DWIDTH 22 0
BBX 4 27 9 -1
BITMAP
F0
F0
F0
F0
70
70
70
70
70
70
70
70
70
70
70
60
60
60
60
00
00
00
70
F0
F0
F0
70
ENDCHAR
STARTCHAR quotedbl
ENCODING 34
SWIDTH 600 0
DWIDTH 22 0
BBX 11 10 5 16
BITMAP
F1E0
F1E0
F1E0
F1E0
F1E0
F1E0
F1E0
70E0
70E0
70E0
ENDCHAR
STARTCHAR numbersign
ENCODING 35
SWIDTH 600 0
DWIDTH 22 0
BBX 20 26 1 0
BITMAP
01C1C0
01C1C0
01C1C0
018180
038180
038380
038380
038380
7FFFF0
7FFFF0
070700
070700
060600
060600
0E0E00
0E0E00
FFFFE0
FFFFE0
1C0C00
1C1C00
1C1C00
181C00
181800
381800
383800
383800
ENDCHAR
STARTCHAR dollar
ENCODING 36
SWIDTH 600 0
DWIDTH 22 0
BBX 15 29 4 -2
BITMAP
0300
0300
0300
0FF0
3FFC
7FFC
F30C
E300
E300
E300
F300
7B00
7F00
1FC0
07F0
03FC
033C
031E
030E
030E
030E
C33C
FFFC
FFF8
3FC0
0300
0300
0300
0300
ENDCHAR
STARTCHAR percent
ENCODING 37
SWIDTH 600 0
DWIDTH 22 0
BBX 22 26 0 0
BITMAP
1E00E0
7F81C0
7381C0
E1C380
E1C380
E1C700
E1C700
E1CE00
E1CE00
739C00
7F9C00
1E3800
003800
007000
0071E0
00E7F8
00E738
01CE1C
01CE1C
038E1C
038E1C
070E1C
070E1C
0E0738
0E07F8
1C01E0
ENDCHAR
STARTCHAR ampersand
ENCODING 38
SWIDTH 600 0
DWIDTH 22 0
BBX 21 26 1 0
BITMAP
07F000
0FF800
1FFC00
3C1E00
380E00
380E00
380E00
3C1E00
1C3C00
1E7800
0FF000
07E000
0F8000
1FC000
3DE070
78F0F0
F078E0
F03DE0
E01FC0
E00FC0
F00F80
F00F80
781FC0
7FFDE0
3FF8F0
0FE078
ENDCHAR
STARTCHAR quotesingle
ENCODING 39
SWIDTH 600 0
DWIDTH 22 0
BBX 4 10 9 16
BITMAP
F0
F0
F0
F0
F0
F0
F0
70
70
70
ENDCHAR
STARTCHAR parenleft
ENCODING 40
SWIDTH 600 0
DWIDTH 22 0
BBX 11 32 5 -6
BITMAP
00E0
01C0
0380
0700
0E00
1E00
1C00
3800
3800
7000
7000
7000
F000
E000
E000
E000
E000
E000
E000
F000
F000
7000
7000
7800
3800
3C00
1E00
0E00
0700
0380
01C0
00E0
ENDCHAR
STARTCHAR parenright
ENCODING 41
SWIDTH 600 0
DWIDTH 22 0
BBX 11 32 6 -6
BITMAP
E000
7000
3800
1C00
0E00
0F00
0700
0380
0380
03C0
01C0
01C0
01E0
00E0
00E0
00E0
00E0
00E0
00E0
01E0
01C0
01C0
03C0
03C0
0380
0780
0F00
0E00
1C00
3800
7000
E000
ENDCHAR
STARTCHAR asterisk
ENCODING 42
SWIDTH 600 0
DWIDTH 22 0
BBX 17 16 2 11
BITMAP
01C000
01C000
01C000
01C000
01C000
61C380
FFDF80
FFFF80
0FF800
03E000
077000
077800
0E3800
1E3C00
1C1C00
041800
ENDCHAR
STARTCHAR plus
ENCODING 43
SWIDTH 600 0
DWIDTH 22 0
BBX 16 16 2 5
BITMAP
01C0
01C0
01C0
01C0
01C0
01C0
01C0
FFFF
FFFF
FFFF
01C0
01C0
01C0
01C0
01C0
01C0
ENDCHAR
STARTCHAR comma
ENCODING 44
SWIDTH 600 0
DWIDTH 22 0
BBX 6 10 8 -5
BITMAP
3C
3C
78
78
78
70
70
F0
E0
E0
ENDCHAR
STARTCHAR hyphen
ENCODING 45
SWIDTH 600 0
DWIDTH 22 0
BBX 12 3 5 8
BITMAP
FFF0
FFF0
FFF0
ENDCHAR
STARTCHAR period
ENCODING 46
SWIDTH 600 0
DWIDTH 22 0
BBX 5 6 8 -1
BITMAP
70
F8
F8
F8
F8
70
ENDCHAR
STARTCHAR slash
ENCODING 47
SWIDTH 600 0
DWIDTH 22 0
BBX 14 26 4 0
BITMAP
001C
0038
0038
0078
0070
0070
00E0
00E0
01C0
01C0
03C0
0380
0380
0700
0700
0F00
0E00
0E00
1C00
1C00
3800
3800
7800
7000
7000
E000
ENDCHAR
STARTCHAR zero
ENCODING 48
SWIDTH 600 0
DWIDTH 22 0
BBX 16 26 3 0
BITMAP
07E0
1FF0
3FF8
3C3C
781E
700E
700E
F00E
F00F
E007
E007
E007
E007
E007
E007
E007
E007
E00F
F00F
700E
700E
781E
3C3C
1FF8
0FF0
07E0
ENDCHAR
STARTCHAR one
ENCODING 49
SWIDTH 600 0
DWIDTH 22 0
BBX 9 26 4 0
BITMAP
0380
0F80
1F80
3F80
7B80
E380
4380
0380
0380
0380
0380
0380
0380
0380
0380
0380
0380
0380
0380
0380
0380
0380
0380
0380
0380
0380
ENDCHAR
STARTCHAR two
ENCODING 50
SWIDTH 600 0
DWIDTH 22 0
BBX 16 26 3 0
BITMAP
07E0
3FF8
7FFC
703C
201E
000E
000E
000E
000E
001E
001C
003C
0038
0070
00F0
01E0
03C0
0780
0F00
1E00
1C00
3800
7000
FFFF
FFFF
FFFF
ENDCHAR
STARTCHAR three
ENCODING 51
SWIDTH 600 0
DWIDTH 22 0
BBX 17 26 2 0
BITMAP
0FF000
3FFC00
FFFE00
701E00
000F00
000700
000700
000700
000F00
001E00
003C00
0FF000
0FF000
0FFC00
001F00
000700
000780
000380
000380
000380
000780
000700
C01F00
FFFE00
FFFC00
3FE000
ENDCHAR
STARTCHAR four
ENCODING 52
SWIDTH 600 0
DWIDTH 22 0
BBX 19 26 1 0
BITMAP
001E00
001E00
003E00
007E00
006E00
00EE00
01CE00
01CE00
038E00
070E00
070E00
0E0E00
1C0E00
3C0E00
380E00
700E00
F00E00
FFFFE0
FFFFE0
FFFFE0
000E00
000E00
000E00
000E00
000E00
000E00
ENDCHAR
STARTCHAR five
ENCODING 53
SWIDTH 600 0
DWIDTH 22 0
BBX 16 26 3 0
BITMAP
3FFC
3FFC
3FFC
3800
3800
3800
7000
7000
7000
7000
7FE0
7FF8
3FFC
003E
000E
000F
0007
0007
0007
0007
000F
000E
C03E
FFFC
FFF8
3FC0
ENDCHAR
STARTCHAR six
ENCODING 54
SWIDTH 600 0
DWIDTH 22 0
BBX 16 26 3 0
BITMAP
01FC
07FC
0FFC
1F00
3C00
3800
7800
7000
7000
F000
F3F0
E7F8
EFFC
F81E
F00F
F007
E007
E007
E007
7007
700F
780E
3C1E
1FFC
0FF8
07E0
ENDCHAR
STARTCHAR seven
ENCODING 55
SWIDTH 600 0
DWIDTH 22 0
BBX 16 26 3 0
BITMAP
FFFF
FFFF
FFFF
000F
000E
000E
001C
001C
003C
0038
0038
0070
0070
00F0
00E0
01E0
01C0
01C0
0380
0380
0780
0700
0F00
0E00
0E00
1E00
ENDCHAR
STARTCHAR eight
ENCODING 56
SWIDTH 600 0
DWIDTH 22 0
BBX 16 26 3 0
BITMAP
07E0
1FF8
3FFC
781C
700E
700E
700E
700E
781E
3C3C
1E78
0FF0
07E0
1FF8
3C7C
781E
700E
E007
E007
E007
E007
F00F
781E
7FFC
3FF8
0FE0
ENDCHAR
STARTCHAR nine
ENCODING 57
SWIDTH 600 0
DWIDTH 22 0
BBX 16 26 3 0
BITMAP
07E0
1FF0
3FF8
783C
701E
F00E
E00E
E007
E007
E007
E00F
F00F
781F
7FF7
3FE7
0FCF
000F
000E
000E
001E
001C
003C
0078
3FF0
3FE0
3F80
ENDCHAR
STARTCHAR colon
ENCODING 58
SWIDTH 600 0
DWIDTH 22 0
BBX 4 20 9 -1
BITMAP
60
F0
F0
F0
60
00
00
00
00
00
00
00
00
00
00
60
F0
F0
F0
60
ENDCHAR
STARTCHAR semicolon
ENCODING 59
SWIDTH 600 0
DWIDTH 22 0
BBX 6 24 7 -5
BITMAP
18
3C
3C
3C
18
00
00
00
00
00
00
00
00
00
00
3C
3C
78
78
78
70
70
E0
E0
ENDCHAR
STARTCHAR less
ENCODING 60
SWIDTH 600 0
DWIDTH 22 0
BBX 16 18 3 4
BITMAP
0001
0007
001F
007E
01F8
07E0
1F80
7E00
F800
F800
7E00
1F80
07E0
01F8
007E
001F
0007
0001
ENDCHAR
STARTCHAR equal
ENCODING 61
SWIDTH 600 0
DWIDTH 22 0
BBX 16 10 3 8
BITMAP
FFFF
FFFF
FFFF
0000
0000
0000
0000
FFFF
FFFF
FFFF
ENDCHAR
STARTCHAR greater
ENCODING 62
SWIDTH 600 0
DWIDTH 22 0
BBX 16 18 3 4
BITMAP
8000
E000
F800
7E00
1F80
07E0
01F8
007E
001F
001F
007E
01F8
07E0
1F80
7E00
F800
E000
8000
ENDCHAR
STARTCHAR question
ENCODING 63
SWIDTH 600 0
DWIDTH 22 0
BBX 16 27 3 -1
BITMAP
0FE0
FFF8
FFFE
601E
000F
0007
0007
0007
000F
000E
001E
003C
0078
00F0
01E0
03C0
0380
0380
0380
0000
0000
0000
0300
0780
0780
0780
0300
ENDCHAR
STARTCHAR at
ENCODING 64
SWIDTH 600 0
DWIDTH 22 0
BBX 20 29 1 -3
BITMAP
00FC00
07FE00
0F8F80
1E0380
1801C0
3800E0
3000E0
707C60
61FE70
63CE70
E38E70
E70E70
E70E30
E70E30
C70E70
C70E70
E70E70
E70E70
E71E60
E3BFE0
63F3C0
61E3C0
700000
380000
380000
1E0080
0F8780
07FF80
01FC00
ENDCHAR
STARTCHAR A
ENCODING 65
SWIDTH 600 0
DWIDTH 22 0
BBX 20 26 1 0
BITMAP
00F000
00F000
01F800
01F800
01F800
01F800
039C00
039C00
039C00
070E00
070E00
070E00
0F0700
0E0700
0E0700
1FFF80
1FFF80
1FFF80
3C03C0
3801C0
3801C0
7801E0
7000E0
7000E0
F000F0
F000F0
ENDCHAR
STARTCHAR B
ENCODING 66
SWIDTH 600 0
DWIDTH 22 0
BBX 18 26 2 0
BITMAP
FFF000
FFFE00
FFFF00
E00F00
E00780
E00780
E00380
E00780
E00780
E00700
E01E00
FFFC00
FFF800
FFFE00
E00F80
E00380
E003C0
E003C0
E001C0
E003C0
E003C0
E00380
E00F80
FFFF00
FFFE00
FFF800
ENDCHAR
STARTCHAR C
ENCODING 67
SWIDTH 600 0
DWIDTH 22 0
BBX 19 26 2 0
BITMAP
00FF00
03FFE0
0FFFC0
1F80C0
3E0000
3C0000
780000
780000
700000
F00000
F00000
F00000
E00000
E00000
F00000
F00000
F00000
F00000
700000
780000
3C0000
3E0000
1F80C0
0FFFC0
07FFC0
00FF00
ENDCHAR
STARTCHAR D
ENCODING 68
SWIDTH 600 0
DWIDTH 22 0
BBX 19 26 2 0
BITMAP
FFE000
FFF800
FFFE00
E03F00
E00F80
E00780
E003C0
E001C0
E001C0
E001E0
E001E0
E001E0
E000E0
E000E0
E001E0
E001E0
E001E0
E001C0
E003C0
E003C0
E00780
E00F80
E03F00
FFFC00
FFF800
FFC000
ENDCHAR
STARTCHAR E
ENCODING 69
SWIDTH 600 0
DWIDTH 22 0
BBX 15 26 4 0
BITMAP
FFFE
FFFE
FFFE
E000
E000
E000
E000
E000
E000
E000
E000
FFFC
FFFC
FFFC
E000
E000
E000
E000
E000
E000
E000
E000
E000
FFFE
FFFE
FFFE
ENDCHAR
STARTCHAR F
ENCODING 70
SWIDTH 600 0
DWIDTH 22 0
BBX 15 26 4 0
BITMAP
FFFE
FFFE
FFFE
E000
E000
E000
E000
E000
E000
E000
E000
E000
FFFC
FFFC
FFFC
E000
E000
E000
E000
E000
E000
E000
E000
E000
E000
E000
ENDCHAR
STARTCHAR G
ENCODING 71
SWIDTH 600 0
DWIDTH 22 0
BBX 18 26 2 0
BITMAP
00FE00
07FFC0
0FFF80
1F0380
3C0000
3C0000
780000
700000
F00000
F00000
F00000
F00000
E03FC0
E03FC0
F03FC0
F001C0
F001C0
F001C0
7001C0
7801C0
7801C0
3C01C0
1F01C0
0FFFC0
07FFC0
01FE00
ENDCHAR
STARTCHAR H
ENCODING 72
SWIDTH 600 0
DWIDTH 22 0
BBX 18 26 2 0
BITMAP
E001C0
E001C0
E001C0
E001C0
E001C0
E001C0
E001C0
E001C0
E001C0
E001C0
E001C0
FFFFC0
FFFFC0
FFFFC0
E001C0
E001C0
E001C0
E001C0
E001C0
E001C0
E001C0
E001C0
E001C0
E001C0
E001C0
E001C0
ENDCHAR
STARTCHAR I
ENCODING 73
SWIDTH 600 0
DWIDTH 22 0
BBX 13 26 4 0
BITMAP
FFF8
FFF8
0700
0700
0700
0700
0700
0700
0700
0700
0700
0700
0700
0700
0700
0700
0700
0700
0700
0700
0700
0700
0700
0780
FFF8
FFF8
ENDCHAR
STARTCHAR J
ENCODING 74
SWIDTH 600 0
DWIDTH 22 0
BBX 16 26 2 0
BITMAP
0007
0007
0007
0007
0007
0007
0007
0007
0007
0007
0007
0007
0007
0007
0007
0007
0007
0007
0007
000F
000F
001E
C07E
FFFC
FFF0
7FC0
ENDCHAR
STARTCHAR K
ENCODING 75
SWIDTH 600 0
DWIDTH 22 0
BBX 17 26 4 0
BITMAP
E00780
E00F00
E01E00
E01C00
E03C00
E07800
E0F000
E1E000
E1C000
E38000
E78000
EF0000
EF8000
FF8000
FBC000
E1E000
E0E000
E0F000
E07000
E07800
E03C00
E01C00
E01E00
E00F00
E00700
E00780
ENDCHAR
STARTCHAR L
ENCODING 76
SWIDTH 600 0
DWIDTH 22 0
BBX 15 26 4 0
BITMAP
E000
E000
E000
E000
E000
E000
E000
E000
E000
E000
E000
E000
E000
E000
E000
E000
E000
E000
E000
E000
E000
E000
E000
FFFE
FFFE
FFFE
ENDCHAR
STARTCHAR M
ENCODING 77
SWIDTH 600 0
DWIDTH 22 0
BBX 18 26 2 0
BITMAP
F807C0
F807C0
F807C0
D807C0
D806C0
DC0FC0
FC0FC0
FC0FC0
EC0DC0
EC1DC0
EE1DC0
EE1DC0
E619C0
E619C0
E639C0
E739C0
E731C0
E331C0
E331C0
E3F1C0
E3F1C0
E1E1C0
E1E1C0
E1E1C0
E1E1C0
E1C1C0
ENDCHAR
STARTCHAR N
ENCODING 78
SWIDTH 600 0
DWIDTH 22 0
BBX 18 26 2 0
BITMAP
F001C0
F801C0
F801C0
FC01C0
FC01C0
FE01C0
EE01C0
EF01C0
E701C0
E381C0
E381C0
E1C1C0
E1C1C0
E0E1C0
E0E1C0
E071C0
E071C0
E039C0
E03DC0
E01DC0
E01FC0
E00FC0
E00FC0
E007C0
E007C0
E003C0
ENDCHAR
STARTCHAR O
ENCODING 79
SWIDTH 600 0
DWIDTH 22 0
BBX 20 26 1 0
BITMAP
01F800
0FFE00
1FFF80
3E07C0
3C03C0
7801E0
7800E0
7000E0
F000F0
F000F0
F000F0
F000F0
E00070
E00070
F000F0
F000F0
F000F0
F000F0
7000E0
7801E0
7801E0
3C03C0
3E07C0
1FFF80
0FFE00
03F800
ENDCHAR
STARTCHAR P
ENCODING 80
SWIDTH 600 0
DWIDTH 22 0
BBX 17 26 3 0
BITMAP
FFF000
FFFC00
FFFE00
E01F00
E00F00
E00780
E00780
E00380
E00780
E00780
E00780
E00F00
E03E00
FFFE00
FFF800
FFC000
E00000
E00000
E00000
E00000
E00000
E00000
E00000
E00000
E00000
E00000
ENDCHAR
STARTCHAR Q
ENCODING 81
SWIDTH 600 0
DWIDTH 22 0
BBX 20 33 1 -7
BITMAP
01F800
0FFE00
1FFF80
3E07C0
3C03C0
7801E0
7800E0
7000E0
F000F0
F000F0
F000F0
F000F0
E00070
E00070
F000F0
F000F0
F000F0
F000F0
7000E0
7801E0
7801E0
3C03C0
3E0780
1FFF80
0FFE00
03FE00
000F00
000F00
000780
0003E0
0001F0
0000E0
000040
ENDCHAR
STARTCHAR R
ENCODING 82
SWIDTH 600 0
DWIDTH 22 0
BBX 18 26 3 0
BITMAP
FFE000
FFF800
FFFC00
E03E00
E00F00
E00F00
E00F00
E00700
E00F00
E00F00
E01E00
E03C00
FFFC00
FFF000
FFE000
E0F000
E07000
E07800
E03C00
E03C00
E01E00
E00E00
E00F00
E00780
E00780
E003C0
ENDCHAR
STARTCHAR S
ENCODING 83
SWIDTH 600 0
DWIDTH 22 0
BBX 16 26 3 0
BITMAP
0FF0
3FFE
7FFE
780C
F000
E000
E000
E000
F000
7800
7C00
3F80
1FE0
07F8
00FC
003E
000F
000F
0007
0007
000F
000F
C01E
FFFC
FFF8
3FE0
ENDCHAR
STARTCHAR T
ENCODING 84
SWIDTH 600 0
DWIDTH 22 0
BBX 18 26 2 0
BITMAP
FFFFC0
FFFFC0
FFFFC0
01C000
01C000
01C000
01C000
01C000
01C000
01C000
01C000
01C000
01C000
01C000
01C000
01C000
01C000
01C000
01C000
01C000
01C000
01C000
01C000
01C000
01C000
01C000
ENDCHAR
STARTCHAR U
ENCODING 85
SWIDTH 600 0
DWIDTH 22 0
BBX 18 26 2 0
BITMAP
E001C0
E001C0
E001C0
E001C0
E001C0
E001C0
E001C0
E001C0
E001C0
E001C0
E001C0
E001C0
E001C0
E001C0
E001C0
E001C0
E001C0
E001C0
E003C0
F003C0
F00380
780780
7C0F80
3FFF00
1FFE00
07F000
ENDCHAR
STARTCHAR V
ENCODING 86
SWIDTH 600 0
DWIDTH 22 0
BBX 20 26 1 0
BITMAP
F000F0
F000F0
7000E0
7801E0
7801E0
3801C0
3801C0
3C03C0
1C0380
1C0380
1E0780
0E0700
0E0700
0F0F00
070E00
070E00
078E00
039C00
039C00
039C00
01F800
01F800
01F800
00F000
00F000
00F000
ENDCHAR
STARTCHAR W
ENCODING 87
SWIDTH 600 0
DWIDTH 22 0
BBX 22 26 0 0
BITMAP
E0001C
E0001C
E0001C
E0001C
700018
700038
700038
700038
707838
707838
707838
30FC38
38FC30
38CC70
38CC70
39CE70
39CE70
398670
1B8770
1B8760
1B0360
1B0360
1B03E0
1F03E0
1E01E0
1E01E0
ENDCHAR
STARTCHAR X
ENCODING 88
SWIDTH 600 0
DWIDTH 22 0
BBX 20 26 1 0
BITMAP
7801E0
3801C0
3C03C0
1E0380
0E0700
0F0F00
070E00
079E00
039C00
01F800
01F800
00F000
00F000
01F800
01F800
039C00
039C00
070E00
0F0F00
0E0700
1C0780
1C0380
3803C0
7801E0
7001E0
F000F0
ENDCHAR
STARTCHAR Y
ENCODING 89
SWIDTH 600 0
DWIDTH 22 0
BBX 21 26 0 0
BITMAP
F00078
700070
7800F0
3800E0
1C01E0
1C01C0
0E0380
0F0380
070700
078700
038E00
03CE00
01DC00
00FC00
00F800
007800
007000
007000
007000
007000
007000
007000
007000
007000
007000
007000
ENDCHAR
STARTCHAR Z
ENCODING 90
SWIDTH 600 0
DWIDTH 22 0
BBX 18 26 2 0
BITMAP
FFFFC0
FFFFC0
FFFFC0
000380
000780
000F00
000E00
001E00
003C00
003800
007000
00F000
00E000
01C000
03C000
038000
070000
0F0000
1E0000
1C0000
3C0000
780000
700000
FFFFC0
FFFFC0
FFFFC0
ENDCHAR
STARTCHAR bracketleft
ENCODING 91
SWIDTH 600 0
DWIDTH 22 0
BBX 10 32 7 -6
BITMAP
FFC0
FFC0
FFC0
E000
E000
E000
E000
E000
E000
E000
E000
E000
E000
E000
E000
E000
E000
E000
E000
E000
E000
E000
E000
E000
E000
E000
E000
E000
E000
FFC0
FFC0
FFC0
ENDCHAR
STARTCHAR backslash
ENCODING 92
SWIDTH 600 0
DWIDTH 22 0
BBX 14 26 4 0
BITMAP
E000
7000
7000
7800
3800
3800
1C00
1C00
0E00
0E00
0F00
0700
0700
0380
0380
03C0
01C0
01C0
00E0
00E0
0070
0070
0078
0038
0038
001C
ENDCHAR
STARTCHAR bracketright
ENCODING 93
SWIDTH 600 0
DWIDTH 22 0
BBX 10 32 5 -6
BITMAP
FFC0
FFC0
FFC0
01C0
01C0
01C0
01C0
01C0
01C0
01C0
01C0
01C0
01C0
01C0
01C0
01C0
01C0
01C0
01C0
01C0
01C0
01C0
01C0
01C0
01C0
01C0
01C0
01C0
01C0
FFC0
FFC0
FFC0
ENDCHAR
STARTCHAR asciicircum
ENCODING 94
SWIDTH 600 0
DWIDTH 22 0
BBX 18 16 2 10
BITMAP
01C000
01C000
03E000
036000
077000
073000
0E3800
0E1800
0C1C00
1C0C00
180E00
380700
300700
700380
600380
E001C0
ENDCHAR
STARTCHAR underscore
ENCODING 95
SWIDTH 600 0
DWIDTH 22 0
BBX 22 2 0 -5
BITMAP
FFFFFC
FFFFFC
ENDCHAR
STARTCHAR grave
ENCODING 96
SWIDTH 600 0
DWIDTH 22 0
BBX 7 6 8 22
BITMAP
F0
78
78
3C
1C
0E
ENDCHAR
STARTCHAR a
ENCODING 97
SWIDTH 600 0
DWIDTH 22 0
BBX 16 19 2 0
BITMAP
07F0
3FFC
3FFE
301F
000F
0007
0007
0007
03FF
1FFF
7F07
F007
F007
E00F
E00F
F01F
7FF7
3FE7
1FC3
ENDCHAR
STARTCHAR b
ENCODING 98
SWIDTH 600 0
DWIDTH 22 0
BBX 17 27 3 0
BITMAP
E00000
E00000
E00000
E00000
E00000
E00000
E00000
E00000
E3F000
EFFC00
FFFE00
F81F00
F00F00
F00700
E00780
E00380
E00380
E00380
E00380
E00380
E00780
F00700
F00F00
F80F00
FFFE00
EFFC00
C3F000
ENDCHAR
STARTCHAR c
ENCODING 99
SWIDTH 600 0
DWIDTH 22 0
BBX 16 19 3 0
BITMAP
03FC
0FFF
1FFE
3C02
7800
7000
F000
E000
E000
E000
E000
E000
F000
7000
7800
3C01
1FFF
0FFF
03FC
ENDCHAR
STARTCHAR d
ENCODING 100
SWIDTH 600 0
DWIDTH 22 0
BBX 17 27 2 0
BITMAP
000380
000380
000380
000380
000380
000380
000380
000380
07E380
1FFB80
3FFF80
780F80
780780
700780
F00780
E00380
E00380
E00380
E00380
E00380
F00380
700780
700780
780F80
3FFB80
1FF380
07E380
ENDCHAR
STARTCHAR e
ENCODING 101
SWIDTH 600 0
DWIDTH 22 0
BBX 18 19 2 0
BITMAP
03F800
0FFE00
1FFF00
3C0780
780380
7003C0
F001C0
E001C0
FFFFC0
FFFFC0
FFFFC0
E00000
F00000
700000
780000
3C0180
1FFF80
0FFF80
03FE00
ENDCHAR
STARTCHAR f
ENCODING 102
SWIDTH 600 0
DWIDTH 22 0
BBX 18 27 2 0
BITMAP
003FC0
00FFC0
01FF80
03C000
038000
038000
038000
038000
FFFF80
FFFF80
FFFF80
038000
038000
038000
038000
038000
038000
038000
038000
038000
038000
038000
038000
038000
038000
038000
038000
ENDCHAR
STARTCHAR g
ENCODING 103
SWIDTH 600 0
DWIDTH 22 0
BBX 19 28 1 -9
BITMAP
03FFE0
0FFFE0
1F1F00
1C0700
380380
380380
380380
380380
3C0780
1E0F00
0FFE00
07F800
0E0000
1C0000
1C0000
1C0000
1FFF00
0FFF80
3FFFC0
7001E0
E000E0
E000E0
E000E0
E001E0
F003C0
7FFF80
3FFF00
0FFC00
ENDCHAR
STARTCHAR h
ENCODING 104
SWIDTH 600 0
DWIDTH 22 0
BBX 16 27 3 0
BITMAP
E000
E000
E000
E000
E000
E000
E000
E000
E3F0
EFFC
EFFE
FC1E
F00F
F007
F007
E007
E007
E007
E007
E007
E007
E007
E007
E007
E007
E007
E007
ENDCHAR
STARTCHAR i
ENCODING 105
SWIDTH 600 0
DWIDTH 22 0
BBX 15 27 4 0
BITMAP
0380
0380
0380
0380
0000
0000
0000
0000
7F80
7F80
0380
0380
0380
0380
0380
0380
0380
0380
0380
0380
0380
0380
0380
0380
03C0
FFFE
FFFE
ENDCHAR
STARTCHAR j
ENCODING 106
SWIDTH 600 0
DWIDTH 22 0
BBX 13 36 2 -9
BITMAP
0030
0078
0078
0030
0000
0000
0000
0000
3FF8
3FF8
0078
0038
0038
0038
0038
0038
0038
0038
0038
0038
0038
0038
0038
0038
0038
0038
0038
0038
0038
0038
0038
0078
00F0
FFF0
FFE0
7F80
ENDCHAR
STARTCHAR k
ENCODING 107
SWIDTH 600 0
DWIDTH 22 0
BBX 17 27 4 0
BITMAP
E00000
E00000
E00000
E00000
E00000
E00000
E00000
E00000
E00700
E01E00
E03C00
E07800
E0F000
E1E000
E3C000
E78000
EF0000
FF8000
FBC000
F1E000
E0E000
E0F000
E07800
E03C00
E01E00
E00F00
E00780
ENDCHAR
STARTCHAR l
ENCODING 108
SWIDTH 600 0
DWIDTH 22 0
BBX 15 27 4 0
BITMAP
7F80
7F80
0380
0380
0380
0380
0380
0380
0380
0380
0380
0380
0380
0380
0380
0380
0380
0380
0380
0380
0380
0380
0380
0380
03C0
FFFE
FFFE
ENDCHAR
STARTCHAR m
ENCODING 109
SWIDTH 600 0
DWIDTH 22 0
BBX 18 19 2 0
BITMAP
E70F00
EF9F80
FFFF80
F3E3C0
F1E1C0
E1C1C0
E1C1C0
E1C1C0
E1C1C0
E1C1C0
E1C1C0
E1C1C0
E1C1C0
E1C1C0
E1C1C0
E1C1C0
E1C1C0
E1C1C0
E1C1C0
ENDCHAR
STARTCHAR n
ENCODING 110
SWIDTH 600 0
DWIDTH 22 0
BBX 16 19 3 0
BITMAP
E3F0
EFFC
EFFE
FC1E
F00F
F007
F007
E007
E007
E007
E007
E007
E007
E007
E007
E007
E007
E007
E007
ENDCHAR
STARTCHAR o
ENCODING 111
SWIDTH 600 0
DWIDTH 22 0
BBX 18 19 2 0
BITMAP
03F000
0FFC00
3FFE00
3C0F00
780780
700380
F003C0
E001C0
E001C0
E001C0
E001C0
E001C0
F003C0
700380
780780
3C0F00
1FFE00
0FFC00
03F000
ENDCHAR
STARTCHAR p
ENCODING 112
SWIDTH 600 0
DWIDTH 22 0
BBX 17 28 3 -9
BITMAP
E3F000
E7FC00
EFFE00
F81F00
F00F00
F00700
E00780
E00380
E00380
E00380
E00380
E00380
E00780
F00700
F00F00
F80F00
FFFE00
EFFC00
E3F000
E00000
E00000
E00000
E00000
E00000
E00000
E00000
E00000
E00000
ENDCHAR
STARTCHAR q
ENCODING 113
SWIDTH 600 0
DWIDTH 22 0
BBX 17 28 2 -9
BITMAP
07E380
1FF380
3FFB80
780F80
780780
700780
F00780
E00380
E00380
E00380
E00380
E00380
F00380
700780
700780
780F80
3FFB80
1FF380
07E380
000380
000380
000380
000380
000380
000380
000380
000380
000380
ENDCHAR
STARTCHAR r
ENCODING 114
SWIDTH 600 0
DWIDTH 22 0
BBX 14 19 5 0
BITMAP
E1F8
E7FC
EFFC
FC00
F800
F000
F000
E000
E000
E000
E000
E000
E000
E000
E000
E000
E000
E000
E000
ENDCHAR
STARTCHAR s
ENCODING 115
SWIDTH 600 0
DWIDTH 22 0
BBX 14 19 4 0
BITMAP
0FF0
3FFC
7FFC
F008
E000
E000
F000
7C00
3F80
0FE0
03F8
0078
003C
001C
001C
C03C
FFF8
FFF0
3FC0
ENDCHAR
STARTCHAR t
ENCODING 116
SWIDTH 600 0
DWIDTH 22 0
BBX 16 24 2 0
BITMAP
0300
0300
0300
0700
0700
7FFF
FFFF
FFFF
0700
0700
0700
0700
0700
0700
0700
0700
0700
0700
0700
0700
0780
03FF
01FF
00FF
ENDCHAR
STARTCHAR u
ENCODING 117
SWIDTH 600 0
DWIDTH 22 0
BBX 16 19 3 0
BITMAP
E007
E007
E007
E007
E007
E007
E007
E007
E007
E007
E007
E007
E00F
E00F
F00F
781F
7FF7
3FF7
0FC7
ENDCHAR
STARTCHAR v
ENCODING 118
SWIDTH 600 0
DWIDTH 22 0
BBX 20 19 1 0
BITMAP
F000F0
7000E0
7000E0
7801E0
3801C0
3C03C0
1C0380
1C0380
0E0700
0E0700
0F0F00
070E00
078E00
039C00
039C00
01DC00
01F800
01F800
00F000
ENDCHAR
STARTCHAR w
ENCODING 119
SWIDTH 600 0
DWIDTH 22 0
BBX 22 19 0 0
BITMAP
E0781C
E0781C
60781C
60FC18
70FC38
70CC38
70CC38
31CE38
31CE30
39CE70
398670
398670
1B8770
1B8760
1B0360
1B0360
1F03E0
0F03C0
0E01C0
ENDCHAR
STARTCHAR x
ENCODING 120
SWIDTH 600 0
DWIDTH 22 0
BBX 18 19 2 0
BITMAP
700380
780780
3C0F00
1C0E00
0E1C00
0F3C00
07F800
03F000
01E000
01E000
03F000
03F000
073800
0F3C00
1E1E00
1C0E00
380700
780780
F003C0
ENDCHAR
STARTCHAR y
ENCODING 121
SWIDTH 600 0
DWIDTH 22 0
BBX 20 28 1 -9
BITMAP
F000F0
7000E0
7000E0
3801E0
3801C0
3C03C0
1C0380
1E0780
0E0700
0F0700
070F00
070E00
039E00
039C00
01DC00
01FC00
01F800
00F800
00F000
00F000
00E000
00E000
01E000
01C000
03C000
FF8000
FF0000
FC0000
ENDCHAR
STARTCHAR z
ENCODING 122
SWIDTH 600 0
DWIDTH 22 0
BBX 16 19 3 0
BITMAP
7FFF
7FFF
7FFF
000E
001C
0038
0078
00F0
01E0
03C0
0380
0700
0E00
1C00
3800
7000
FFFF
FFFF
FFFF
ENDCHAR
STARTCHAR braceleft
ENCODING 123
SWIDTH 600 0
DWIDTH 22 0
BBX 14 32 4 -6
BITMAP
003C
00FC
01FC
03C0
0380
0380
0380
0380
0380
0380
0380
0380
0380
0780
0F00
FE00
F800
FF00
0780
0380
0380
0380
0380
0380
0380
0380
0380
0380
03C0
01FC
00FC
003C
ENDCHAR
STARTCHAR bar
ENCODING 124
SWIDTH 600 0
DWIDTH 22 0
BBX 3 36 9 -9
BITMAP
E0
E0
E0
E0
E0
E0
E0
E0
E0
E0
E0
E0
E0
E0
E0
E0
E0
E0
E0
E0
E0
E0
E0
E0
E0
E0
E0
E0
E0
E0
E0
E0
E0
E0
E0
E0
ENDCHAR
STARTCHAR braceright
ENCODING 125
SWIDTH 600 0
DWIDTH 22 0
BBX 14 32 4 -6
BITMAP
F000
FC00
FE00
0F00
0700
0700
0700
0700
0700
0700
0700
0700
0700
0780
03C0
01FC
007C
03FC
0780
0700
0700
0700
0700
0700
0700
0700
0700
0700
0F00
FE00
FC00
F000
ENDCHAR
STARTCHAR asciitilde
ENCODING 126
SWIDTH 600 0
DWIDTH 22 0
BBX 16 5 3 10
BITMAP
3E00
FF83
FFFF
C1FF
007C
ENDCHAR
STARTCHAR uni00A0
ENCODING 160
SWIDTH 600 0
DWIDTH 22 0
BBX 1 1 0 0
BITMAP
00
ENDCHAR
STARTCHAR exclamdown
ENCODING 161
SWIDTH 600 0
DWIDTH 22 0
BBX 4 26 9 -7
BITMAP
70
F0
F0
F0
70
00
00
00
60
60
60
60
70
70
70
70
70
70
70
70
70
F0
F0
F0
F0
F0
ENDCHAR
STARTCHAR cent
ENCODING 162
SWIDTH 600 0
DWIDTH 22 0
BBX 16 26 3 0
BITMAP
00E0
00E0
00E0
03FE
0FFF
3FFF
3C00
7800
7000
F000
E000
E000
E000
E000
E000
F000
7000
7800
3C01
3FFF
0FFF
03FE
00E0
00E0
00E0
00E0
ENDCHAR
STARTCHAR sterling
ENCODING 163
SWIDTH 600 0
DWIDTH 22 0
BBX 18 26 2 0
BITMAP
00FE00
03FF80
07FF80
078100
0F0000
0E0000
0E0000
0E0000
0E0000
0E0000
0E0000
0E0000
FFFC00
FFFC00
FFFC00
0E0000
0E0000
0E0000
0E0000
0E0000
0E0000
1C0000
3C0000
FFFFC0
FFFFC0
FFFFC0
ENDCHAR
STARTCHAR currency
ENCODING 164
SWIDTH 600 0
DWIDTH 22 0
BBX 15 15 4 5
BITMAP
4004
E7CE
7FFC
3EF8
3838
701C
701C
600C
701C
701C
3838
3EF8
7FFC
E7CE
4004
ENDCHAR
STARTCHAR yen
ENCODING 165
SWIDTH 600 0
DWIDTH 22 0
BBX 19 26 1 0
BITMAP
F001E0
7001C0
7803C0
380380
380380
1C0700
1C0700
0E0E00
0E0E00
071C00
071C00
03B800
03B800
01F000
1FFF00
1FFF00
00E000
00E000
00E000
1FFF00
1FFF00
00E000
00E000
00E000
00E000
00E000
ENDCHAR
STARTCHAR brokenbar
ENCODING 166
SWIDTH 600 0
DWIDTH 22 0
BBX 3 36 9 -9
BITMAP
E0
E0
E0
E0
E0
E0
E0
E0
E0
E0
E0
E0
E0
E0
00
00
00
00
00
00
00
00
E0
E0
E0
E0
E0
E0
E0
E0
E0
E0
E0
E0
E0
E0
ENDCHAR
STARTCHAR section
ENCODING 167
SWIDTH 600 0
DWIDTH 22 0
BBX 13 27 5 0
BITMAP
1FC0
7FF8
7FF0
E010
E000
E000
F800
7E00
1F80
7FE0
71F0
E078
E038
E038
F038
7838
3E70
1FE0
07E0
00F0
0078
0038
0038
8078
FFF0
FFE0
7F80
ENDCHAR
STARTCHAR dieresis
ENCODING 168
SWIDTH 600 0
DWIDTH 22 0
BBX 10 4 6 23
BITMAP
E1C0
E1C0
E1C0
E1C0
ENDCHAR
STARTCHAR copyright
ENCODING 169
SWIDTH 600 0
DWIDTH 22 0
BBX 22 26 0 0
BITMAP
01FE00
07FF80
0F03C0
1C00E0
380070
307E30
61FF18
63E718
C70008
C7000C
CE000C
CE000C
CE000C
CE000C
CE000C
CE000C
C7000C
C7000C
63E718
61FF18
307E30
380070
1C00E0
0F03C0
07FF80
01FE00
ENDCHAR
STARTCHAR ordfeminine
ENCODING 170
SWIDTH 600 0
DWIDTH 22 0
BBX 11 12 5 14
BITMAP
3F80
7FC0
60E0
00E0
1FE0
7FE0
E0E0
E0E0
E0E0
E3E0
7F60
3C60
ENDCHAR
STARTCHAR guillemotleft
ENCODING 171
SWIDTH 600 0
DWIDTH 22 0
BBX 14 15 4 2
BITMAP
0408
0E1C
1C38
1C38
3870
78F0
70E0
E1C0
70E0
78F0
3870
1C38
1C38
0E1C
0408
ENDCHAR
STARTCHAR logicalnot
ENCODING 172
SWIDTH 600 0
DWIDTH 22 0
BBX 16 9 3 5
BITMAP
FFFF
FFFF
FFFF
0007
0007
0007
0007
0007
0007
ENDCHAR
STARTCHAR uni00AD
ENCODING 173
SWIDTH 600 0
DWIDTH 22 0
BBX 12 3 5 8
BITMAP
FFF0
FFF0
FFF0
ENDCHAR
STARTCHAR registered
ENCODING 174
SWIDTH 600 0
DWIDTH 22 0
BBX 22 26 0 0
BITMAP
01FE00
07FF80
0F03C0
1C00E0
380070
33F830
63FE18
639F18
C38708
C3870C
C3870C
C3870C
C39E0C
C3FC0C
C3F80C
C39C0C
C39E0C
C38E0C
638718
638718
3383B0
380070
1C00E0
0F03C0
07FF80
01FE00
ENDCHAR
STARTCHAR macron
ENCODING 175
SWIDTH 600 0
DWIDTH 22 0
BBX 22 2 0 27
BITMAP
FFFFFC
FFFFFC
ENDCHAR
STARTCHAR degree
ENCODING 176
SWIDTH 600 0
DWIDTH 22 0
BBX 12 11 5 15
BITMAP
1F00
3FC0
70E0
E070
E070
C030
E070
E070
70E0
3FC0
1F80
ENDCHAR
STARTCHAR plusminus
ENCODING 177
SWIDTH 600 0
DWIDTH 22 0
BBX 16 21 2 0
BITMAP
01C0
01C0
01C0
01C0
01C0
01C0
01C0
FFFF
FFFF
FFFF
01C0
01C0
01C0
01C0
01C0
01C0
0000
0000
FFFF
FFFF
FFFF
ENDCHAR
STARTCHAR uni00B2
ENCODING 178
SWIDTH 600 0
DWIDTH 22 0
BBX 10 14 6 12
BITMAP
3E00
FF00
6380
0380
0380
0380
0700
0E00
0E00
1C00
3000
6000
FFC0
FFC0
ENDCHAR
STARTCHAR uni00B3
ENCODING 179
SWIDTH 600 0
DWIDTH 22 0
BBX 9 14 6 12
BITMAP
3E00
FF00
4380
0380
0380
0300
3E00
3F00
0380
0380
0380
8380
FF00
7E00
ENDCHAR
STARTCHAR acute
ENCODING 180
SWIDTH 600 0
DWIDTH 22 0
BBX 7 6 8 22
BITMAP
1E
3C
3C
78
70
E0
ENDCHAR
STARTCHAR mu
ENCODING 181
SWIDTH 600 0
DWIDTH 22 0
BBX 16 28 3 -9
BITMAP
E007
E007
E007
E007
E007
E007
E007
E007
E007
E007
E007
E007
E007
E00F
F00F
F81F
FFF7
FFF7
E7C7
E000
E000
E000
E000
E000
E000
E000
E000
E000
ENDCHAR
STARTCHAR paragraph
ENCODING 182
SWIDTH 600 0
DWIDTH 22 0
BBX 18 32 1 -5
BITMAP
07FFC0
1FFFC0
3FFFC0
7FF0C0
7FF0C0
FFF0C0
FFF0C0
FFF0C0
FFF0C0
FFF0C0
FFF0C0
FFF0C0
FFF0C0
7FF0C0
7FF0C0
3FF0C0
1FF0C0
0FF0C0
0030C0
0030C0
0030C0
0030C0
0030C0
0030C0
0030C0
0030C0
0030C0
0030C0
0030C0
0030C0
0030C0
0030C0
ENDCHAR
STARTCHAR periodcentered
ENCODING 183
SWIDTH 600 0
DWIDTH 22 0
BBX 4 5 9 10
BITMAP
60
F0
F0
F0
60
ENDCHAR
STARTCHAR cedilla
ENCODING 184
SWIDTH 600 0
DWIDTH 22 0
BBX 7 9 7 -9
BITMAP
38
30
38
3C
0E
0E
0E
FC
F8
ENDCHAR
STARTCHAR uni00B9
ENCODING 185
SWIDTH 600 0
DWIDTH 22 0
BBX 7 14 6 12
BITMAP
1E
3E
FE
4E
0E
0E
0E
0E
0E
0E
0E
0E
0E
0E
ENDCHAR
STARTCHAR ordmasculine
ENCODING 186
SWIDTH 600 0
DWIDTH 22 0
BBX 12 12 5 14
BITMAP
1F80
3FC0
70E0
E070
E070
E070
E070
E070
E070
70E0
3FC0
1F80
ENDCHAR
STARTCHAR guillemotright
ENCODING 187
SWIDTH 600 0
DWIDTH 22 0
BBX 14 15 4 2
BITMAP
4080
E1C0
70E0
70E0
3870
3C78
1C38
0E1C
1C38
3C78
3870
70E0
70E0
E1C0
4080
ENDCHAR
STARTCHAR onequarter
ENCODING 188
SWIDTH 600 0
DWIDTH 22 0
BBX 22 26 0 0
BITMAP
1E00E0
3E01C0
FE01C0
4E0380
0E0380
0E0700
0E0700
0E0E00
0E0E00
0E1C00
0E1C00
0E3800
0E3838
0E7078
0070F8
00E1F8
00E1B8
01C338
01C738
038E38
038C38
071FFC
071FFC
0E0038
0E0038
1C0038
ENDCHAR
STARTCHAR onehalf
ENCODING 189
SWIDTH 600 0
DWIDTH 22 0
BBX 22 26 0 0
BITMAP
1E01C0
3E0380
FE0380
4E0700
0E0700
0E0E00
0E0E00
0E1C00
0E1C00
0E3800
0E3800
0E7000
0E73E0
0EEFF0
00E638
01C038
01C038
038038
038070
0700E0
0700E0
0E01C0
0E0300
1C0600
1C0FFC
380FFC
ENDCHAR
STARTCHAR threequarters
ENCODING 190
SWIDTH 600 0
DWIDTH 22 0
BBX 22 26 0 0
BITMAP
3E0070
FF00E0
4380E0
0381C0
0381C0
030380
3E0380
3F0700
038700
038E00
038E00
839C00
FF1C38
7E3878
0038F8
0071F8
0071B8
00E338
00E738
01CE38
01CC38
039FFC
039FFC
070038
070038
0E0038
ENDCHAR
STARTCHAR questiondown
ENCODING 191
SWIDTH 600 0
DWIDTH 22 0
BBX 16 26 3 -7
BITMAP
00C0
01E0
01E0
01E0
00C0
0000
0000
0000
01C0
01C0
01C0
03C0
0780
0F00
1E00
3C00
7000
F000
E000
E000
E000
F000
7806
7FFF
3FFE
0FF0
ENDCHAR
STARTCHAR Agrave
ENCODING 192
SWIDTH 600 0
DWIDTH 22 0
BBX 20 34 1 0
BITMAP
078000
03C000
03C000
01E000
00E000
007000
000000
000000
00F000
00F000
01F800
01F800
01F800
01F800
039C00
039C00
039C00
070E00
070E00
070E00
0F0700
0E0700
0E0700
1FFF80
1FFF80
1FFF80
3C03C0
3801C0
3801C0
7801E0
7000E0
7000E0
F000F0
F000F0
ENDCHAR
STARTCHAR Aacute
ENCODING 193
SWIDTH 600 0
DWIDTH 22 0
BBX 20 34 1 0
BITMAP
000F00
001E00
001E00
003C00
003800
007000
000000
000000
00F000
00F000
01F800
01F800
01F800
01F800
039C00
039C00
039C00
070E00
070E00
070E00
0F0700
0E0700
0E0700
1FFF80
1FFF80
1FFF80
3C03C0
3801C0
3801C0
7801E0
7000E0
7000E0
F000F0
F000F0
ENDCHAR
STARTCHAR Acircumflex
ENCODING 194
SWIDTH 600 0
DWIDTH 22 0
BBX 20 34 1 0
BITMAP
00F000
01F000
03F800
03BC00
070E00
0E0700
000000
000000
00F000
00F000
01F800
01F800
01F800
01F800
039C00
039C00
039C00
070E00
070E00
070E00
0F0700
0E0700
0E0700
1FFF80
1FFF80
1FFF80
3C03C0
3801C0
3801C0
7801E0
7000E0
7000E0
F000F0
F000F0
ENDCHAR
STARTCHAR Atilde
ENCODING 195
SWIDTH 600 0
DWIDTH 22 0
BBX 20 33 1 0
BITMAP
03C180
07E180
0FFF00
0C3F00
0C1E00
000000
000000
00F000
00F000
01F800
01F800
01F800
01F800
039C00
039C00
039C00
070E00
070E00
070E00
0F0700
0E0700
0E0700
1FFF80
1FFF80
1FFF80
3C03C0
3801C0
3801C0
7801E0
7000E0
7000E0
F000F0
F000F0
ENDCHAR
STARTCHAR Adieresis
ENCODING 196
SWIDTH 600 0
DWIDTH 22 0
BBX 20 33 1 0
BITMAP
070E00
070E00
070E00
070E00
000000
000000
000000
00F000
00F000
01F800
01F800
01F800
01F800
039C00
039C00
039C00
070E00
070E00
070E00
0F0700
0E0700
0E0700
1FFF80
1FFF80
1FFF80
3C03C0
3801C0
3801C0
7801E0
7000E0
7000E0
F000F0
F000F0
ENDCHAR
STARTCHAR Aring
ENCODING 197
SWIDTH 600 0
DWIDTH 22 0
BBX 20 32 1 0
BITMAP
00F000
01F800
030C00
030C00
030C00
030C00
01F800
00F000
01F800
01F800
01F800
01F800
039C00
039C00
039C00
070E00
070E00
070E00
0F0700
0E0700
0E0700
1FFF80
1FFF80
1FFF80
3C03C0
3801C0
3801C0
7801E0
7000E0
7000E0
F000F0
F000F0
ENDCHAR
STARTCHAR AE
ENCODING 198
SWIDTH 600 0
DWIDTH 22 0
BBX 21 26 0 0
BITMAP
03FFF8
03FFF8
07FFF8
073800
073800
063800
0E3800
0E3800
0E3800
0E3800
0C3800
1C3FF0
1C3FF0
1C3FF0
1C3800
3FF800
3FF800
3FF800
383800
703800
703800
703800
703800
703FF8
E03FF8
E03FF8
ENDCHAR
STARTCHAR Ccedilla
ENCODING 199
SWIDTH 600 0
DWIDTH 22 0
BBX 19 35 2 -9
BITMAP
00FF00
03FFE0
0FFFC0
1F80C0
3E0000
3C0000
780000
780000
700000
F00000
F00000
F00000
E00000
E00000
F00000
F00000
F00000
F00000
700000
780000
3C0000
3E0000
1F80C0
0FFFC0
07FFC0
00FF00
007000
006000
007000
007800
001C00
001C00
001C00
01F800
01F000
ENDCHAR
STARTCHAR Egrave
ENCODING 200
SWIDTH 600 0
DWIDTH 22 0
BBX 15 34 4 0
BITMAP
1E00
0F00
0F00
0780
0380
01C0
0000
0000
FFFE
FFFE
FFFE
E000
E000
E000
E000
E000
E000
E000
E000
FFFC
FFFC
FFFC
E000
E000
E000
E000
E000
E000
E000
E000
E000
FFFE
FFFE
FFFE
ENDCHAR
STARTCHAR Eacute
ENCODING 201
SWIDTH 600 0
DWIDTH 22 0
BBX 15 34 4 0
BITMAP
00F0
01E0
01E0
03C0
0380
0700
0000
0000
FFFE
FFFE
FFFE
E000
E000
E000
E000
E000
E000
E000
E000
FFFC
FFFC
FFFC
E000
E000
E000
E000
E000
E000
E000
E000
E000
FFFE
FFFE
FFFE
ENDCHAR
STARTCHAR Ecircumflex
ENCODING 202
SWIDTH 600 0
DWIDTH 22 0
BBX 15 34 4 0
BITMAP
03C0
07C0
0FE0
0EF0
1C38
381C
0000
0000
FFFE
FFFE
FFFE
E000
E000
E000
E000
E000
E000
E000
E000
FFFC
FFFC
FFFC
E000
E000
E000
E000
E000
E000
E000
E000
E000
FFFE
FFFE
FFFE
ENDCHAR
STARTCHAR Edieresis
ENCODING 203
SWIDTH 600 0
DWIDTH 22 0
BBX 15 33 4 0
BITMAP
1C38
1C38
1C38
1C38
0000
0000
0000
FFFE
FFFE
FFFE
E000
E000
E000
E000
E000
E000
E000
E000
FFFC
FFFC
FFFC
E000
E000
E000
E000
E000
E000
E000
E000
E000
FFFE
FFFE
FFFE
ENDCHAR
STARTCHAR Igrave
ENCODING 204
SWIDTH 600 0
DWIDTH 22 0
BBX 13 34 4 0
BITMAP
7800
3C00
3C00
1E00
0E00
0700
0000
0000
FFF8
FFF8
0700
0700
0700
0700
0700
0700
0700
0700
0700
0700
0700
0700
0700
0700
0700
0700
0700
0700
0700
0700
0700
0780
FFF8
FFF8
ENDCHAR
STARTCHAR Iacute
ENCODING 205
SWIDTH 600 0
DWIDTH 22 0
BBX 13 34 4 0
BITMAP
00F0
01E0
01E0
03C0
0380
0700
0000
0000
FFF8
FFF8
0700
0700
0700
0700
0700
0700
0700
0700
0700
0700
0700
0700
0700
0700
0700
0700
0700
0700
0700
0700
0700
0780
FFF8
FFF8
ENDCHAR
STARTCHAR Icircumflex
ENCODING 206
SWIDTH 600 0
DWIDTH 22 0
BBX 13 34 4 0
BITMAP
0780
0F80
1FC0
1DE0
3870
7038
0000
0000
FFF8
FFF8
0700
0700
0700
0700
0700
0700
0700
0700
0700
0700
0700
0700
0700
0700
0700
0700
0700
0700
0700
0700
0700
0780
FFF8
FFF8
ENDCHAR
STARTCHAR Idieresis
ENCODING 207
SWIDTH 600 0
DWIDTH 22 0
BBX 13 33 4 0
BITMAP
3870
3870
3870
3870
0000
0000
0000
FFF8
FFF8
0700
0700
0700
0700
0700
0700
0700
0700
0700
0700
0700
0700
0700
0700
0700
0700
0700
0700
0700
0700
0700
0780
FFF8
FFF8
ENDCHAR
STARTCHAR Eth
ENCODING 208
SWIDTH 600 0
DWIDTH 22 0
BBX 21 26 0 0
BITMAP
3FF800
3FFE00
3FFF80
380FC0
3803E0
3801E0
3800F0
380070
380070
380078
380078
FFF878
FFF838
FFF838
380078
380078
380078
380070
3800F0
3800F0
3801E0
3803E0
380FC0
3FFF00
3FFE00
3FF000
ENDCHAR
STARTCHAR Ntilde
ENCODING 209
SWIDTH 600 0
DWIDTH 22 0
BBX 18 33 2 0
BITMAP
078300
0FC300
1FFE00
187E00
183C00
000000
000000
F001C0
F801C0
F801C0
FC01C0
FC01C0
FE01C0
EE01C0
EF01C0
E701C0
E381C0
E381C0
E1C1C0
E1C1C0
E0E1C0
E0E1C0
E071C0
E071C0
E039C0
E03DC0
E01DC0
E01FC0
E00FC0
E00FC0
E007C0
E007C0
E003C0
ENDCHAR
STARTCHAR Ograve
ENCODING 210
SWIDTH 600 0
DWIDTH 22 0
BBX 20 34 1 0
BITMAP
078000
03C000
03C000
01E000
00E000
007000
000000
000000
01F800
0FFE00
1FFF80
3E07C0
3C03C0
7801E0
7800E0
7000E0
F000F0
F000F0
F000F0
F000F0
E00070
E00070
F000F0
F000F0
F000F0
F000F0
7000E0
7801E0
7801E0
3C03C0
3E07C0
1FFF80
0FFE00
03F800
ENDCHAR
STARTCHAR Oacute
ENCODING 211
SWIDTH 600 0
DWIDTH 22 0
BBX 20 34 1 0
BITMAP
001E00
003C00
003C00
007800
007000
00E000
000000
000000
01F800
0FFE00
1FFF80
3E07C0
3C03C0
7801E0
7800E0
7000E0
F000F0
F000F0
F000F0
F000F0
E00070
E00070
F000F0
F000F0
F000F0
F000F0
7000E0
7801E0
7801E0
3C03C0
3E07C0
1FFF80
0FFE00
03F800
ENDCHAR
STARTCHAR Ocircumflex
ENCODING 212
SWIDTH 600 0
DWIDTH 22 0
BBX 20 34 1 0
BITMAP
00F000
01F000
03F800
03BC00
070E00
0E0700
000000
000000
01F800
0FFE00
1FFF80
3E07C0
3C03C0
7801E0
7800E0
7000E0
F000F0
F000F0
F000F0
F000F0
E00070
E00070
F000F0
F000F0
F000F0
F000F0
7000E0
7801E0
7801E0
3C03C0
3E07C0
1FFF80
0FFE00
03F800
ENDCHAR
STARTCHAR Otilde
ENCODING 213
SWIDTH 600 0
DWIDTH 22 0
BBX 20 33 1 0
BITMAP
03C180
07E180
0FFF00
0C3F00
0C1E00
000000
000000
01F800
0FFE00
1FFF80
3E07C0
3C03C0
7801E0
7800E0
7000E0
F000F0
F000F0
F000F0
F000F0
E00070
E00070
F000F0
F000F0
F000F0
F000F0
7000E0
7801E0
7801E0
3C03C0
3E07C0
1FFF80
0FFE00
03F800
ENDCHAR
STARTCHAR Odieresis
ENCODING 214
SWIDTH 600 0
DWIDTH 22 0
BBX 20 33 1 0
BITMAP
070E00
070E00
070E00
070E00
000000
000000
000000
01F800
0FFE00
1FFF80
3E07C0
3C03C0
7801E0
7800E0
7000E0
F000F0
F000F0
F000F0
F000F0
E00070
E00070
F000F0
F000F0
F000F0
F000F0
7000E0
7801E0
7801E0
3C03C0
3E07C0
1FFF80
0FFE00
03F800
ENDCHAR
STARTCHAR multiply
ENCODING 215
SWIDTH 600 0
DWIDTH 22 0
BBX 15 15 3 5
BITMAP
4004
E00E
701C
3838
1C70
0EE0
07C0
0380
07C0
0EE0
1C70
3838
701C
600E
0004
ENDCHAR
STARTCHAR Oslash
ENCODING 216
SWIDTH 600 0
DWIDTH 22 0
BBX 20 28 1 -1
BITMAP
000040
01F870
0FFEF0
1FFFE0
3E07C0
3C03C0
7803E0
7807E0
700FE0
F01EF0
F01CF0
F03CF0
F078F0
E07070
E0F070
E1E0F0
F1C0F0
F380F0
F780F0
7F00E0
7E00E0
7E01E0
3C03C0
3E07C0
7FFF80
7FFE00
F3F800
200000
ENDCHAR
STARTCHAR Ugrave
ENCODING 217
SWIDTH 600 0
DWIDTH 22 0
BBX 18 34 2 0
BITMAP
078000
03C000
03C000
01E000
00E000
007000
000000
000000
E001C0
E001C0
E001C0
E001C0
E001C0
E001C0
E001C0
E001C0
E001C0
E001C0
E001C0
E001C0
E001C0
E001C0
E001C0
E001C0
E001C0
E001C0
E003C0
F003C0
F00380
780780
7C0F80
3FFF00
1FFE00
07F000
ENDCHAR
STARTCHAR Uacute
ENCODING 218
SWIDTH 600 0
DWIDTH 22 0
BBX 18 34 2 0
BITMAP
003C00
007800
007800
00F000
00E000
01C000
000000
000000
E001C0
E001C0
E001C0
E001C0
E001C0
E001C0
E001C0
E001C0
E001C0
E001C0
E001C0
E001C0
E001C0
E001C0
E001C0
E001C0
E001C0
E001C0
E003C0
F003C0
F00380
780780
7C0F80
3FFF00
1FFE00
07F000
ENDCHAR
STARTCHAR Ucircumflex
ENCODING 219
SWIDTH 600 0
DWIDTH 22 0
BBX 18 34 2 0
BITMAP
01E000
03E000
07F000
077800
0E1C00
1C0E00
000000
000000
E001C0
E001C0
E001C0
E001C0
E001C0
E001C0
E001C0
E001C0
E001C0
E001C0
E001C0
E001C0
E001C0
E001C0
E001C0
E001C0
E001C0
E001C0
E003C0
F003C0
F00380
780780
7C0F80
3FFF00
1FFE00
07F000
ENDCHAR
STARTCHAR Udieresis
ENCODING 220
SWIDTH 600 0
DWIDTH 22 0
BBX 18 33 2 0
BITMAP
0E1C00
0E1C00
0E1C00
0E1C00
000000
000000
000000
E001C0
E001C0
E001C0
E001C0
E001C0
E001C0
E001C0
E001C0
E001C0
E001C0
E001C0
E001C0
E001C0
E001C0
E001C0
E001C0
E001C0
E001C0
E003C0
F003C0
F00380
780780
7C0F80
3FFF00
1FFE00
07F000
ENDCHAR
STARTCHAR Yacute
ENCODING 221
SWIDTH 600 0
DWIDTH 22 0
BBX 21 34 0 0
BITMAP
000F00
001E00
001E00
003C00
003800
007000
000000
000000
F00078
700070
7800F0
3800E0
1C01E0
1C01C0
0E0380
0F0380
070700
078700
038E00
03CE00
01DC00
00FC00
00F800
007800
007000
007000
007000
007000
007000
007000
007000
007000
007000
007000
ENDCHAR
STARTCHAR Thorn
ENCODING 222
SWIDTH 600 0
DWIDTH 22 0
BBX 17 26 3 0
BITMAP
E00000
E00000
E00000
E00000
FFF000
FFFC00
FFFE00
E01F00
E00F00
E00780
E00780
E00380
E00780
E00780
E00780
E00F00
E01F00
FFFE00
FFF800
FFE000
E00000
E00000
E00000
E00000
E00000
E00000
ENDCHAR
STARTCHAR germandbls
ENCODING 223
SWIDTH 600 0
DWIDTH 22 0
BBX 18 27 3 0
BITMAP
0FE000
3FF800
7FFC00
F01E00
F00E00
E00E00
E01E00
E01C00
E03C00
E0F000
E1E000
E1C000
E1C000
E1E000
E1F000
E0FC00
E03E00
E01F00
E00780
E003C0
E001C0
E001C0
E001C0
E203C0
E3FF80
E3FF00
E1FC00
ENDCHAR
STARTCHAR agrave
ENCODING 224
SWIDTH 600 0
DWIDTH 22 0
BBX 16 28 2 0
BITMAP
0F00
0780
0780
03C0
01C0
00E0
0000
0000
0000
07F0
3FFC
3FFE
301F
000F
0007
0007
0007
03FF
1FFF
7F07
F007
F007
E00F
E00F
F01F
7FF7
3FE7
1FC3
ENDCHAR
STARTCHAR aacute
ENCODING 225
SWIDTH 600 0
DWIDTH 22 0
BBX 16 28 2 0
BITMAP
003C
0078
0078
00F0
00E0
01C0
0000
0000
0000
07F0
3FFC
3FFE
301F
000F
0007
0007
0007
03FF
1FFF
7F07
F007
F007
E00F
E00F
F01F
7FF7
3FE7
1FC3
ENDCHAR
STARTCHAR acircumflex
ENCODING 226
SWIDTH 600 0
DWIDTH 22 0
BBX 16 28 2 0
BITMAP
01E0
03E0
07F0
0778
0E1C
1C0E
0000
0000
0000
07F0
3FFC
3FFE
301F
000F
0007
0007
0007
03FF
1FFF
7F07
F007
F007
E00F
E00F
F01F
7FF7
3FE7
1FC3
ENDCHAR
STARTCHAR atilde
ENCODING 227
SWIDTH 600 0
DWIDTH 22 0
BBX 16 27 2 0
BITMAP
0F06
1F86
3FFC
30FC
3078
0000
0000
0000
07F0
3FFC
3FFE
301F
000F
0007
0007
0007
03FF
1FFF
7F07
F007
F007
E00F
E00F
F01F
7FF7
3FE7
1FC3
ENDCHAR
STARTCHAR adieresis
ENCODING 228
SWIDTH 600 0
DWIDTH 22 0
BBX 16 27 2 0
BITMAP
0E1C
0E1C
0E1C
0E1C
0000
0000
0000
0000
07F0
3FFC
3FFE
301F
000F
0007
0007
0007
03FF
1FFF
7F07
F007
F007
E00F
E00F
F01F
7FF7
3FE7
1FC3
ENDCHAR
STARTCHAR aring
ENCODING 229
SWIDTH 600 0
DWIDTH 22 0
BBX 16 30 2 0
BITMAP
01E0
03F0
0618
0618
0618
0618
03F0
01E0
0000
0000
0000
07F0
3FFC
3FFE
301F
000F
0007
0007
0007
03FF
1FFF
7F07
F007
F007
E00F
E00F
F01F
7FF7
3FE7
1FC3
ENDCHAR
STARTCHAR ae
ENCODING 230
SWIDTH 600 0
DWIDTH 22 0
BBX 20 19 1 0
BITMAP
1F0F80
7F9FC0
3FFFE0
21F8E0
00F0E0
00F070
00E070
00E070
1FFFF0
3FFFF0
7CFFF0
F0E000
E0E000
E0F000
E1F000
F1B830
FFBFF0
7F1FF0
3C07C0
ENDCHAR
STARTCHAR ccedilla
ENCODING 231
SWIDTH 600 0
DWIDTH 22 0
BBX 16 28 3 -9
BITMAP
03FC
0FFF
1FFE
3C02
7800
7000
F000
E000
E000
E000
E000
E000
F000
7000
7800
3C01
1FFF
0FFF
03FC
00E0
00C0
00E0
00F0
0038
0038
0038
03F0
03E0
ENDCHAR
STARTCHAR egrave
ENCODING 232
SWIDTH 600 0
DWIDTH 22 0
BBX 18 28 2 0
BITMAP
078000
03C000
03C000
01E000
00E000
007000
000000
000000
000000
03F800
0FFE00
1FFF00
3C0780
780380
7003C0
F001C0
E001C0
FFFFC0
FFFFC0
FFFFC0
E00000
F00000
700000
780000
3C0180
1FFF80
0FFF80
03FE00
ENDCHAR
STARTCHAR eacute
ENCODING 233
SWIDTH 600 0
DWIDTH 22 0
BBX 18 28 2 0
BITMAP
003C00
007800
007800
00F000
00E000
01C000
000000
000000
000000
03F800
0FFE00
1FFF00
3C0780
780380
7003C0
F001C0
E001C0
FFFFC0
FFFFC0
FFFFC0
E00000
F00000
700000
780000
3C0180
1FFF80
0FFF80
03FE00
ENDCHAR
STARTCHAR ecircumflex
ENCODING 234
SWIDTH 600 0
DWIDTH 22 0
BBX 18 28 2 0
BITMAP
00F000
01F000
03F800
03BC00
070E00
0E0700
000000
000000
000000
03F800
0FFE00
1FFF00
3C0780
780380
7003C0
F001C0
E001C0
FFFFC0
FFFFC0
FFFFC0
E00000
F00000
700000
780000
3C0180
1FFF80
0FFF80
03FE00
ENDCHAR
STARTCHAR edieresis
ENCODING 235
SWIDTH 600 0
DWIDTH 22 0
BBX 18 27 2 0
BITMAP
070E00
070E00
070E00
070E00
000000
000000
000000
000000
03F800
0FFE00
1FFF00
3C0780
780380
7003C0
F001C0
E001C0
FFFFC0
FFFFC0
FFFFC0
E00000
F00000
700000
780000
3C0180
1FFF80
0FFF80
03FE00
ENDCHAR
STARTCHAR igrave
ENCODING 236
SWIDTH 600 0
DWIDTH 22 0
BBX 15 28 4 0
BITMAP
1E00
0F00
0F00
0780
0380
01C0
0000
0000
0000
7F80
7F80
0380
0380
0380
0380
0380
0380
0380
0380
0380
0380
0380
0380
0380
0380
03C0
FFFE
FFFE
ENDCHAR
STARTCHAR iacute
ENCODING 237
SWIDTH 600 0
DWIDTH 22 0
BBX 15 28 4 0
BITMAP
0078
00F0
00F0
01E0
01C0
0380
0000
0000
0000
7F80
7F80
0380
0380
0380
0380
0380
0380
0380
0380
0380
0380
0380
0380
0380
0380
03C0
FFFE
FFFE
ENDCHAR
STARTCHAR icircumflex
ENCODING 238
SWIDTH 600 0
DWIDTH 22 0
BBX 15 28 4 0
BITMAP
03C0
07C0
0FE0
0EF0
1C38
381C
0000
0000
0000
7F80
7F80
0380
0380
0380
0380
0380
0380
0380
0380
0380
0380
0380
0380
0380
0380
03C0
FFFE
FFFE
ENDCHAR
STARTCHAR idieresis
ENCODING 239
SWIDTH 600 0
DWIDTH 22 0
BBX 15 27 4 0
BITMAP
1C38
1C38
1C38
1C38
0000
0000
0000
0000
7F80
7F80
0380
0380
0380
0380
0380
0380
0380
0380
0380
0380
0380
0380
0380
0380
03C0
FFFE
FFFE
ENDCHAR
STARTCHAR eth
ENCODING 240
SWIDTH 600 0
DWIDTH 22 0
BBX 18 27 2 0
BITMAP
020200
078F00
03FE00
01F800
01F800
07FC00
0F1E00
040E00
000700
000780
07F380
1FFF80
3FFF80
780FC0
7003C0
F003C0
F001C0
E001C0
E001C0
E001C0
E003C0
F00380
700780
780F00
3FFE00
1FFC00
07F000
ENDCHAR
STARTCHAR ntilde
ENCODING 241
SWIDTH 600 0
DWIDTH 22 0
BBX 16 27 3 0
BITMAP
0F06
1F86
3FFC
30FC
3078
0000
0000
0000
E3F0
EFFC
EFFE
FC1E
F00F
F007
F007
E007
E007
E007
E007
E007
E007
E007
E007
E007
E007
E007
E007
ENDCHAR
STARTCHAR ograve
ENCODING 242
SWIDTH 600 0
DWIDTH 22 0
BBX 18 28 2 0
BITMAP
078000
03C000
03C000
01E000
00E000
007000
000000
000000
000000
03F000
0FFC00
3FFE00
3C0F00
780780
700380
F003C0
E001C0
E001C0
E001C0
E001C0
E001C0
F003C0
700380
780780
3C0F00
1FFE00
0FFC00
03F000
ENDCHAR
STARTCHAR oacute
ENCODING 243
SWIDTH 600 0
DWIDTH 22 0
BBX 18 28 2 0
BITMAP
003C00
007800
007800
00F000
00E000
01C000
000000
000000
000000
03F000
0FFC00
3FFE00
3C0F00
780780
700380
F003C0
E001C0
E001C0
E001C0
E001C0
E001C0
F003C0
700380
780780
3C0F00
1FFE00
0FFC00
03F000
ENDCHAR
STARTCHAR ocircumflex
ENCODING 244
SWIDTH 600 0
DWIDTH 22 0
BBX 18 28 2 0
BITMAP
01E000
03E000
07F000
077800
0E1C00
1C0E00
000000
000000
000000
03F000
0FFC00
3FFE00
3C0F00
780780
700380
F003C0
E001C0
E001C0
E001C0
E001C0
E001C0
F003C0
700380
780780
3C0F00
1FFE00
0FFC00
03F000
ENDCHAR
STARTCHAR otilde
ENCODING 245
SWIDTH 600 0
DWIDTH 22 0
BBX 18 27 2 0
BITMAP
078300
0FC300
1FFE00
187E00
183C00
000000
000000
000000
03F000
0FFC00
3FFE00
3C0F00
780780
700380
F003C0
E001C0
E001C0
E001C0
E001C0
E001C0
F003C0
700380
780780
3C0F00
1FFE00
0FFC00
03F000
ENDCHAR
STARTCHAR odieresis
ENCODING 246
SWIDTH 600 0
DWIDTH 22 0
BBX 18 27 2 0
BITMAP
0E1C00
0E1C00
0E1C00
0E1C00
000000
000000
000000
000000
03F000
0FFC00
3FFE00
3C0F00
780780
700380
F003C0
E001C0
E001C0
E001C0
E001C0
E001C0
F003C0
700380
780780
3C0F00
1FFE00
0FFC00
03F000
ENDCHAR
STARTCHAR divide
ENCODING 247
SWIDTH 600 0
DWIDTH 22 0
BBX 16 17 3 4
BITMAP
0180
03C0
03C0
03C0
0000
0000
0000
FFFF
FFFF
FFFF
0000
0000
0000
03C0
03C0
03C0
0180
ENDCHAR
STARTCHAR oslash
ENCODING 248
SWIDTH 600 0
DWIDTH 22 0
BBX 18 21 2 -1
BITMAP
000300
03F380
0FFF00
3FFF00
3C0F00
781F80
703B80
F07BC0
E071C0
E0E1C0
E1E1C0
E1C1C0
E381C0
F783C0
770380
7E0780
3E0F00
3FFF00
3FFC00
73F000
300000
ENDCHAR
STARTCHAR ugrave
ENCODING 249
SWIDTH 600 0
DWIDTH 22 0
BBX 16 28 3 0
BITMAP
1E00
0F00
0F00
0780
0380
01C0
0000
0000
0000
E007
E007
E007
E007
E007
E007
E007
E007
E007
E007
E007
E007
E00F
E00F
F00F
781F
7FF7
3FF7
0FC7
ENDCHAR
STARTCHAR uacute
ENCODING 250
SWIDTH 600 0
DWIDTH 22 0
BBX 16 28 3 0
BITMAP
0078
00F0
00F0
01E0
01C0
0380
0000
0000
0000
E007
E007
E007
E007
E007
E007
E007
E007
E007
E007
E007
E007
E00F
E00F
F00F
781F
7FF7
3FF7
0FC7
ENDCHAR
STARTCHAR ucircumflex
ENCODING 251
SWIDTH 600 0
DWIDTH 22 0
BBX 16 28 3 0
BITMAP
03C0
07C0
0FE0
0EF0
1C38
381C
0000
0000
0000
E007
E007
E007
E007
E007
E007
E007
E007
E007
E007
E007
E007
E00F
E00F
F00F
781F
7FF7
3FF7
0FC7
ENDCHAR
STARTCHAR udieresis
ENCODING 252
SWIDTH 600 0
DWIDTH 22 0
BBX 16 27 3 0
BITMAP
1C38
1C38
1C38
1C38
0000
0000
0000
0000
E007
E007
E007
E007
E007
E007
E007
E007
E007
E007
E007
E007
E00F
E00F
F00F
781F
7FF7
3FF7
0FC7
ENDCHAR
STARTCHAR yacute
ENCODING 253
SWIDTH 600 0
DWIDTH 22 0
BBX 20 37 1 -9
BITMAP
001E00
003C00
003C00
007800
007000
00E000
000000
000000
000000
F000F0
7000E0
7000E0
3801E0
3801C0
3C03C0
1C0380
1E0780
0E0700
0F0700
070F00
070E00
039E00
039C00
01DC00
01FC00
01F800
00F800
00F000
00F000
00E000
00E000
01E000
01C000
03C000
FF8000
FF0000
FC0000
ENDCHAR
STARTCHAR thorn
ENCODING 254
SWIDTH 600 0
DWIDTH 22 0
BBX 17 36 3 -9
BITMAP
E00000
E00000
E00000
E00000
E00000
E00000
E00000
E00000
E3F000
E7FC00
EFFE00
F81F00
F00F00
F00700
E00780
E00380
E00380
E00380
E00380
E00380
E00780
F00700
F00F00
F80F00
FFFE00
EFFC00
E3F000
E00000
E00000
E00000
E00000
E00000
E00000
E00000
E00000
E00000
ENDCHAR
STARTCHAR ydieresis
ENCODING 255
SWIDTH 600 0
DWIDTH 22 0
BBX 20 36 1 -9
BITMAP
070E00
070E00
070E00
070E00
000000
000000
000000
000000
F000F0
7000E0
7000E0
3801E0
3801C0
3C03C0
1C0380
1E0780
0E0700
0F0700
070F00
070E00
039E00
039C00
01DC00
01FC00
01F800
00F800
00F000
00F000
00E000
00E000
01E000
01C000
03C000
FF8000
FF0000
FC0000
ENDCHAR
STARTCHAR .notdef
ENCODING -1
SWIDTH 600 0
DWIDTH 22 0
BBX 16 26 3 0
BITMAP
FFFF
FFFF
C003
C003
C003
C003
C003
C003
C003
C003
C003
C003
C003
C003
C003
C003
C003
C003
C003
C003
C003
C003
C003
C003
FFFF
FFFF
ENDCHAR
STARTCHAR Amacron
ENCODING -1
SWIDTH 600 0
DWIDTH 22 0
BBX 20 31 1 0
BITMAP
07FE00
07FE00
07FE00
000000
000000
00F000
00F000
01F800
01F800
01F800
01F800
039C00
039C00
039C00
070E00
070E00
070E00
0F0700
0E0700
0E0700
1FFF80
1FFF80
1FFF80
3C03C0
3801C0
3801C0
7801E0
7000E0
7000E0
F000F0
F000F0
ENDCHAR
STARTCHAR amacron
ENCODING -1
SWIDTH 600 0
DWIDTH 22 0
BBX 16 25 2 0
BITMAP
0FFC
0FFC
0FFC
0000
0000
0000
07F0
3FFC
3FFE
301F
000F
0007
0007
0007
03FF
1FFF
7F07
F007
F007
E00F
E00F
F01F
7FF7
3FE7
1FC3
ENDCHAR
STARTCHAR Abreve
ENCODING -1
SWIDTH 600 0
DWIDTH 22 0
BBX 20 33 1 0
BITMAP
060300
060700
03FE00
03FE00
00F800
000000
000000
00F000
00F000
01F800
01F800
01F800
01F800
039C00
039C00
039C00
070E00
070E00
070E00
0F0700
0E0700
0E0700
1FFF80
1FFF80
1FFF80
3C03C0
3801C0
3801C0
7801E0
7000E0
7000E0
F000F0
F000F0
ENDCHAR
STARTCHAR abreve
ENCODING -1
SWIDTH 600 0
DWIDTH 22 0
BBX 16 27 2 0
BITMAP
180C
181C
0FF8
0FF8
03E0
0000
0000
0000
07F0
3FFC
3FFE
301F
000F
0007
0007
0007
03FF
1FFF
7F07
F007
F007
E00F
E00F
F01F
7FF7
3FE7
1FC3
ENDCHAR
STARTCHAR Aogonek
ENCODING -1
SWIDTH 600 0
DWIDTH 22 0
BBX 21 34 1 -8
BITMAP
00F000
00F000
01F800
01F800
01F800
01F800
039C00
039C00
039C00
070E00
070E00
070E00
0F0700
0E0700
0E0700
1FFF80
1FFF80
1FFF80
3C03C0
3801C0
3801C0
7801E0
7000E0
7000E0
F000F0
F000F0
0000E0
0001C0
000180
000380
000380
000380
0001F8
0000F8
ENDCHAR
STARTCHAR aogonek
ENCODING -1
SWIDTH 600 0
DWIDTH 22 0
BBX 18 27 2 -8
BITMAP
07F000
3FFC00
3FFE00
301F00
000F00
000700
000700
000700
03FF00
1FFF00
7F0700
F00700
F00700
E00F00
E00F00
F01F00
7FF700
3FE700
1FC300
000700
000E00
000C00
001C00
001C00
001C00
000FC0
0007C0
ENDCHAR
STARTCHAR Cacute
ENCODING -1
SWIDTH 600 0
DWIDTH 22 0
BBX 19 34 2 0
BITMAP
000780
000F00
000F00
001E00
001C00
003800
000000
000000
00FF00
03FFE0
0FFFC0
1F80C0
3E0000
3C0000
780000
780000
700000
F00000
F00000
F00000
E00000
E00000
F00000
F00000
F00000
F00000
700000
780000
3C0000
3E0000
1F80C0
0FFFC0
07FFC0
00FF00
ENDCHAR
STARTCHAR cacute
ENCODING -1
SWIDTH 600 0
DWIDTH 22 0
BBX 16 28 3 0
BITMAP
001E
003C
003C
0078
0070
00E0
0000
0000
0000
03FC
0FFF
1FFE
3C02
7800
7000
F000
E000
E000
E000
E000
E000
F000
7000
7800
3C01
1FFF
0FFF
03FC
ENDCHAR
STARTCHAR Ccircumflex
ENCODING -1
SWIDTH 600 0
DWIDTH 22 0
BBX 19 34 2 0
BITMAP
003C00
007C00
00FE00
00EF00
01C380
0381C0
000000
000000
00FF00
03FFE0
0FFFC0
1F80C0
3E0000
3C0000
780000
780000
700000
F00000
F00000
F00000
E00000
E00000
F00000
F00000
F00000
F00000
700000
780000
3C0000
3E0000
1F80C0
0FFFC0
07FFC0
00FF00
ENDCHAR
STARTCHAR ccircumflex
ENCODING -1
SWIDTH 600 0
DWIDTH 22 0
BBX 16 28 3 0
BITMAP
00F0
01F0
03F8
03BC
070E
0E07
0000
0000
0000
03FC
0FFF
1FFE
3C02
7800
7000
F000
E000
E000
E000
E000
E000
F000
7000
7800
3C01
1FFF
0FFF
03FC
ENDCHAR
STARTCHAR Cdotaccent
ENCODING -1
SWIDTH 600 0
DWIDTH 22 0
BBX 19 33 2 0
BITMAP
001C00
001C00
001C00
001C00
000000
000000
000000
00FF00
03FFE0
0FFFC0
1F80C0
3E0000
3C0000
780000
780000
700000
F00000
F00000
F00000
E00000
E00000
F00000
F00000
F00000
F00000
700000
780000
3C0000
3E0000
1F80C0
0FFFC0
07FFC0
00FF00
ENDCHAR
STARTCHAR cdotaccent
ENCODING -1
SWIDTH 600 0
DWIDTH 22 0
BBX 16 27 3 0
BITMAP
00E0
00E0
00E0
00E0
0000
0000
0000
0000
03FC
0FFF
1FFE
3C02
7800
7000
F000
E000
E000
E000
E000
E000
F000
7000
7800
3C01
1FFF
0FFF
03FC
ENDCHAR
STARTCHAR Ccaron
ENCODING -1
SWIDTH 600 0
DWIDTH 22 0
BBX 19 34 2 0
BITMAP
0381C0
01C380
00E700
00FE00
007C00
003800
000000
000000
00FF00
03FFE0
0FFFC0
1F80C0
3E0000
3C0000
780000
780000
700000
F00000
F00000
F00000
E00000
E00000
F00000
F00000
F00000
F00000
700000
780000
3C0000
3E0000
1F80C0
0FFFC0
07FFC0
00FF00
ENDCHAR
STARTCHAR ccaron
ENCODING -1
SWIDTH 600 0
DWIDTH 22 0
BBX 16 28 3 0
BITMAP
0E07
070E
039C
03F8
01F0
00E0
0000
0000
0000
03FC
0FFF
1FFE
3C02
7800
7000
F000
E000
E000
E000
E000
E000
F000
7000
7800
3C01
1FFF
0FFF
03FC
ENDCHAR
STARTCHAR Dcaron
ENCODING -1
SWIDTH 600 0
DWIDTH 22 0
BBX 19 34 2 0
BITMAP
1C0E00
0E1C00
073800
07F000
03E000
01C000
000000
000000
FFE000
FFF800
FFFE00
E03F00
E00F80
E00780
E003C0
E001C0
E001C0
E001E0
E001E0
E001E0
E000E0
E000E0
E001E0
E001E0
E001E0
E001C0
E003C0
E003C0
E00780
E00F80
E03F00
FFFC00
FFF800
FFC000
ENDCHAR
STARTCHAR dcaron
ENCODING -1
SWIDTH 600 0
DWIDTH 22 0
BBX 22 27 1 0
BITMAP
00039C
00039C
000398
0003B8
0003B0
0003B0
000380
000380
07E380
1FFB80
3FFF80
780F80
780780
700780
F00780
E00380
E00380
E00380
E00380
E00380
F00380
700780
700780
780F80
3FFB80
1FF380
07E380
ENDCHAR
STARTCHAR Dcroat
ENCODING -1
SWIDTH 600 0
DWIDTH 22 0
BBX 21 26 0 0
BITMAP
3FF800
3FFE00
3FFF80
380FC0
3803E0
3801E0
3800F0
380070
380070
380078
380078
FFF878
FFF838
FFF838
380078
380078
380078
380070
3800F0
3800F0
3801E0
3803E0
380FC0
3FFF00
3FFE00
3FF000
ENDCHAR
STARTCHAR dcroat
ENCODING -1
SWIDTH 600 0
DWIDTH 22 0
BBX 20 27 2 0
BITMAP
000380
000380
000380
01FFF0
01FFF0
000380
000380
000380
07E380
1FFB80
3FFF80
780F80
780780
700780
F00780
E00380
E00380
E00380
E00380
E00380
F00380
700780
700780
780F80
3FFF80
1FFB80
07E380
ENDCHAR
STARTCHAR Emacron
ENCODING -1
SWIDTH 600 0
DWIDTH 22 0
BBX 15 31 4 0
BITMAP
1FF8
1FF8
1FF8
0000
0000
FFFE
FFFE
FFFE
E000
E000
E000
E000
E000
E000
E000
E000
FFFC
FFFC
FFFC
E000
E000
E000
E000
E000
E000
E000
E000
E000
FFFE
FFFE
FFFE
ENDCHAR
STARTCHAR emacron
ENCODING -1
SWIDTH 600 0
DWIDTH 22 0
BBX 18 25 2 0
BITMAP
07FE00
07FE00
07FE00
000000
000000
000000
03F800
0FFE00
1FFF00
3C0780
780380
7003C0
F001C0
E001C0
FFFFC0
FFFFC0
FFFFC0
E00000
F00000
700000
780000
3C0180
1FFF80
0FFF80
03FE00
ENDCHAR
STARTCHAR Ebreve
ENCODING -1
SWIDTH 600 0
DWIDTH 22 0
BBX 15 33 4 0
BITMAP
3018
3038
1FF0
1FF0
07C0
0000
0000
FFFE
FFFE
FFFE
E000
E000
E000
E000
E000
E000
E000
E000
FFFC
FFFC
FFFC
E000
E000
E000
E000
E000
E000
E000
E000
E000
FFFE
FFFE
FFFE
ENDCHAR
STARTCHAR ebreve
ENCODING -1
SWIDTH 600 0
DWIDTH 22 0
BBX 18 27 2 0
BITMAP
0C0600
0C0E00
07FC00
07FC00
01F000
000000
000000
000000
03F800
0FFE00
1FFF00
3C0780
780380
7003C0
F001C0
E001C0
FFFFC0
FFFFC0
FFFFC0
E00000
F00000
700000
780000
3C0180
1FFF80
0FFF80
03FE00
ENDCHAR
STARTCHAR Edotaccent
ENCODING -1
SWIDTH 600 0
DWIDTH 22 0
BBX 15 32 4 0
BITMAP
01C0
01C0
01C0
01C0
0000
0000
FFFE
FFFE
FFFE
E000
E000
E000
E000
E000
E000
E000
E000
FFFC
FFFC
FFFC
E000
E000
E000
E000
E000
E000
E000
E000
E000
FFFE
FFFE
FFFE
ENDCHAR
STARTCHAR edotaccent
ENCODING -1
SWIDTH 600 0
DWIDTH 22 0
BBX 18 27 2 0
BITMAP
00E000
00E000
00E000
00E000
000000
000000
000000
000000
03F800
0FFE00
1FFF00
3C0780
780380
7003C0
F001C0
E001C0
FFFFC0
FFFFC0
FFFFC0
E00000
F00000
700000
780000
3C0180
1FFF80
0FFF80
03FE00
ENDCHAR
STARTCHAR Eogonek
ENCODING -1
SWIDTH 600 0
DWIDTH 22 0
BBX 15 34 4 -8
BITMAP
FFFE
FFFE
FFFE
E000
E000
E000
E000
E000
E000
E000
E000
FFFC
FFFC
FFFC
E000
E000
E000
E000
E000
E000
E000
E000
E000
FFFE
FFFE
FFFE
0070
00E0
00C0
01C0
01C0
01C0
00FC
007C
ENDCHAR
STARTCHAR eogonek
ENCODING -1
SWIDTH 600 0
DWIDTH 22 0
BBX 18 26 2 -7
BITMAP
03F800
0FFE00
1FFF00
3C0780
780380
7003C0
F001C0
E001C0
FFFFC0
FFFFC0
FFFFC0
E00000
F00000
700000
780000
3C0180
1FFF80
0FFF80
03FE00
001C00
001800
003800
003800
003800
001F80
000F80
ENDCHAR
STARTCHAR Ecaron
ENCODING -1
SWIDTH 600 0
DWIDTH 22 0
BBX 15 34 4 0
BITMAP
381C
1C38
0E70
0FE0
07C0
0380
0000
0000
FFFE
FFFE
FFFE
E000
E000
E000
E000
E000
E000
E000
E000
FFFC
FFFC
FFFC
E000
E000
E000
E000
E000
E000
E000
E000
E000
FFFE
FFFE
FFFE
ENDCHAR
STARTCHAR ecaron
ENCODING -1
SWIDTH 600 0
DWIDTH 22 0
BBX 18 28 2 0
BITMAP
0E0700
070E00
039C00
03F800
01F000
00E000
000000
000000
000000
03F800
0FFE00
1FFF00
3C0780
780380
7003C0
F001C0
E001C0
FFFFC0
FFFFC0
FFFFC0
E00000
F00000
700000
780000
3C0180
1FFF80
0FFF80
03FE00
ENDCHAR
STARTCHAR Gcircumflex
ENCODING -1
SWIDTH 600 0
DWIDTH 22 0
BBX 18 34 2 0
BITMAP
007800
00F800
01FC00
01DE00
038700
070380
000000
000000
00FE00
07FFC0
0FFF80
1F0380
3C0000
3C0000
780000
700000
F00000
F00000
F00000
F00000
E03FC0
E03FC0
F03FC0
F001C0
F001C0
F001C0
7001C0
7801C0
7801C0
3C01C0
1F01C0
0FFFC0
07FFC0
01FE00
ENDCHAR
STARTCHAR gcircumflex
ENCODING -1
SWIDTH 600 0
DWIDTH 22 0
BBX 19 37 1 -9
BITMAP
00F000
01F000
03F800
03BC00
070E00
0E0700
000000
000000
000000
03FFE0
0FFFE0
1F1F00
1C0700
380380
380380
380380
380380
3C0780
1E0F00
0FFE00
07F800
0E0000
1C0000
1C0000
1C0000
1FFF00
0FFF80
3FFFC0
7001E0
E000E0
E000E0
E000E0
E001E0
F003C0
7FFF80
3FFF00
0FFC00
ENDCHAR
STARTCHAR Gbreve
ENCODING -1
SWIDTH 600 0
DWIDTH 22 0
BBX 18 33 2 0
BITMAP
030180
030380
01FF00
01FF00
007C00
000000
000000
00FE00
07FFC0
0FFF80
1F0380
3C0000
3C0000
780000
700000
F00000
F00000
F00000
F00000
E03FC0
E03FC0
F03FC0
F001C0
F001C0
F001C0
7001C0
7801C0
7801C0
3C01C0
1F01C0
0FFFC0
07FFC0
01FE00
ENDCHAR
STARTCHAR gbreve
ENCODING -1
SWIDTH 600 0
DWIDTH 22 0
BBX 19 36 1 -9
BITMAP
0C0600
0C0E00
07FC00
07FC00
01F000
000000
000000
000000
03FFE0
0FFFE0
1F1F00
1C0700
380380
380380
380380
380380
3C0780
1E0F00
0FFE00
07F800
0E0000
1C0000
1C0000
1C0000
1FFF00
0FFF80
3FFFC0
7001E0
E000E0
E000E0
E000E0
E001E0
F003C0
7FFF80
3FFF00
0FFC00
ENDCHAR
STARTCHAR Gdotaccent
ENCODING -1
SWIDTH 600 0
DWIDTH 22 0
BBX 18 33 2 0
BITMAP
003800
003800
003800
003800
000000
000000
000000
00FE00
07FFC0
0FFF80
1F0380
3C0000
3C0000
780000
700000
F00000
F00000
F00000
F00000
E03FC0
E03FC0
F03FC0
F001C0
F001C0
F001C0
7001C0
7801C0
7801C0
3C01C0
1F01C0
0FFFC0
07FFC0
01FE00
ENDCHAR
STARTCHAR gdotaccent
ENCODING -1
SWIDTH 600 0
DWIDTH 22 0
BBX 19 36 1 -9
BITMAP
007000
007000
007000
007000
000000
000000
000000
000000
03FFE0
0FFFE0
1F1F00
1C0700
380380
380380
380380
380380
3C0780
1E0F00
0FFE00
07F800
0E0000
1C0000
1C0000
1C0000
1FFF00
0FFF80
3FFFC0
7001E0
E000E0
E000E0
E000E0
E001E0
F003C0
7FFF80
3FFF00
0FFC00
ENDCHAR
STARTCHAR uni0122
ENCODING -1
SWIDTH 600 0
DWIDTH 22 0
BBX 18 34 2 -8
BITMAP
00FE00
07FFC0
0FFF80
1F0380
3C0000
3C0000
780000
700000
F00000
F00000
F00000
F00000
E03FC0
E03FC0
F03FC0
F001C0
F001C0
F001C0
7001C0
7801C0
7801C0
3C01C0
1F01C0
0FFFC0
07FFC0
01FE00
000000
000000
003800
007800
007000
007000
00E000
00C000
ENDCHAR
STARTCHAR uni0123
ENCODING -1
SWIDTH 600 0
DWIDTH 22 0
BBX 19 37 1 -9
BITMAP
001800
003800
007000
007000
00F000
00F000
000000
000000
000000
03FFE0
0FFFE0
1F1F00
1C0700
380380
380380
380380
380380
3C0780
1E0F00
0FFE00
07F800
0E0000
1C0000
1C0000
1C0000
1FFF00
0FFF80
3FFFC0
7001E0
E000E0
E000E0
E000E0
E001E0
F003C0
7FFF80
3FFF00
0FFC00
ENDCHAR
STARTCHAR Hcircumflex
ENCODING -1
SWIDTH 600 0
DWIDTH 22 0
BBX 18 34 2 0
BITMAP
01E000
03E000
07F000
077800
0E1C00
1C0E00
000000
000000
E001C0
E001C0
E001C0
E001C0
E001C0
E001C0
E001C0
E001C0
E001C0
E001C0
E001C0
FFFFC0
FFFFC0
FFFFC0
E001C0
E001C0
E001C0
E001C0
E001C0
E001C0
E001C0
E001C0
E001C0
E001C0
E001C0
E001C0
ENDCHAR
STARTCHAR hcircumflex
ENCODING -1
SWIDTH 600 0
DWIDTH 22 0
BBX 16 35 3 0
BITMAP
01E0
03E0
07F0
0778
0E1C
1C0E
0000
0000
E000
E000
E000
E000
E000
E000
E000
E000
E3F0
EFFC
EFFE
FC1E
F00F
F007
F007
E007
E007
E007
E007
E007
E007
E007
E007
E007
E007
E007
E007
ENDCHAR
STARTCHAR Hbar
ENCODING -1
SWIDTH 600 0
DWIDTH 22 0
BBX 22 26 0 0
BITMAP
380070
380070
380070
380070
FFFFFC
FFFFFC
FFFFFC
380070
380070
380070
380070
3FFFF0
3FFFF0
3FFFF0
380070
380070
380070
380070
380070
380070
380070
380070
380070
380070
380070
380070
ENDCHAR
STARTCHAR hbar
ENCODING -1
SWIDTH 600 0
DWIDTH 22 0
BBX 19 27 0 0
BITMAP
1C0000
1C0000
1C0000
FFFC00
FFFC00
1C0000
1C0000
1C0000
1C7E00
1DFF80
1DFFC0
1F03C0
1E01E0
1E00E0
1E00E0
1C00E0
1C00E0
1C00E0
1C00E0
1C00E0
1C00E0
1C00E0
1C00E0
1C00E0
1C00E0
1C00E0
1C00E0
ENDCHAR
STARTCHAR Itilde
ENCODING -1
SWIDTH 600 0
DWIDTH 22 0
BBX 13 33 4 0
BITMAP
3C18
7E18
FFF0
C3F0
C1E0
0000
0000
FFF8
FFF8
0700
0700
0700
0700
0700
0700
0700
0700
0700
0700
0700
0700
0700
0700
0700
0700
0700
0700
0700
0700
0700
0780
FFF8
FFF8
ENDCHAR
STARTCHAR itilde
ENCODING -1
SWIDTH 600 0
DWIDTH 22 0
BBX 15 27 4 0
BITMAP
1E0C
3F0C
7FF8
61F8
60F0
0000
0000
0000
7F80
7F80
0380
0380
0380
0380
0380
0380
0380
0380
0380
0380
0380
0380
0380
0380
03C0
FFFE
FFFE
ENDCHAR
STARTCHAR Imacron
ENCODING -1
SWIDTH 600 0
DWIDTH 22 0
BBX 13 31 4 0
BITMAP
3FF0
3FF0
3FF0
0000
0000
FFF8
FFF8
0700
0700
0700
0700
0700
0700
0700
0700
0700
0700
0700
0700
0700
0700
0700
0700
0700
0700
0700
0700
0700
0780
FFF8
FFF8
ENDCHAR
STARTCHAR imacron
ENCODING -1
SWIDTH 600 0
DWIDTH 22 0
BBX 15 25 4 0
BITMAP
1FF8
1FF8
1FF8
0000
0000
0000
7F80
7F80
0380
0380
0380
0380
0380
0380
0380
0380
0380
0380
0380
0380
0380
0380
03C0
FFFE
FFFE
ENDCHAR
STARTCHAR Ibreve
ENCODING -1
SWIDTH 600 0
DWIDTH 22 0
BBX 13 33 4 0
BITMAP
6030
6070
3FE0
3FE0
0F80
0000
0000
FFF8
FFF8
0700
0700
0700
0700
0700
0700
0700
0700
0700
0700
0700
0700
0700
0700
0700
0700
0700
0700
0700
0700
0700
0780
FFF8
FFF8
ENDCHAR
STARTCHAR ibreve
ENCODING -1
SWIDTH 600 0
DWIDTH 22 0
BBX 15 27 4 0
BITMAP
3018
3038
1FF0
1FF0
07C0
0000
0000
0000
7F80
7F80
0380
0380
0380
0380
0380
0380
0380
0380
0380
0380
0380
0380
0380
0380
03C0
FFFE
FFFE
ENDCHAR
STARTCHAR Iogonek
ENCODING -1
SWIDTH 600 0
DWIDTH 22 0
BBX 13 34 4 -8
BITMAP
FFF8
FFF8
0700
0700
0700
0700
0700
0700
0700
0700
0700
0700
0700
0700
0700
0700
0700
0700
0700
0700
0700
0700
0700
0780
FFF8
FFF8
0380
0700
0600
0E00
0E00
0E00
07E0
03E0
ENDCHAR
STARTCHAR iogonek
ENCODING -1
SWIDTH 600 0
DWIDTH 22 0
BBX 15 35 4 -8
BITMAP
0380
0380
0380
0380
0000
0000
0000
0000
7F80
7F80
0380
0380
0380
0380
0380
0380
0380
0380
0380
0380
0380
0380
0380
0380
03C0
FFFE
FFFE
0380
0700
0600
0E00
0E00
0E00
07E0
03E0
ENDCHAR
STARTCHAR Idotaccent
ENCODING -1
SWIDTH 600 0
DWIDTH 22 0
BBX 13 33 4 0
BITMAP
0700
0700
0700
0700
0000
0000
0000
FFF8
FFF8
0700
0700
0700
0700
0700
0700
0700
0700
0700
0700
0700
0700
0700
0700
0700
0700
0700
0700
0700
0700
0700
0780
FFF8
FFF8
ENDCHAR
STARTCHAR dotlessi
ENCODING -1
SWIDTH 600 0
DWIDTH 22 0
BBX 15 19 4 0
BITMAP
7F80
7F80
0380
0380
0380
0380
0380
0380
0380
0380
0380
0380
0380
0380
0380
0380
03C0
FFFE
FFFE
ENDCHAR
STARTCHAR IJ
ENCODING -1
SWIDTH 600 0
DWIDTH 22 0
BBX 16 26 3 0
BITMAP
E007
E007
E007
E007
E007
E007
E007
E007
E007
E007
E007
E007
E007
E007
E007
E007
E007
E007
E007
E007
E00F
E00F
E01E
E3FE
E3FC
E1F0
ENDCHAR
STARTCHAR ij
ENCODING -1
SWIDTH 600 0
DWIDTH 22 0
BBX 15 36 4 -9
BITMAP
E00C
E01E
E01E
E00C
0000
0000
0000
0000
E1FE
E1FE
E01E
E00E
E00E
E00E
E00E
E00E
E00E
E00E
E00E
E00E
E00E
E00E
E00E
E00E
E00E
E00E
E00E
000E
000E
000E
000E
001E
001C
07FC
07F8
07F0
ENDCHAR
STARTCHAR Jcircumflex
ENCODING -1
SWIDTH 600 0
DWIDTH 22 0
BBX 21 34 2 0
BITMAP
000780
000F80
001FC0
001DE0
003870
007038
000000
000000
000700
000700
000700
000700
000700
000700
000700
000700
000700
000700
000700
000700
000700
000700
000700
000700
000700
000700
000700
000F00
000F00
001E00
C07E00
FFFC00
FFF000
7FC000
ENDCHAR
STARTCHAR jcircumflex
ENCODING -1
SWIDTH 600 0
DWIDTH 22 0
BBX 15 37 2 -9
BITMAP
01E0
03E0
07F0
0778
0E1C
1C0E
0000
0000
0000
3FF8
3FF8
0078
0038
0038
0038
0038
0038
0038
0038
0038
0038
0038
0038
0038
0038
0038
0038
0038
0038
0038
0038
0038
0078
00F0
FFF0
FFE0
7F80
ENDCHAR
STARTCHAR uni0136
ENCODING -1
SWIDTH 600 0
DWIDTH 22 0
BBX 17 34 4 -8
BITMAP
E00780
E00F00
E01E00
E01C00
E03C00
E07800
E0F000
E1E000
E1C000
E38000
E78000
EF0000
EF8000
FF8000
FBC000
E1E000
E0E000
E0F000
E07000
E07800
E03C00
E01C00
E01E00
E00F00
E00700
E00780
000000
000000
01C000
03C000
038000
038000
070000
060000
ENDCHAR
STARTCHAR uni0137
ENCODING -1
SWIDTH 600 0
DWIDTH 22 0
BBX 17 35 4 -8
BITMAP
E00000
E00000
E00000
E00000
E00000
E00000
E00000
E00000
E00700
E01E00
E03C00
E07800
E0F000
E1E000
E3C000
E78000
EF0000
FF8000
FBC000
F1E000
E0E000
E0F000
E07800
E03C00
E01E00
E00F00
E00780
000000
000000
01C000
03C000
038000
038000
070000
060000
ENDCHAR
STARTCHAR kgreenlandic
ENCODING -1
SWIDTH 600 0
DWIDTH 22 0
BBX 17 19 4 0
BITMAP
E00700
E00E00
E01C00
E03800
E07000
E1E000
E3C000
E78000
EF0000
EF0000
FF8000
F3C000
E1E000
E0F000
E07800
E03C00
E01E00
E00F00
E00780
ENDCHAR
STARTCHAR Lacute
ENCODING -1
SWIDTH 600 0
DWIDTH 22 0
BBX 15 34 4 0
BITMAP
0F00
1E00
1E00
3C00
3800
7000
0000
0000
E000
E000
E000
E000
E000
E000
E000
E000
E000
E000
E000
E000
E000
E000
E000
E000
E000
E000
E000
E000
E000
E000
E000
FFFE
FFFE
FFFE
ENDCHAR
STARTCHAR lacute
ENCODING -1
SWIDTH 600 0
DWIDTH 22 0
BBX 15 35 4 0
BITMAP
0078
00F0
00F0
01E0
01C0
0380
0000
0000
7F80
7F80
0380
0380
0380
0380
0380
0380
0380
0380
0380
0380
0380
0380
0380
0380
0380
0380
0380
0380
0380
0380
0380
0380
03C0
FFFE
FFFE
ENDCHAR
STARTCHAR uni013B
ENCODING -1
SWIDTH 600 0
DWIDTH 22 0
BBX 15 34 4 -8
BITMAP
E000
E000
E000
E000
E000
E000
E000
E000
E000
E000
E000
E000
E000
E000
E000
E000
E000
E000
E000
E000
E000
E000
E000
FFFE
FFFE
FFFE
0000
0000
01C0
03C0
0380
0380
0700
0600
ENDCHAR
STARTCHAR uni013C
ENCODING -1
SWIDTH 600 0
DWIDTH 22 0
BBX 15 35 4 -8
BITMAP
7F80
7F80
0380
0380
0380
0380
0380
0380
0380
0380
0380
0380
0380
0380
0380
0380
0380
0380
0380
0380
0380
0380
0380
0380
03C0
FFFE
FFFE
0000
0000
01C0
03C0
0380
0380
0700
0600
ENDCHAR
STARTCHAR Lcaron
ENCODING -1
SWIDTH 600 0
DWIDTH 22 0
BBX 15 26 4 0
BITMAP
E000
E01C
E01C
E018
E038
E030
E030
E000
E000
E000
E000
E000
E000
E000
E000
E000
E000
E000
E000
E000
E000
E000
E000
FFFE
FFFE
FFFE
ENDCHAR
STARTCHAR lcaron
ENCODING -1
SWIDTH 600 0
DWIDTH 22 0
BBX 16 27 4 0
BITMAP
7F87
7F87
0386
038E
038C
038C
0380
0380
0380
0380
0380
0380
0380
0380
0380
0380
0380
0380
0380
0380
0380
0380
0380
0380
03C0
FFFE
FFFE
ENDCHAR
STARTCHAR Ldot
ENCODING -1
SWIDTH 600 0
DWIDTH 22 0
BBX 15 26 4 0
BITMAP
E000
E000
E000
E000
E000
E000
E000
E000
E000
E000
E038
E038
E038
E038
E000
E000
E000
E000
E000
E000
E000
E000
E000
FFFE
FFFE
FFFE
ENDCHAR
STARTCHAR ldot
ENCODING -1
SWIDTH 600 0
DWIDTH 22 0
BBX 16 27 4 0
BITMAP
7F80
7F80
0380
0380
0380
0380
0380
0380
0380
0380
0380
0380
0380
0387
0387
0387
0387
0380
0380
0380
0380
0380
0380
0380
03C0
FFFE
FFFE
ENDCHAR
STARTCHAR Lslash
ENCODING -1
SWIDTH 600 0
DWIDTH 22 0
BBX 18 26 2 0
BITMAP
1C0000
1C0000
1C0000
1C0000
1C0000
1C0000
1C0000
1C0000
1C0000
1C1000
1C7800
1CF800
1FE000
1FC000
1F0000
3C0000
FC0000
FC0000
5C0000
1C0000
1C0000
1C0000
1C0000
1FFFC0
1FFFC0
1FFFC0
ENDCHAR
STARTCHAR lslash
ENCODING -1
SWIDTH 600 0
DWIDTH 22 0
BBX 15 27 4 0
BITMAP
7F80
7F80
0380
0380
0380
0380
0380
0380
0380
0380
0390
03F8
03F0
03E0
0F80
1F80
3F80
1380
0380
0380
0380
0380
0380
0380
03C0
FFFE
FFFE
ENDCHAR
STARTCHAR Nacute
ENCODING -1
SWIDTH 600 0
DWIDTH 22 0
BBX 18 34 2 0
BITMAP
003C00
007800
007800
00F000
00E000
01C000
000000
000000
F001C0
F801C0
F801C0
FC01C0
FC01C0
FE01C0
EE01C0
EF01C0
E701C0
E381C0
E381C0
E1C1C0
E1C1C0
E0E1C0
E0E1C0
E071C0
E071C0
E039C0
E03DC0
E01DC0
E01FC0
E00FC0
E00FC0
E007C0
E007C0
E003C0
ENDCHAR
STARTCHAR nacute
ENCODING -1
SWIDTH 600 0
DWIDTH 22 0
BBX 16 28 3 0
BITMAP
003C
0078
0078
00F0
00E0
01C0
0000
0000
0000
E3F0
EFFC
EFFE
FC1E
F00F
F007
F007
E007
E007
E007
E007
E007
E007
E007
E007
E007
E007
E007
E007
ENDCHAR
STARTCHAR uni0145
ENCODING -1
SWIDTH 600 0
DWIDTH 22 0
BBX 18 34 2 -8
BITMAP
F001C0
F801C0
F801C0
FC01C0
FC01C0
FE01C0
EE01C0
EF01C0
E701C0
E381C0
E381C0
E1C1C0
E1C1C0
E0E1C0
E0E1C0
E071C0
E071C0
E039C0
E03DC0
E01DC0
E01FC0
E00FC0
E00FC0
E007C0
E007C0
E003C0
000000
000000
00E000
01E000
01C000
01C000
038000
030000
ENDCHAR
STARTCHAR uni0146
ENCODING -1
SWIDTH 600 0
DWIDTH 22 0
BBX 16 27 3 -8
BITMAP
E3F0
EFFC
EFFE
FC1E
F00F
F007
F007
E007
E007
E007
E007
E007
E007
E007
E007
E007
E007
E007
E007
0000
0000
01C0
03C0
0380
0380
0700
0600
ENDCHAR
STARTCHAR Ncaron
ENCODING -1
SWIDTH 600 0
DWIDTH 22 0
BBX 18 34 2 0
BITMAP
1C0E00
0E1C00
073800
07F000
03E000
01C000
000000
000000
F001C0
F801C0
F801C0
FC01C0
FC01C0
FE01C0
EE01C0
EF01C0
E701C0
E381C0
E381C0
E1C1C0
E1C1C0
E0E1C0
E0E1C0
E071C0
E071C0
E039C0
E03DC0
E01DC0
E01FC0
E00FC0
E00FC0
E007C0
E007C0
E003C0
ENDCHAR
STARTCHAR ncaron
ENCODING -1
SWIDTH 600 0
DWIDTH 22 0
BBX 16 28 3 0
BITMAP
381C
1C38
0E70
0FE0
07C0
0380
0000
0000
0000
E3F0
EFFC
EFFE
FC1E
F00F
F007
F007
E007
E007
E007
E007
E007
E007
E007
E007
E007
E007
E007
E007
ENDCHAR
STARTCHAR napostrophe
ENCODING -1
SWIDTH 600 0
DWIDTH 22 0
BBX 20 27 0 0
BITMAP
3C0000
3C0000
380000
780000
780000
700000
700000
E00000
E71F80
077FC0
07FFE0
07C0E0
0780F0
078070
070070
070070
070070
070070
070070
070070
070070
070070
070070
070070
070070
070070
070070
ENDCHAR
STARTCHAR Eng
ENCODING -1
SWIDTH 600 0
DWIDTH 22 0
BBX 18 33 2 -7
BITMAP
F001C0
F801C0
F801C0
FC01C0
FC01C0
FE01C0
EE01C0
E701C0
E781C0
E381C0
E3C1C0
E1C1C0
E1E1C0
E0E1C0
E071C0
E079C0
E039C0
E03DC0
E01DC0
E01FC0
E00FC0
E00FC0
E007C0
E003C0
E003C0
E001C0
0001C0
0001C0
0003C0
000780
00FF80
00FF00
00FC00
ENDCHAR
STARTCHAR eng
ENCODING -1
SWIDTH 600 0
DWIDTH 22 0
BBX 16 28 3 -9
BITMAP
E3F0
EFFC
EFFE
FC1E
F00F
F007
F007
E007
E007
E007
E007
E007
E007
E007
E007
E007
E007
E007
E007
0007
0007
0007
0007
0007
000F
007E
007E
007C
ENDCHAR
STARTCHAR Omacron
ENCODING -1
SWIDTH 600 0
DWIDTH 22 0
BBX 20 31 1 0
BITMAP
07FE00
07FE00
07FE00
000000
000000
01F800
0FFE00
1FFF80
3E07C0
3C03C0
7801E0
7800E0
7000E0
F000F0
F000F0
F000F0
F000F0
E00070
E00070
F000F0
F000F0
F000F0
F000F0
7000E0
7801E0
7801E0
3C03C0
3E07C0
1FFF80
0FFE00
03F800
ENDCHAR
STARTCHAR omacron
ENCODING -1
SWIDTH 600 0
DWIDTH 22 0
BBX 18 25 2 0
BITMAP
0FFC00
0FFC00
0FFC00
000000
000000
000000
03F000
0FFC00
3FFE00
3C0F00
780780
700380
F003C0
E001C0
E001C0
E001C0
E001C0
E001C0
F003C0
700380
780780
3C0F00
1FFE00
0FFC00
03F000
ENDCHAR
STARTCHAR Obreve
ENCODING -1
SWIDTH 600 0
DWIDTH 22 0
BBX 20 33 1 0
BITMAP
060300
060700
03FE00
03FE00
00F800
000000
000000
01F800
0FFE00
1FFF80
3E07C0
3C03C0
7801E0
7800E0
7000E0
F000F0
F000F0
F000F0
F000F0
E00070
E00070
F000F0
F000F0
F000F0
F000F0
7000E0
7801E0
7801E0
3C03C0
3E07C0
1FFF80
0FFE00
03F800
ENDCHAR
STARTCHAR obreve
ENCODING -1
SWIDTH 600 0
DWIDTH 22 0
BBX 18 27 2 0
BITMAP
0C0600
0C0E00
07FC00
07FC00
01F000
000000
000000
000000
03F000
0FFC00
3FFE00
3C0F00
780780
700380
F003C0
E001C0
E001C0
E001C0
E001C0
E001C0
F003C0
700380
780780
3C0F00
1FFE00
0FFC00
03F000
ENDCHAR
STARTCHAR Ohungarumlaut
ENCODING -1
SWIDTH 600 0
DWIDTH 22 0
BBX 20 34 1 0
BITMAP
00F3C0
01E780
01C700
038F00
038C00
061800
000000
000000
01F800
0FFE00
1FFF80
3E07C0
3C03C0
7801E0
7800E0
7000E0
F000F0
F000F0
F000F0
F000F0
E00070
E00070
F000F0
F000F0
F000F0
F000F0
7000E0
7801E0
7801E0
3C03C0
3E07C0
1FFF80
0FFE00
03F800
ENDCHAR
STARTCHAR ohungarumlaut
ENCODING -1
SWIDTH 600 0
DWIDTH 22 0
BBX 18 28 2 0
BITMAP
01E780
03CF00
038E00
071E00
071800
0C3000
000000
000000
000000
03F000
0FFC00
3FFE00
3C0F00
780780
700380
F003C0
E001C0
E001C0
E001C0
E001C0
E001C0
F003C0
700380
780780
3C0F00
1FFE00
0FFC00
03F000
ENDCHAR
STARTCHAR OE
ENCODING -1
SWIDTH 600 0
DWIDTH 22 0
BBX 21 26 0 0
BITMAP
03FFF8
0FFFF8
1FFFF8
3C1C00
781C00
781C00
701C00
F01C00
F01C00
E01C00
E01C00
E01FF0
E01FF0
E01FF0
E01C00
E01C00
E01C00
F01C00
F01C00
701C00
781C00
781C00
3C1C00
1FFFF8
0FFFF8
07FFF8
ENDCHAR
STARTCHAR oe
ENCODING -1
SWIDTH 600 0
DWIDTH 22 0
BBX 20 19 1 0
BITMAP
0F0780
3F8FC0
3FDFE0
70D8E0
70F8E0
F07870
E07070
E07070
E07FF0
E07FF0
E07FF0
E07000
E07000
F07800
70F800
70DC20
3FDFE0
3F8FE0
0F07C0
ENDCHAR
STARTCHAR Racute
ENCODING -1
SWIDTH 600 0
DWIDTH 22 0
BBX 18 34 3 0
BITMAP
00F000
01E000
01E000
03C000
038000
070000
000000
000000
FFE000
FFF800
FFFC00
E03E00
E00F00
E00F00
E00F00
E00700
E00F00
E00F00
E01E00
E03C00
FFFC00
FFF000
FFE000
E0F000
E07000
E07800
E03C00
E03C00
E01E00
E00E00
E00F00
E00780
E00780
E003C0
ENDCHAR
STARTCHAR racute
ENCODING -1
SWIDTH 600 0
DWIDTH 22 0
BBX 14 28 5 0
BITMAP
00F0
01E0
01E0
03C0
0380
0700
0000
0000
0000
E1F8
E7FC
EFFC
FC00
F800
F000
F000
E000
E000
E000
E000
E000
E000
E000
E000
E000
E000
E000
E000
ENDCHAR
STARTCHAR uni0156
ENCODING -1
SWIDTH 600 0
DWIDTH 22 0
BBX 18 34 3 -8
BITMAP
FFE000
FFF800
FFFC00
E03E00
E00F00
E00F00
E00F00
E00700
E00F00
E00F00
E01E00
E03C00
FFFC00
FFF000
FFE000
E0F000
E07000
E07800
E03C00
E03C00
E01E00
E00E00
E00F00
E00780
E00780
E003C0
000000
000000
00E000
01E000
01C000
01C000
038000
030000
ENDCHAR
STARTCHAR uni0157
ENCODING -1
SWIDTH 600 0
DWIDTH 22 0
BBX 15 27 4 -8
BITMAP
70FC
73FE
77FE
7E00
7C00
7800
7800
7000
7000
7000
7000
7000
7000
7000
7000
7000
7000
7000
7000
0000
0000
3800
7800
7000
7000
E000
C000
ENDCHAR
STARTCHAR Rcaron
ENCODING -1
SWIDTH 600 0
DWIDTH 22 0
BBX 18 34 3 0
BITMAP
381C00
1C3800
0E7000
0FE000
07C000
038000
000000
000000
FFE000
FFF800
FFFC00
E03E00
E00F00
E00F00
E00F00
E00700
E00F00
E00F00
E01E00
E03C00
FFFC00
FFF000
FFE000
E0F000
E07000
E07800
E03C00
E03C00
E01E00
E00E00
E00F00
E00780
E00780
E003C0
ENDCHAR
STARTCHAR rcaron
ENCODING -1
SWIDTH 600 0
DWIDTH 22 0
BBX 14 28 5 0
BITMAP
7038
3870
1CE0
1FC0
0F80
0700
0000
0000
0000
E1F8
E7FC
EFFC
FC00
F800
F000
F000
E000
E000
E000
E000
E000
E000
E000
E000
E000
E000
E000
E000
ENDCHAR
STARTCHAR Sacute
ENCODING -1
SWIDTH 600 0
DWIDTH 22 0
BBX 16 34 3 0
BITMAP
0078
00F0
00F0
01E0
01C0
0380
0000
0000
0FF0
3FFE
7FFE
780C
F000
E000
E000
E000
F000
7800
7C00
3F80
1FE0
07F8
00FC
003E
000F
000F
0007
0007
000F
000F
C01E
FFFC
FFF8
3FE0
ENDCHAR
STARTCHAR sacute
ENCODING -1
SWIDTH 600 0
DWIDTH 22 0
BBX 14 28 4 0
BITMAP
00F0
01E0
01E0
03C0
0380
0700
0000
0000
0000
0FF0
3FFC
7FFC
F008
E000
E000
F000
7C00
3F80
0FE0
03F8
0078
003C
001C
001C
C03C
FFF8
FFF0
3FC0
ENDCHAR
STARTCHAR Scircumflex
ENCODING -1
SWIDTH 600 0
DWIDTH 22 0
BBX 16 34 3 0
BITMAP
01E0
03E0
07F0
0778
0E1C
1C0E
0000
0000
0FF0
3FFE
7FFE
780C
F000
E000
E000
E000
F000
7800
7C00
3F80
1FE0
07F8
00FC
003E
000F
000F
0007
0007
000F
000F
C01E
FFFC
FFF8
3FE0
ENDCHAR
STARTCHAR scircumflex
ENCODING -1
SWIDTH 600 0
DWIDTH 22 0
BBX 14 28 4 0
BITMAP
03C0
07C0
0FE0
0EF0
1C38
381C
0000
0000
0000
0FF0
3FFC
7FFC
F008
E000
E000
F000
7C00
3F80
0FE0
03F8
0078
003C
001C
001C
C03C
FFF8
FFF0
3FC0
ENDCHAR
STARTCHAR Scedilla
ENCODING -1
SWIDTH 600 0
DWIDTH 22 0
BBX 16 35 3 -9
BITMAP
0FF0
3FFE
7FFE
780C
F000
E000
E000
E000
F000
7800
7C00
3F80
1FE0
07F8
00FC
003E
000F
000F
0007
0007
000F
000F
C01E
FFFC
FFF8
3FE0
0380
0300
0380
03C0
00E0
00E0
00E0
0FC0
0F80
ENDCHAR
STARTCHAR scedilla
ENCODING -1
SWIDTH 600 0
DWIDTH 22 0
BBX 14 28 4 -9
BITMAP
0FF0
3FFC
7FFC
F008
E000
E000
F000
7C00
3F80
0FE0
03F8
0078
003C
001C
001C
C03C
FFF8
FFF0
3FC0
0380
0300
0380
03C0
00E0
00E0
00E0
0FC0
0F80
ENDCHAR
STARTCHAR Scaron
ENCODING -1
SWIDTH 600 0
DWIDTH 22 0
BBX 16 34 3 0
BITMAP
1C0E
0E1C
0738
07F0
03E0
01C0
0000
0000
0FF0
3FFE
7FFE
780C
F000
E000
E000
E000
F000
7800
7C00
3F80
1FE0
07F8
00FC
003E
000F
000F
0007
0007
000F
000F
C01E
FFFC
FFF8
3FE0
ENDCHAR
STARTCHAR scaron
ENCODING -1
SWIDTH 600 0
DWIDTH 22 0
BBX 14 28 4 0
BITMAP
7038
3870
1CE0
1FC0
0F80
0700
0000
0000
0000
0FF0
3FFC
7FFC
F008
E000
E000
F000
7C00
3F80
0FE0
03F8
0078
003C
001C
001C
C03C
FFF8
FFF0
3FC0
ENDCHAR
STARTCHAR uni021A
ENCODING -1
SWIDTH 600 0
DWIDTH 22 0
BBX 18 34 2 -8
BITMAP
FFFFC0
FFFFC0
FFFFC0
01C000
01C000
01C000
01C000
01C000
01C000
01C000
01C000
01C000
01C000
01C000
01C000
01C000
01C000
01C000
01C000
01C000
01C000
01C000
01C000
01C000
01C000
01C000
000000
000000
00E000
01E000
01C000
01C000
038000
030000
ENDCHAR
STARTCHAR uni021B
ENCODING -1
SWIDTH 600 0
DWIDTH 22 0
BBX 16 32 2 -8
BITMAP
0300
0300
0300
0700
0700
7FFF
FFFF
FFFF
0700
0700
0700
0700
0700
0700
0700
0700
0700
0700
0700
0700
0780
03FF
01FF
00FF
0000
0000
00E0
01E0
01C0
01C0
0380
0300
ENDCHAR
STARTCHAR Tcaron
ENCODING -1
SWIDTH 600 0
DWIDTH 22 0
BBX 18 34 2 0
BITMAP
1C0E00
0E1C00
073800
07F000
03E000
01C000
000000
000000
FFFFC0
FFFFC0
FFFFC0
01C000
01C000
01C000
01C000
01C000
01C000
01C000
01C000
01C000
01C000
01C000
01C000
01C000
01C000
01C000
01C000
01C000
01C000
01C000
01C000
01C000
01C000
01C000
ENDCHAR
STARTCHAR tcaron
ENCODING -1
SWIDTH 600 0
DWIDTH 22 0
BBX 16 27 2 0
BITMAP
0007
0007
0006
030E
030C
030C
0700
0700
7FFF
FFFF
FFFF
0700
0700
0700
0700
0700
0700
0700
0700
0700
0700
0700
0700
0780
03FF
01FF
00FF
ENDCHAR
STARTCHAR Tbar
ENCODING -1
SWIDTH 600 0
DWIDTH 22 0
BBX 18 26 2 0
BITMAP
FFFFC0
FFFFC0
FFFFC0
01C000
01C000
01C000
01C000
01C000
01C000
01C000
01C000
3FFF00
3FFF00
3FFF00
01C000
01C000
01C000
01C000
01C000
01C000
01C000
01C000
01C000
01C000
01C000
01C000
ENDCHAR
STARTCHAR tbar
ENCODING -1
SWIDTH 600 0
DWIDTH 22 0
BBX 16 24 2 0
BITMAP
0300
0300
0300
0700
0700
7FFF
FFFF
FFFF
0700
0700
0700
3FFC
3FFC
3FFC
0700
0700
0700
0700
0700
0700
0780
03FF
01FF
00FF
ENDCHAR
STARTCHAR Utilde
ENCODING -1
SWIDTH 600 0
DWIDTH 22 0
BBX 18 33 2 0
BITMAP
078300
0FC300
1FFE00
187E00
183C00
000000
000000
E001C0
E001C0
E001C0
E001C0
E001C0
E001C0
E001C0
E001C0
E001C0
E001C0
E001C0
E001C0
E001C0
E001C0
E001C0
E001C0
E001C0
E001C0
E003C0
F003C0
F00380
780780
7C0F80
3FFF00
1FFE00
07F000
ENDCHAR
STARTCHAR utilde
ENCODING -1
SWIDTH 600 0
DWIDTH 22 0
BBX 16 27 3 0
BITMAP
0F06
1F86
3FFC
30FC
3078
0000
0000
0000
E007
E007
E007
E007
E007
E007
E007
E007
E007
E007
E007
E007
E00F
E00F
F00F
781F
7FF7
3FF7
0FC7
ENDCHAR
STARTCHAR Umacron
ENCODING -1
SWIDTH 600 0
DWIDTH 22 0
BBX 18 31 2 0
BITMAP
0FFC00
0FFC00
0FFC00
000000
000000
E001C0
E001C0
E001C0
E001C0
E001C0
E001C0
E001C0
E001C0
E001C0
E001C0
E001C0
E001C0
E001C0
E001C0
E001C0
E001C0
E001C0
E001C0
E003C0
F003C0
F00380
780780
7C0F80
3FFF00
1FFE00
07F000
ENDCHAR
STARTCHAR umacron
ENCODING -1
SWIDTH 600 0
DWIDTH 22 0
BBX 16 25 3 0
BITMAP
1FF8
1FF8
1FF8
0000
0000
0000
E007
E007
E007
E007
E007
E007
E007
E007
E007
E007
E007
E007
E00F
E00F
F00F
781F
7FF7
3FF7
0FC7
ENDCHAR
STARTCHAR Ubreve
ENCODING -1
SWIDTH 600 0
DWIDTH 22 0
BBX 18 33 2 0
BITMAP
0C0600
0C0E00
07FC00
07FC00
01F000
000000
000000
E001C0
E001C0
E001C0
E001C0
E001C0
E001C0
E001C0
E001C0
E001C0
E001C0
E001C0
E001C0
E001C0
E001C0
E001C0
E001C0
E001C0
E001C0
E003C0
F003C0
F00380
780780
7C0F80
3FFF00
1FFE00
07F000
ENDCHAR
STARTCHAR ubreve
ENCODING -1
SWIDTH 600 0
DWIDTH 22 0
BBX 16 27 3 0
BITMAP
180C
181C
0FF8
0FF8
03E0
0000
0000
0000
E007
E007
E007
E007
E007
E007
E007
E007
E007
E007
E007
E007
E00F
E00F
F00F
781F
7FF7
3FF7
0FC7
ENDCHAR
STARTCHAR Uring
ENCODING -1
SWIDTH 600 0
DWIDTH 22 0
BBX 18 36 2 0
BITMAP
01E000
03F000
061800
061800
061800
061800
03F000
01E000
000000
000000
E001C0
E001C0
E001C0
E001C0
E001C0
E001C0
E001C0
E001C0
E001C0
E001C0
E001C0
E001C0
E001C0
E001C0
E001C0
E001C0
E001C0
E001C0
E003C0
F003C0
F00380
780780
7C0F80
3FFF00
1FFE00
07F000
ENDCHAR
STARTCHAR uring
ENCODING -1
SWIDTH 600 0
DWIDTH 22 0
BBX 16 30 3 0
BITMAP
03C0
07E0
0C30
0C30
0C30
0C30
07E0
03C0
0000
0000
0000
E007
E007
E007
E007
E007
E007
E007
E007
E007
E007
E007
E007
E00F
E00F
F00F
781F
7FF7
3FF7
0FC7
ENDCHAR
STARTCHAR Uhungarumlaut
ENCODING -1
SWIDTH 600 0
DWIDTH 22 0
BBX 18 34 2 0
BITMAP
01E780
03CF00
038E00
071E00
071800
0C3000
000000
000000
E001C0
E001C0
E001C0
E001C0
E001C0
E001C0
E001C0
E001C0
E001C0
E001C0
E001C0
E001C0
E001C0
E001C0
E001C0
E001C0
E001C0
E001C0
E003C0
F003C0
F00380
780780
7C0F80
3FFF00
1FFE00
07F000
ENDCHAR
STARTCHAR uhungarumlaut
ENCODING -1
SWIDTH 600 0
DWIDTH 22 0
BBX 16 28 3 0
BITMAP
03CF
079E
071C
0E3C
0E30
1860
0000
0000
0000
E007
E007
E007
E007
E007
E007
E007
E007
E007
E007
E007
E007
E00F
E00F
F00F
781F
7FF7
3FF7
0FC7
ENDCHAR
STARTCHAR Uogonek
ENCODING -1
SWIDTH 600 0
DWIDTH 22 0
BBX 18 34 2 -8
BITMAP
E001C0
E001C0
E001C0
E001C0
E001C0
E001C0
E001C0
E001C0
E001C0
E001C0
E001C0
E001C0
E001C0
E001C0
E001C0
E001C0
E001C0
E001C0
E003C0
F003C0
F00380
780780
7C0F80
3FFF00
1FFE00
07F000
00E000
01C000
018000
038000
038000
038000
01F800
00F800
ENDCHAR
STARTCHAR uogonek
ENCODING -1
SWIDTH 600 0
DWIDTH 22 0
BBX 17 27 3 -8
BITMAP
E00700
E00700
E00700
E00700
E00700
E00700
E00700
E00700
E00700
E00700
E00700
E00700
E00F00
E00F00
F00F00
781F00
7FF700
3FF700
0FC700
000E00
001C00
001800
003800
003800
003800
001F80
000F80
ENDCHAR
STARTCHAR Wcircumflex
ENCODING -1
SWIDTH 600 0
DWIDTH 22 0
BBX 22 34 0 0
BITMAP
007800
00F800
01FC00
01DE00
038700
070380
000000
000000
E0001C
E0001C
E0001C
E0001C
700018
700038
700038
700038
707838
707838
707838
30FC38
38FC30
38CC70
38CC70
39CE70
39CE70
398670
1B8770
1B8760
1B0360
1B0360
1B03E0
1F03E0
1E01E0
1E01E0
ENDCHAR
STARTCHAR wcircumflex
ENCODING -1
SWIDTH 600 0
DWIDTH 22 0
BBX 22 28 0 0
BITMAP
007800
00F800
01FC00
01DE00
038700
070380
000000
000000
000000
E0781C
E0781C
60781C
60FC18
70FC38
70CC38
70CC38
31CE38
31CE30
39CE70
398670
398670
1B8770
1B8760
1B0360
1B0360
1F03E0
0F03C0
0E01C0
ENDCHAR
STARTCHAR Ycircumflex
ENCODING -1
SWIDTH 600 0
DWIDTH 22 0
BBX 21 34 0 0
BITMAP
007800
00F800
01FC00
01DE00
038700
070380
000000
000000
F00078
700070
7800F0
3800E0
1C01E0
1C01C0
0E0380
0F0380
070700
078700
038E00
03CE00
01DC00
00FC00
00F800
007800
007000
007000
007000
007000
007000
007000
007000
007000
007000
007000
ENDCHAR
STARTCHAR ycircumflex
ENCODING -1
SWIDTH 600 0
DWIDTH 22 0
BBX 20 37 1 -9
BITMAP
00F000
01F000
03F800
03BC00
070E00
0E0700
000000
000000
000000
F000F0
7000E0
7000E0
3801E0
3801C0
3C03C0
1C0380
1E0780
0E0700
0F0700
070F00
070E00
039E00
039C00
01DC00
01FC00
01F800
00F800
00F000
00F000
00E000
00E000
01E000
01C000
03C000
FF8000
FF0000
FC0000
ENDCHAR
STARTCHAR Ydieresis
ENCODING -1
SWIDTH 600 0
DWIDTH 22 0
BBX 21 33 0 0
BITMAP
038700
038700
038700
038700
000000
000000
000000
F00078
700070
7800F0
3800E0
1C01E0
1C01C0
0E0380
0F0380
070700
078700
038E00
03CE00
01DC00
00FC00
00F800
007800
007000
007000
007000
007000
007000
007000
007000
007000
007000
007000
ENDCHAR
STARTCHAR Zacute
ENCODING -1
SWIDTH 600 0
DWIDTH 22 0
BBX 18 34 2 0
BITMAP
003C00
007800
007800
00F000
00E000
01C000
000000
000000
FFFFC0
FFFFC0
FFFFC0
000380
000780
000F00
000E00
001E00
003C00
003800
007000
00F000
00E000
01C000
03C000
038000
070000
0F0000
1E0000
1C0000
3C0000
780000
700000
FFFFC0
FFFFC0
FFFFC0
ENDCHAR
STARTCHAR zacute
ENCODING -1
SWIDTH 600 0
DWIDTH 22 0
BBX 16 28 3 0
BITMAP
0078
00F0
00F0
01E0
01C0
0380
0000
0000
0000
7FFF
7FFF
7FFF
000E
001C
0038
0078
00F0
01E0
03C0
0380
0700
0E00
1C00
3800
7000
FFFF
FFFF
FFFF
ENDCHAR
STARTCHAR Zdotaccent
ENCODING -1
SWIDTH 600 0
DWIDTH 22 0
BBX 18 33 2 0
BITMAP
00E000
00E000
00E000
00E000
000000
000000
000000
FFFFC0
FFFFC0
FFFFC0
000380
000780
000F00
000E00
001E00
003C00
003800
007000
00F000
00E000
01C000
03C000
038000
070000
0F0000
1E0000
1C0000
3C0000
780000
700000
FFFFC0
FFFFC0
FFFFC0
ENDCHAR
STARTCHAR zdotaccent
ENCODING -1
SWIDTH 600 0
DWIDTH 22 0
BBX 16 27 3 0
BITMAP
01C0
01C0
01C0
01C0
0000
0000
0000
0000
7FFF
7FFF
7FFF
000E
001C
0038
0078
00F0
01E0
03C0
0380
0700
0E00
1C00
3800
7000
FFFF
FFFF
FFFF
ENDCHAR
STARTCHAR Zcaron
ENCODING -1
SWIDTH 600 0
DWIDTH 22 0
BBX 18 34 2 0
BITMAP
1C0E00
0E1C00
073800
07F000
03E000
01C000
000000
000000
FFFFC0
FFFFC0
FFFFC0
000380
000780
000F00
000E00
001E00
003C00
003800
007000
00F000
00E000
01C000
03C000
038000
070000
0F0000
1E0000
1C0000
3C0000
780000
700000
FFFFC0
FFFFC0
FFFFC0
ENDCHAR
STARTCHAR zcaron
ENCODING -1
SWIDTH 600 0
DWIDTH 22 0
BBX 16 28 3 0
BITMAP
381C
1C38
0E70
0FE0
07C0
0380
0000
0000
0000
7FFF
7FFF
7FFF
000E
001C
0038
0078
00F0
01E0
03C0
0380
0700
0E00
1C00
3800
7000
FFFF
FFFF
FFFF
ENDCHAR
STARTCHAR longs
ENCODING -1
SWIDTH 600 0
DWIDTH 22 0
BBX 12 27 6 0
BITMAP
1FE0
3FF0
7FE0
F000
E000
E000
E000
E000
E000
E000
E000
E000
E000
E000
E000
E000
E000
E000
E000
E000
E000
E000
E000
E000
E000
E000
E000
ENDCHAR
STARTCHAR florin
ENCODING -1
SWIDTH 600 0
DWIDTH 22 0
BBX 14 35 4 -9
BITMAP
00FC
03FC
03F8
0780
0700
0700
0700
0700
0700
1FF8
7FF8
7FF8
0700
0700
0700
0700
0700
0700
0700
0700
0700
0700
0700
0700
0700
0700
0700
0700
0700
0700
0700
0F00
FF00
FE00
F800
ENDCHAR
STARTCHAR Aringacute
ENCODING -1
SWIDTH 600 0
DWIDTH 22 0
BBX 20 38 1 0
BITMAP
003C00
007800
007800
00F000
00E000
01C000
00F000
01F800
030C00
030C00
030C00
030C00
01F800
00F000
01F800
01F800
01F800
01F800
039C00
039C00
039C00
070E00
070E00
070E00
0F0700
0E0700
0E0700
1FFF80
1FFF80
1FFF80
3C03C0
3801C0
3801C0
7801E0
7000E0
7000E0
F000F0
F000F0
ENDCHAR
STARTCHAR aringacute
ENCODING -1
SWIDTH 600 0
DWIDTH 22 0
BBX 16 36 2 0
BITMAP
003C
0078
0078
00F0
00E0
01C0
01E0
03F0
0618
0618
0618
0618
03F0
01E0
0000
0000
0000
07F0
3FFC
3FFE
301F
000F
0007
0007
0007
03FF
1FFF
7F07
F007
F007
E00F
E00F
F01F
7FF7
3FE7
1FC3
ENDCHAR
STARTCHAR AEacute
ENCODING -1
SWIDTH 600 0
DWIDTH 22 0
BBX 21 34 0 0
BITMAP
0003C0
000780
000780
000F00
000E00
001C00
000000
000000
03FFF8
03FFF8
07FFF8
073800
073800
063800
0E3800
0E3800
0E3800
0E3800
0C3800
1C3FF0
1C3FF0
1C3FF0
1C3800
3FF800
3FF800
3FF800
383800
703800
703800
703800
703800
703FF8
E03FF8
E03FF8
ENDCHAR
STARTCHAR aeacute
ENCODING -1
SWIDTH 600 0
DWIDTH 22 0
BBX 20 28 1 0
BITMAP
000F00
001E00
001E00
003C00
003800
007000
000000
000000
000000
1F0F80
7F9FC0
3FFFE0
21F8E0
00F0E0
00F070
00E070
00E070
1FFFF0
3FFFF0
7CFFF0
F0E000
E0E000
E0F000
E1F000
F1B830
FFBFF0
7F1FF0
3C07C0
ENDCHAR
STARTCHAR Oslashacute
ENCODING -1
SWIDTH 600 0
DWIDTH 22 0
BBX 20 35 1 -1
BITMAP
001E00
003C00
003C00
007800
007000
00E000
000000
000040
01F870
0FFEF0
1FFFE0
3E07C0
3C03C0
7803E0
7807E0
700FE0
F01EF0
F01CF0
F03CF0
F078F0
E07070
E0F070
E1E0F0
F1C0F0
F380F0
F780F0
7F00E0
7E00E0
7E01E0
3C03C0
3E07C0
7FFF80
7FFE00
F3F800
200000
ENDCHAR
STARTCHAR oslashacute
ENCODING -1
SWIDTH 600 0
DWIDTH 22 0
BBX 18 29 2 -1
BITMAP
003C00
007800
007800
00F000
00E000
01C000
000000
000000
000300
03F380
0FFF00
3FFF00
3C0F00
781F80
703B80
F07BC0
E071C0
E0E1C0
E1E1C0
E1C1C0
E381C0
F783C0
770380
7E0780
3E0F00
3FFF00
3FFC00
73F000
300000
ENDCHAR
STARTCHAR uni0218
ENCODING -1
SWIDTH 600 0
DWIDTH 22 0
BBX 16 34 3 -8
BITMAP
0FF0
3FFE
7FFE
780C
F000
E000
E000
E000
F000
7800
7C00
3F80
1FE0
07F8
00FC
003E
000F
000F
0007
0007
000F
000F
C01E
FFFC
FFF8
3FE0
0000
0000
00E0
01E0
01C0
01C0
0380
0300
ENDCHAR
STARTCHAR uni0219
ENCODING -1
SWIDTH 600 0
DWIDTH 22 0
BBX 14 27 4 -8
BITMAP
0FF0
3FFC
7FFC
F008
E000
E000
F000
7C00
3F80
0FE0
03F8
0078
003C
001C
001C
C03C
FFF8
FFF0
3FC0
0000
0000
0380
0780
0700
0700
0E00
0C00
ENDCHAR
STARTCHAR circumflex
ENCODING -1
SWIDTH 600 0
DWIDTH 22 0
BBX 12 6 5 22
BITMAP
0F00
1F00
3F80
3BC0
70E0
E070
ENDCHAR
STARTCHAR caron
ENCODING -1
SWIDTH 600 0
DWIDTH 22 0
BBX 12 6 5 22
BITMAP
E070
70E0
39C0
3F80
1F00
0E00
ENDCHAR
STARTCHAR uni02C9
ENCODING -1
SWIDTH 600 0
DWIDTH 22 0
BBX 10 3 6 22
BITMAP
FFC0
FFC0
FFC0
ENDCHAR
STARTCHAR breve
ENCODING -1
SWIDTH 600 0
DWIDTH 22 0
BBX 11 5 5 22
BITMAP
C060
C0E0
7FC0
7FC0
1F00
ENDCHAR
STARTCHAR dotaccent
ENCODING -1
SWIDTH 600 0
DWIDTH 22 0
BBX 3 4 10 23
BITMAP
E0
E0
E0
E0
ENDCHAR
STARTCHAR ring
ENCODING -1
SWIDTH 600 0
DWIDTH 22 0
BBX 8 8 7 22
BITMAP
3C
7E
C3
C3
C3
C3
7E
3C
ENDCHAR
STARTCHAR ogonek
ENCODING -1
SWIDTH 600 0
DWIDTH 22 0
BBX 7 8 8 -8
BITMAP
38
70
60
E0
E0
E0
7E
3E
ENDCHAR
STARTCHAR tilde
ENCODING -1
SWIDTH 600 0
DWIDTH 22 0
BBX 13 5 5 22
BITMAP
3C18
7E18
FFF0
C3F0
C1E0
ENDCHAR
STARTCHAR hungarumlaut
ENCODING -1
SWIDTH 600 0
DWIDTH 22 0
BBX 13 6 5 22
BITMAP
1E78
3CF0
38E0
71E0
7180
C300
ENDCHAR
STARTCHAR tonos
ENCODING -1
SWIDTH 600 0
DWIDTH 22 0
BBX 5 6 9 22
BITMAP
38
78
70
70
E0
C0
ENDCHAR
STARTCHAR dieresistonos
ENCODING -1
SWIDTH 600 0
DWIDTH 22 0
BBX 11 8 5 23
BITMAP
0780
0700
0700
0E00
EEE0
ECE0
E0E0
E0E0
ENDCHAR
STARTCHAR Alphatonos
ENCODING -1
SWIDTH 600 0
DWIDTH 22 0
BBX 20 26 1 0
BITMAP
38F000
78F000
71F800
71F800
E1F800
C1F800
039C00
039C00
039C00
070E00
070E00
070E00
0F0700
0E0700
0E0700
1FFF80
1FFF80
1FFF80
3C03C0
3801C0
3801C0
7801E0
7000E0
7000E0
F000F0
F000F0
ENDCHAR
STARTCHAR anoteleia
ENCODING -1
SWIDTH 600 0
DWIDTH 22 0
BBX 4 5 9 10
BITMAP
60
F0
F0
F0
60
ENDCHAR
STARTCHAR Epsilontonos
ENCODING -1
SWIDTH 600 0
DWIDTH 22 0
BBX 21 26 -2 0
BITMAP
3BFFF8
7BFFF8
73FFF8
738000
E38000
C38000
038000
038000
038000
038000
038000
03FFF0
03FFF0
03FFF0
038000
038000
038000
038000
038000
038000
038000
038000
038000
03FFF8
03FFF8
03FFF8
ENDCHAR
STARTCHAR Etatonos
ENCODING -1
SWIDTH 600 0
DWIDTH 22 0
BBX 22 26 -2 0
BITMAP
3E001C
7E001C
7E001C
7E001C
EE001C
CE001C
0E001C
0E001C
0E001C
0E001C
0E001C
0FFFFC
0FFFFC
0FFFFC
0E001C
0E001C
0E001C
0E001C
0E001C
0E001C
0E001C
0E001C
0E001C
0E001C
0E001C
0E001C
ENDCHAR
STARTCHAR Iotatonos
ENCODING -1
SWIDTH 600 0
DWIDTH 22 0
BBX 19 26 -2 0
BITMAP
3BFFE0
7BFFE0
701C00
701C00
E01C00
C01C00
001C00
001C00
001C00
001C00
001C00
001C00
001C00
001C00
001C00
001C00
001C00
001C00
001C00
001C00
001C00
001C00
001C00
001E00
03FFE0
03FFE0
ENDCHAR
STARTCHAR Omicrontonos
ENCODING -1
SWIDTH 600 0
DWIDTH 22 0
BBX 23 26 -2 0
BITMAP
383F00
79FFC0
73FFF0
77C0F8
E78078
CF003C
0F001C
0E001C
1E001E
1E001E
1E001E
1E001E
1C000E
1C000E
1E001E
1E001E
1E001E
1E001E
0E001C
0F003C
0F003C
078078
07C0F8
03FFF0
01FFC0
007F00
ENDCHAR
STARTCHAR Upsilontonos
ENCODING -1
SWIDTH 600 0
DWIDTH 22 0
BBX 25 26 -4 0
BITMAP
3F000780
7F000700
77800F00
73800E00
E1C01E00
C1C01C00
00E03800
00F03800
00707000
00787000
0038E000
003CE000
001DC000
000FC000
000F8000
00078000
00070000
00070000
00070000
00070000
00070000
00070000
00070000
00070000
00070000
00070000
ENDCHAR
STARTCHAR Omegatonos
ENCODING -1
SWIDTH 600 0
DWIDTH 22 0
BBX 23 26 -2 0
BITMAP
383F80
78FFE0
71FFF0
73E0F8
E38038
C7803C
07001C
0F001E
0F001E
0F001E
0F001E
0E000E
0E001E
0F001E
0F001E
0F001E
07001C
07001C
07803C
038038
03C078
01C070
00E0E0
0FF1FE
0FF1FE
0FF1FE
ENDCHAR
STARTCHAR iotadieresistonos
ENCODING -1
SWIDTH 600 0
DWIDTH 22 0
BBX 13 31 5 0
BITMAP
0780
0700
0700
0E00
EEE0
ECE0
E0E0
E0E0
0000
0000
0000
0000
1C00
1C00
1C00
1C00
1C00
1C00
1C00
1C00
1C00
1C00
1C00
1C00
1C00
1C00
1C00
1E00
0FF8
0FF8
03F8
ENDCHAR
STARTCHAR Alpha
ENCODING -1
SWIDTH 600 0
DWIDTH 22 0
BBX 20 26 1 0
BITMAP
00F000
00F000
01F800
01F800
01F800
01F800
039C00
039C00
039C00
070E00
070E00
070E00
0F0700
0E0700
0E0700
1FFF80
1FFF80
1FFF80
3C03C0
3801C0
3801C0
7801E0
7000E0
7000E0
F000F0
F000F0
ENDCHAR
STARTCHAR Beta
ENCODING -1
SWIDTH 600 0
DWIDTH 22 0
BBX 18 26 2 0
BITMAP
FFF000
FFFE00
FFFF00
E00F00
E00780
E00780
E00380
E00780
E00780
E00700
E01E00
FFFC00
FFF800
FFFE00
E00F80
E00380
E003C0
E003C0
E001C0
E003C0
E003C0
E00380
E00F80
FFFF00
FFFE00
FFF800
ENDCHAR
STARTCHAR Gamma
ENCODING -1
SWIDTH 600 0
DWIDTH 22 0
BBX 15 26 4 0
BITMAP
FFFE
FFFE
FFFE
E000
E000
E000
E000
E000
E000
E000
E000
E000
E000
E000
E000
E000
E000
E000
E000
E000
E000
E000
E000
E000
E000
E000
ENDCHAR
STARTCHAR uni0394
ENCODING -1
SWIDTH 600 0
DWIDTH 22 0
BBX 19 26 1 0
BITMAP
00E000
01F000
01F000
01F000
03B800
03B800
03B800
07BC00
071C00
071C00
0F1E00
0E0E00
0E0E00
1E0F00
1C0700
1C0700
3C0780
380380
380380
7803C0
7001C0
7001C0
F001E0
FFFFE0
FFFFE0
FFFFE0
ENDCHAR
STARTCHAR Epsilon
ENCODING -1
SWIDTH 600 0
DWIDTH 22 0
BBX 15 26 4 0
BITMAP
FFFE
FFFE
FFFE
E000
E000
E000
E000
E000
E000
E000
E000
FFFC
FFFC
FFFC
E000
E000
E000
E000
E000
E000
E000
E000
E000
FFFE
FFFE
FFFE
ENDCHAR
STARTCHAR Zeta
ENCODING -1
SWIDTH 600 0
DWIDTH 22 0
BBX 18 26 2 0
BITMAP
FFFFC0
FFFFC0
FFFFC0
000380
000780
000F00
000E00
001E00
003C00
003800
007000
00F000
00E000
01C000
03C000
038000
070000
0F0000
1E0000
1C0000
3C0000
780000
700000
FFFFC0
FFFFC0
FFFFC0
ENDCHAR
STARTCHAR Eta
ENCODING -1
SWIDTH 600 0
DWIDTH 22 0
BBX 18 26 2 0
BITMAP
E001C0
E001C0
E001C0
E001C0
E001C0
E001C0
E001C0
E001C0
E001C0
E001C0
E001C0
FFFFC0
FFFFC0
FFFFC0
E001C0
E001C0
E001C0
E001C0
E001C0
E001C0
E001C0
E001C0
E001C0
E001C0
E001C0
E001C0
ENDCHAR
STARTCHAR Theta
ENCODING -1
SWIDTH 600 0
DWIDTH 22 0
BBX 20 26 1 0
BITMAP
01F800
0FFE00
1FFF80
3E07C0
3C03C0
7801E0
7800E0
7000E0
F000F0
F000F0
F000F0
F3FCF0
E3FC70
E3FC70
F000F0
F000F0
F000F0
F000F0
7000E0
7801E0
7801E0
3C03C0
3E07C0
1FFF80
0FFE00
03F800
ENDCHAR
STARTCHAR Iota
ENCODING -1
SWIDTH 600 0
DWIDTH 22 0
BBX 13 26 4 0
BITMAP
FFF8
FFF8
0700
0700
0700
0700
0700
0700
0700
0700
0700
0700
0700
0700
0700
0700
0700
0700
0700
0700
0700
0700
0700
0780
FFF8
FFF8
ENDCHAR
STARTCHAR Kappa
ENCODING -1
SWIDTH 600 0
DWIDTH 22 0
BBX 17 26 4 0
BITMAP
E00780
E00F00
E01E00
E01C00
E03C00
E07800
E0F000
E1E000
E1C000
E38000
E78000
EF0000
EF8000
FF8000
FBC000
E1E000
E0E000
E0F000
E07000
E07800
E03C00
E01C00
E01E00
E00F00
E00700
E00780
ENDCHAR
STARTCHAR Lambda
ENCODING -1
SWIDTH 600 0
DWIDTH 22 0
BBX 20 26 1 0
BITMAP
00F000
00F000
00F000
01F800
01F800
01F800
039C00
039C00
039C00
070E00
070E00
070E00
0F0F00
0E0700
0E0700
1E0780
1C0380
1C0380
3C03C0
3801C0
3801C0
7801E0
7801E0
7000E0
F000F0
F000F0
ENDCHAR
STARTCHAR Mu
ENCODING -1
SWIDTH 600 0
DWIDTH 22 0
BBX 18 26 2 0
BITMAP
F807C0
F807C0
F807C0
D807C0
D806C0
DC0FC0
FC0FC0
FC0FC0
EC0DC0
EC1DC0
EE1DC0
EE1DC0
E619C0
E619C0
E639C0
E739C0
E731C0
E331C0
E331C0
E3F1C0
E3F1C0
E1E1C0
E1E1C0
E1E1C0
E1E1C0
E1C1C0
ENDCHAR
STARTCHAR Nu
ENCODING -1
SWIDTH 600 0
DWIDTH 22 0
BBX 18 26 2 0
BITMAP
F001C0
F801C0
F801C0
FC01C0
FC01C0
FE01C0
EE01C0
EF01C0
E701C0
E381C0
E381C0
E1C1C0
E1C1C0
E0E1C0
E0E1C0
E071C0
E071C0
E039C0
E03DC0
E01DC0
E01FC0
E00FC0
E00FC0
E007C0
E007C0
E003C0
ENDCHAR
STARTCHAR Xi
ENCODING -1
SWIDTH 600 0
DWIDTH 22 0
BBX 18 26 2 0
BITMAP
7FFF80
7FFF80
7FFF80
000000
000000
000000
000000
000000
000000
000000
000000
3FFF00
3FFF00
3FFF00
000000
000000
000000
000000
000000
000000
000000
000000
000000
FFFFC0
FFFFC0
FFFFC0
ENDCHAR
STARTCHAR Omicron
ENCODING -1
SWIDTH 600 0
DWIDTH 22 0
BBX 20 26 1 0
BITMAP
01F800
0FFE00
1FFF80
3E07C0
3C03C0
7801E0
7800E0
7000E0
F000F0
F000F0
F000F0
F000F0
E00070
E00070
F000F0
F000F0
F000F0
F000F0
7000E0
7801E0
7801E0
3C03C0
3E07C0
1FFF80
0FFE00
03F800
ENDCHAR
STARTCHAR Pi
ENCODING -1
SWIDTH 600 0
DWIDTH 22 0
BBX 18 26 2 0
BITMAP
FFFFC0
FFFFC0
FFFFC0
E001C0
E001C0
E001C0
E001C0
E001C0
E001C0
E001C0
E001C0
E001C0
E001C0
E001C0
E001C0
E001C0
E001C0
E001C0
E001C0
E001C0
E001C0
E001C0
E001C0
E001C0
E001C0
E001C0
ENDCHAR
STARTCHAR Rho
ENCODING -1
SWIDTH 600 0
DWIDTH 22 0
BBX 17 26 3 0
BITMAP
FFF000
FFFC00
FFFE00
E01F00
E00F00
E00780
E00780
E00380
E00780
E00780
E00780
E00F00
E03E00
FFFE00
FFF800
FFC000
E00000
E00000
E00000
E00000
E00000
E00000
E00000
E00000
E00000
E00000
ENDCHAR
STARTCHAR Sigma
ENCODING -1
SWIDTH 600 0
DWIDTH 22 0
BBX 18 26 2 0
BITMAP
FFFF80
FFFF80
FFFF80
700000
380000
3C0000
1E0000
0F0000
070000
038000
03C000
01E000
00F000
01E000
01C000
038000
078000
0F0000
0E0000
1C0000
3C0000
780000
700000
FFFFC0
FFFFC0
FFFFC0
ENDCHAR
STARTCHAR Tau
ENCODING -1
SWIDTH 600 0
DWIDTH 22 0
BBX 18 26 2 0
BITMAP
FFFFC0
FFFFC0
FFFFC0
01C000
01C000
01C000
01C000
01C000
01C000
01C000
01C000
01C000
01C000
01C000
01C000
01C000
01C000
01C000
01C000
01C000
01C000
01C000
01C000
01C000
01C000
01C000
ENDCHAR
STARTCHAR Upsilon
ENCODING -1
SWIDTH 600 0
DWIDTH 22 0
BBX 21 26 0 0
BITMAP
F00078
700070
7800F0
3800E0
1C01E0
1C01C0
0E0380
0F0380
070700
078700
038E00
03CE00
01DC00
00FC00
00F800
007800
007000
007000
007000
007000
007000
007000
007000
007000
007000
007000
ENDCHAR
STARTCHAR Phi
ENCODING -1
SWIDTH 600 0
DWIDTH 22 0
BBX 21 26 0 0
BITMAP
007000
007000
007000
07FF00
1FFFC0
3FFFE0
3C71E0
7870F0
707070
F07078
E07038
E07038
E07038
E07038
E07038
F07078
707070
7870F0
3C71E0
3FFFE0
0FFFC0
07FF00
007000
007000
007000
007000
ENDCHAR
STARTCHAR Chi
ENCODING -1
SWIDTH 600 0
DWIDTH 22 0
BBX 20 26 1 0
BITMAP
7801E0
3801C0
3C03C0
1E0380
0E0700
0F0F00
070E00
079E00
039C00
01F800
01F800
00F000
00F000
01F800
01F800
039C00
039C00
070E00
0F0F00
0E0700
1C0780
1C0380
3803C0
7801E0
7001E0
F000F0
ENDCHAR
STARTCHAR Psi
ENCODING -1
SWIDTH 600 0
DWIDTH 22 0
BBX 20 26 1 0
BITMAP
E0E070
E0E070
E0E070
E0E070
E0E070
E0E070
E0E070
E0E070
E0E070
E0E070
E0E070
E0E0F0
F0E0F0
70E0E0
78E1E0
3FFFC0
1FFF80
07FE00
00E000
00E000
00E000
00E000
00E000
00E000
00E000
00E000
ENDCHAR
STARTCHAR uni03A9
ENCODING -1
SWIDTH 600 0
DWIDTH 22 0
BBX 19 26 2 0
BITMAP
03F800
0FFE00
1FFF00
3E0F80
380380
7803C0
7001C0
F001E0
F001E0
F001E0
F001E0
E000E0
E001E0
F001E0
F001E0
F001E0
7001C0
7001C0
7803C0
380380
3C0780
1C0700
0E0E00
FF1FE0
FF1FE0
FF1FE0
ENDCHAR
STARTCHAR Iotadieresis
ENCODING -1
SWIDTH 600 0
DWIDTH 22 0
BBX 13 33 4 0
BITMAP
3870
3870
3870
3870
0000
0000
0000
FFF8
FFF8
0700
0700
0700
0700
0700
0700
0700
0700
0700
0700
0700
0700
0700
0700
0700
0700
0700
0700
0700
0700
0700
0780
FFF8
FFF8
ENDCHAR
STARTCHAR Upsilondieresis
ENCODING -1
SWIDTH 600 0
DWIDTH 22 0
BBX 21 33 0 0
BITMAP
038700
038700
038700
038700
000000
000000
000000
F00078
700070
7800F0
3800E0
1C01E0
1C01C0
0E0380
0F0380
070700
078700
038E00
03CE00
01DC00
00FC00
00F800
007800
007000
007000
007000
007000
007000
007000
007000
007000
007000
007000
ENDCHAR
STARTCHAR alphatonos
ENCODING -1
SWIDTH 600 0
DWIDTH 22 0
BBX 20 28 2 0
BITMAP
007000
00F000
00E000
00E000
01C000
018000
000000
000000
000000
07E1C0
1FF9C0
3FFF80
780F80
780780
700780
F00780
E00380
E00380
E00380
E00380
E00380
F00780
700780
700780
780F80
3FFBF0
1FF1F0
07E0F0
ENDCHAR
STARTCHAR epsilontonos
ENCODING -1
SWIDTH 600 0
DWIDTH 22 0
BBX 14 28 4 0
BITMAP
00E0
01E0
01C0
01C0
0380
0300
0000
0000
0000
07F0
1FFC
3FFC
7808
7000
7000
7800
3C00
1FE0
0FE0
3FE0
7000
E000
E000
E000
F004
7FFC
3FFC
0FF0
ENDCHAR
STARTCHAR etatonos
ENCODING -1
SWIDTH 600 0
DWIDTH 22 0
BBX 16 37 3 -9
BITMAP
0070
00F0
00E0
00E0
01C0
0180
0000
0000
0000
E3F0
EFFC
EFFE
FC1E
F00F
F007
F007
E007
E007
E007
E007
E007
E007
E007
E007
E007
E007
E007
E007
0007
0007
0007
0007
0007
0007
0007
0007
0007
ENDCHAR
STARTCHAR iotatonos
ENCODING -1
SWIDTH 600 0
DWIDTH 22 0
BBX 10 28 8 0
BITMAP
1C00
3C00
3800
3800
7000
6000
0000
0000
0000
E000
E000
E000
E000
E000
E000
E000
E000
E000
E000
E000
E000
E000
E000
E000
F000
7FC0
7FC0
1FC0
ENDCHAR
STARTCHAR upsilondieresistonos
ENCODING -1
SWIDTH 600 0
DWIDTH 22 0
BBX 16 31 3 0
BITMAP
00F0
00E0
00E0
01C0
1DDC
1D9C
1C1C
1C1C
0000
0000
0000
0000
E00E
E00E
E00E
E00F
E007
E007
E007
E007
E007
E007
E007
E007
E00F
F00E
700E
781E
3FFC
1FF8
0FE0
ENDCHAR
STARTCHAR alpha
ENCODING -1
SWIDTH 600 0
DWIDTH 22 0
BBX 20 19 2 0
BITMAP
07E1C0
1FF9C0
3FFF80
780F80
780780
700780
F00780
E00380
E00380
E00380
E00380
E00380
F00780
700780
700780
780F80
3FFBF0
1FF1F0
07E0F0
ENDCHAR
STARTCHAR beta
ENCODING -1
SWIDTH 600 0
DWIDTH 22 0
BBX 17 36 3 -9
BITMAP
07F000
1FFC00
3FFE00
781E00
700F00
F00700
E00700
E00700
E00F00
E00E00
E03C00
E3F000
E3F000
E3FC00
E01E00
E00F00
E00780
E00380
E00380
E00380
E00380
E00780
E00700
F00F00
FFFE00
FFFC00
E7F000
E00000
E00000
E00000
E00000
E00000
E00000
E00000
E00000
E00000
ENDCHAR
STARTCHAR gamma
ENCODING -1
SWIDTH 600 0
DWIDTH 22 0
BBX 20 28 1 -9
BITMAP
F000F0
7000E0
7800E0
3801E0
3C01C0
1C03C0
1C0380
0E0380
0E0780
070700
070700
078E00
038E00
03DC00
01DC00
01DC00
00F800
00F800
007000
007000
00F000
00E000
00E000
01E000
01E000
01C000
01C000
01C000
ENDCHAR
STARTCHAR delta
ENCODING -1
SWIDTH 600 0
DWIDTH 22 0
BBX 18 27 2 0
BITMAP
03F800
0FFF00
0FFF80
1E0700
1C0000
1C0000
1E0000
0F0000
078000
03E000
00F800
03FC00
0F9F00
3E0F00
780780
7003C0
F003C0
F001C0
E001C0
E001C0
E003C0
F003C0
700380
7C0F80
3FFF00
1FFE00
07F800
ENDCHAR
STARTCHAR epsilon
ENCODING -1
SWIDTH 600 0
DWIDTH 22 0
BBX 14 19 4 0
BITMAP
07F0
1FFC
3FFC
7808
7000
7000
7800
3C00
1FE0
0FE0
3FE0
7000
E000
E000
E000
F004
7FFC
3FFC
0FF0
ENDCHAR
STARTCHAR zeta
ENCODING -1
SWIDTH 600 0
DWIDTH 22 0
BBX 16 34 3 -7
BITMAP
7FFF
7FFF
7FFF
001E
0078
00F0
01E0
0380
0700
0E00
1C00
3C00
3800
7000
7000
F000
F000
E000
E000
E000
E000
F000
7800
7E00
3FE0
1FFC
03FE
001F
0007
0007
0007
000E
000E
001C
ENDCHAR
STARTCHAR eta
ENCODING -1
SWIDTH 600 0
DWIDTH 22 0
BBX 16 28 3 -9
BITMAP
E3F0
EFFC
EFFE
FC1E
F00F
F007
F007
E007
E007
E007
E007
E007
E007
E007
E007
E007
E007
E007
E007
0007
0007
0007
0007
0007
0007
0007
0007
0007
ENDCHAR
STARTCHAR theta
ENCODING -1
SWIDTH 600 0
DWIDTH 22 0
BBX 16 26 3 0
BITMAP
07E0
1FF0
3FF8
3C3C
781E
700E
700E
F00F
E00F
E007
E007
E007
FFFF
FFFF
E007
E007
E007
E00F
F00F
700E
700E
781E
383C
1FF8
0FF0
07E0
ENDCHAR
STARTCHAR iota
ENCODING -1
SWIDTH 600 0
DWIDTH 22 0
BBX 10 19 8 0
BITMAP
E000
E000
E000
E000
E000
E000
E000
E000
E000
E000
E000
E000
E000
E000
E000
F000
7FC0
7FC0
1FC0
ENDCHAR
STARTCHAR kappa
ENCODING -1
SWIDTH 600 0
DWIDTH 22 0
BBX 17 19 4 0
BITMAP
E00700
E00E00
E01C00
E03800
E07000
E1E000
E3C000
E78000
EF0000
EF0000
FF8000
F3C000
E1E000
E0F000
E07800
E03C00
E01E00
E00F00
E00780
ENDCHAR
STARTCHAR lambda
ENCODING -1
SWIDTH 600 0
DWIDTH 22 0
BBX 20 27 1 0
BITMAP
1F0000
1F8000
1FC000
01C000
00E000
00E000
00F000
007000
007000
00F800
00F800
00D800
01DC00
01DC00
039C00
038E00
070E00
070F00
0E0700
0E0700
1C0780
1C0380
380380
3803C0
7801F0
7001F0
F000F0
ENDCHAR
STARTCHAR uni03BC
ENCODING -1
SWIDTH 600 0
DWIDTH 22 0
BBX 16 28 3 -9
BITMAP
E007
E007
E007
E007
E007
E007
E007
E007
E007
E007
E007
E007
E00F
E00F
F00F
F81F
FFF7
FFF7
E7C7
E000
E000
E000
E000
E000
E000
E000
E000
E000
ENDCHAR
STARTCHAR nu
ENCODING -1
SWIDTH 600 0
DWIDTH 22 0
BBX 19 19 1 0
BITMAP
E000E0
F000E0
7000E0
7800E0
3800E0
3801E0
3C01C0
1C01C0
1E01C0
0E03C0
0E0380
0F0780
070700
078E00
039E00
03BC00
01F800
01F000
01E000
ENDCHAR
STARTCHAR xi
ENCODING -1
SWIDTH 600 0
DWIDTH 22 0
BBX 16 34 3 -7
BITMAP
7FFE
7FFE
7FFE
0F00
1C00
3800
7000
7000
7000
7000
7800
3E00
1FFE
07FE
1F80
3C00
7000
F000
E000
E000
E000
F000
F000
7C00
3FE0
1FFC
03FE
001F
0007
0007
0007
000E
000E
001C
ENDCHAR
STARTCHAR omicron
ENCODING -1
SWIDTH 600 0
DWIDTH 22 0
BBX 18 19 2 0
BITMAP
03F000
0FFC00
3FFE00
3C0F00
780780
700380
F003C0
E001C0
E001C0
E001C0
E001C0
E001C0
F003C0
700380
780780
3C0F00
1FFE00
0FFC00
03F000
ENDCHAR
STARTCHAR pi
ENCODING -1
SWIDTH 600 0
DWIDTH 22 0
BBX 22 19 0 0
BITMAP
3FFFFC
FFFFFC
FFFFFC
0E01C0
0E01C0
0E01C0
0E01C0
0E01C0
0E01C0
0E01C0
0E01C0
0E01C0
0E01C0
0E01C0
0E01C0
0E01C0
0E01F8
0E01F8
0E0078
ENDCHAR
STARTCHAR rho
ENCODING -1
SWIDTH 600 0
DWIDTH 22 0
BBX 16 28 3 -9
BITMAP
07E0
1FF8
3FFC
381E
700E
700E
E00F
E007
E007
E007
E007
E007
E00F
E00E
E00E
F81E
FFFC
FFF8
E7E0
E000
E000
E000
E000
E000
E000
E000
E000
E000
ENDCHAR
STARTCHAR sigma1
ENCODING -1
SWIDTH 600 0
DWIDTH 22 0
BBX 16 26 3 -7
BITMAP
03FC
0FFF
1FFE
3E02
7800
7000
F000
F000
E000
E000
E000
E000
F000
F000
7800
7C00
3FC0
1FFC
07FE
003F
000F
0007
0007
000E
000E
001C
ENDCHAR
STARTCHAR sigma
ENCODING -1
SWIDTH 600 0
DWIDTH 22 0
BBX 19 19 2 0
BITMAP
03FFE0
0FFFE0
3FFFE0
3C0E00
780E00
700700
F00700
E00780
E00380
E00380
E00380
E00380
F00780
700700
780700
7C0F00
3FFE00
1FFC00
07F000
ENDCHAR
STARTCHAR tau
ENCODING -1
SWIDTH 600 0
DWIDTH 22 0
BBX 17 19 2 0
BITMAP
3FFF80
FFFF80
FFFF80
038000
038000
038000
038000
038000
038000
038000
038000
038000
038000
038000
038000
03C000
01FF00
01FF00
007F00
ENDCHAR
STARTCHAR upsilon
ENCODING -1
SWIDTH 600 0
DWIDTH 22 0
BBX 16 19 3 0
BITMAP
E00E
E00E
E00E
E00F
E007
E007
E007
E007
E007
E007
E007
E007
E00F
F00E
700E
781E
3FFC
1FF8
0FE0
ENDCHAR
STARTCHAR phi
ENCODING -1
SWIDTH 600 0
DWIDTH 22 0
BBX 20 28 1 -9
BITMAP
101F00
387F80
387FC0
78E1E0
70E0E0
60E0F0
E0E070
E0E070
E0E070
E0E070
E0E070
E0E070
E0E0F0
70E0E0
70E1E0
78E3C0
3FFF80
1FFF00
07FC00
00E000
00E000
00E000
00E000
00E000
00E000
00E000
00E000
00E000
ENDCHAR
STARTCHAR chi
ENCODING -1
SWIDTH 600 0
DWIDTH 22 0
BBX 20 28 1 -9
BITMAP
7800E0
7C01C0
7E03C0
0E0380
0F0780
070700
078E00
038E00
03DC00
01FC00
01F800
01F800
00F000
00F000
00F000
01F000
03F800
03B800
07BC00
071C00
0F1C00
0E1E00
1E0E00
1C0F00
380780
7807F0
7003F0
F001F0
ENDCHAR
STARTCHAR psi
ENCODING -1
SWIDTH 600 0
DWIDTH 22 0
BBX 20 36 1 -9
BITMAP
00E000
00E000
00E000
00E000
00E000
00E000
00E000
00E000
E0E0E0
E0E0E0
E0E0E0
E0E0F0
E0E070
E0E070
E0E070
E0E070
E0E070
E0E070
E0E070
E0E070
F0E0F0
F0E0E0
70E1E0
78E3C0
3FFF80
1FFF00
07FC00
00E000
00E000
00E000
00E000
00E000
00E000
00E000
00E000
00E000
ENDCHAR
STARTCHAR omega
ENCODING -1
SWIDTH 600 0
DWIDTH 22 0
BBX 18 19 2 0
BITMAP
380700
700380
700380
700380
E001C0
E001C0
E001C0
E0E1C0
E0E1C0
E0E1C0
E0E1C0
E0E1C0
E0E1C0
E0E1C0
E0E1C0
71F380
7FBF80
3F3F00
1E1E00
ENDCHAR
STARTCHAR iotadieresis
ENCODING -1
SWIDTH 600 0
DWIDTH 22 0
BBX 13 27 5 0
BITMAP
E1C0
E1C0
E1C0
E1C0
0000
0000
0000
0000
1C00
1C00
1C00
1C00
1C00
1C00
1C00
1C00
1C00
1C00
1C00
1C00
1C00
1C00
1C00
1E00
0FF8
0FF8
03F8
ENDCHAR
STARTCHAR upsilondieresis
ENCODING -1
SWIDTH 600 0
DWIDTH 22 0
BBX 16 27 3 0
BITMAP
1C38
1C38
1C38
1C38
0000
0000
0000
0000
E00E
E00E
E00E
E00F
E007
E007
E007
E007
E007
E007
E007
E007
E00F
F00E
700E
781E
3FFC
1FF8
0FE0
ENDCHAR
STARTCHAR omicrontonos
ENCODING -1
SWIDTH 600 0
DWIDTH 22 0
BBX 18 28 2 0
BITMAP
003800
007800
007000
007000
00E000
00C000
000000
000000
000000
03F000
0FFC00
3FFE00
3C0F00
780780
700380
F003C0
E001C0
E001C0
E001C0
E001C0
E001C0
F003C0
700380
780780
3C0F00
1FFE00
0FFC00
03F000
ENDCHAR
STARTCHAR upsilontonos
ENCODING -1
SWIDTH 600 0
DWIDTH 22 0
BBX 16 28 3 0
BITMAP
00E0
01E0
01C0
01C0
0380
0300
0000
0000
0000
E00E
E00E
E00E
E00F
E007
E007
E007
E007
E007
E007
E007
E007
E00F
F00E
700E
781E
3FFC
1FF8
0FE0
ENDCHAR
STARTCHAR omegatonos
ENCODING -1
SWIDTH 600 0
DWIDTH 22 0
BBX 18 28 2 0
BITMAP
003800
007800
007000
007000
00E000
00C000
000000
000000
000000
380700
700380
700380
700380
E001C0
E001C0
E001C0
E0E1C0
E0E1C0
E0E1C0
E0E1C0
E0E1C0
E0E1C0
E0E1C0
E0E1C0
71F380
7FBF80
3F3F00
1E1E00
ENDCHAR
STARTCHAR uni0401
ENCODING -1
SWIDTH 600 0
DWIDTH 22 0
BBX 15 33 4 0
BITMAP
1C38
1C38
1C38
1C38
0000
0000
0000
FFFE
FFFE
FFFE
E000
E000
E000
E000
E000
E000
E000
E000
FFFC
FFFC
FFFC
E000
E000
E000
E000
E000
E000
E000
E000
E000
FFFE
FFFE
FFFE
ENDCHAR
STARTCHAR uni0402
ENCODING -1
SWIDTH 600 0
DWIDTH 22 0
BBX 20 26 1 0
BITMAP
FFFE00
FFFE00
FFFE00
070000
070000
070000
070000
070000
070000
070000
07FF00
07FFC0
07FFE0
0701E0
0700F0
070070
070070
070070
070070
070070
070070
0700F0
0700E0
071FE0
071FC0
071F00
ENDCHAR
STARTCHAR uni0403
ENCODING -1
SWIDTH 600 0
DWIDTH 22 0
BBX 15 34 4 0
BITMAP
00F0
01E0
01E0
03C0
0380
0700
0000
0000
FFFE
FFFE
FFFE
E000
E000
E000
E000
E000
E000
E000
E000
E000
E000
E000
E000
E000
E000
E000
E000
E000
E000
E000
E000
E000
E000
E000
ENDCHAR
STARTCHAR uni0404
ENCODING -1
SWIDTH 600 0
DWIDTH 22 0
BBX 19 26 2 0
BITMAP
00FF00
03FFE0
0FFFC0
1F80C0
3E0000
3C0000
780000
780000
700000
F00000
F00000
FFFE00
FFFE00
FFFE00
E00000
F00000
F00000
F00000
700000
780000
3C0000
3E0000
1F00C0
0FFFC0
07FFC0
00FF00
ENDCHAR
STARTCHAR uni0405
ENCODING -1
SWIDTH 600 0
DWIDTH 22 0
BBX 16 26 3 0
BITMAP
0FF0
3FFE
7FFE
780C
F000
E000
E000
E000
F000
7800
7C00
3F80
1FE0
07F8
00FC
003E
000F
000F
0007
0007
000F
000F
C01E
FFFC
FFF8
3FE0
ENDCHAR
STARTCHAR uni0406
ENCODING -1
SWIDTH 600 0
DWIDTH 22 0
BBX 13 26 4 0
BITMAP
FFF8
FFF8
0700
0700
0700
0700
0700
0700
0700
0700
0700
0700
0700
0700
0700
0700
0700
0700
0700
0700
0700
0700
0700
0780
FFF8
FFF8
ENDCHAR
STARTCHAR uni0407
ENCODING -1
SWIDTH 600 0
DWIDTH 22 0
BBX 13 33 4 0
BITMAP
3870
3870
3870
3870
0000
0000
0000
FFF8
FFF8
0700
0700
0700
0700
0700
0700
0700
0700
0700
0700
0700
0700
0700
0700
0700
0700
0700
0700
0700
0700
0700
0780
FFF8
FFF8
ENDCHAR
STARTCHAR uni0408
ENCODING -1
SWIDTH 600 0
DWIDTH 22 0
BBX 16 26 2 0
BITMAP
0007
0007
0007
0007
0007
0007
0007
0007
0007
0007
0007
0007
0007
0007
0007
0007
0007
0007
0007
000F
000F
001E
C07E
FFFC
FFF0
7FC0
ENDCHAR
STARTCHAR uni0409
ENCODING -1
SWIDTH 600 0
DWIDTH 22 0
BBX 22 26 0 0
BITMAP
0FF800
0FF800
0FF800
0E3800
0E3800
0E3800
0E3800
0E3800
0C3800
0C3800
0C3800
0C3FC0
0C3FF0
1C3FF8
1C3878
1C383C
1C381C
1C381C
1C381C
1C381C
1C381C
1C383C
183878
F83FF0
F83FE0
F03F80
ENDCHAR
STARTCHAR uni040A
ENCODING -1
SWIDTH 600 0
DWIDTH 22 0
BBX 20 26 1 0
BITMAP
E07000
E07000
E07000
E07000
E07000
E07000
E07000
E07000
E07000
E07000
E07000
FFFF00
FFFFC0
FFFFE0
E071E0
E070F0
E07070
E07070
E07070
E07070
E07070
E070F0
E071E0
E07FE0
E07FC0
E07F00
ENDCHAR
STARTCHAR uni040B
ENCODING -1
SWIDTH 600 0
DWIDTH 22 0
BBX 20 26 1 0
BITMAP
FFFE00
FFFE00
FFFE00
070000
070000
070000
070000
070000
070000
070000
07FF00
07FFC0
07FFE0
0701E0
0700F0
070070
070070
070070
070070
070070
070070
070070
070070
070070
070070
070070
ENDCHAR
STARTCHAR uni040C
ENCODING -1
SWIDTH 600 0
DWIDTH 22 0
BBX 17 34 4 0
BITMAP
003C00
007800
007800
00F000
00E000
01C000
000000
000000
E00780
E00F00
E00E00
E01C00
E03C00
E07800
E0F000
E1E000
E1C000
E38000
E78000
EF0000
FE0000
EF0000
E70000
E78000
E3C000
E1E000
E0F000
E0F000
E07800
E03C00
E01E00
E01E00
E00F00
E00780
ENDCHAR
STARTCHAR uni040E
ENCODING -1
SWIDTH 600 0
DWIDTH 22 0
BBX 21 34 0 0
BITMAP
0E0380
0E0380
0F0780
078F00
03FE00
01F800
000000
000000
F00078
700070
780070
3800E0
3C00E0
1C01E0
1E01C0
0E03C0
0F0380
070380
078700
038700
03CF00
01CE00
01CE00
00FC00
00FC00
007800
007800
007800
007000
00F000
41E000
7FC000
7F8000
7E0000
ENDCHAR
STARTCHAR uni040F
ENCODING -1
SWIDTH 600 0
DWIDTH 22 0
BBX 18 33 2 -7
BITMAP
E001C0
E001C0
E001C0
E001C0
E001C0
E001C0
E001C0
E001C0
E001C0
E001C0
E001C0
E001C0
E001C0
E001C0
E001C0
E001C0
E001C0
E001C0
E001C0
E001C0
E001C0
E001C0
E001C0
FFFFC0
FFFFC0
FFFFC0
01C000
01C000
01C000
01C000
01C000
01C000
01C000
ENDCHAR
STARTCHAR uni0410
ENCODING -1
SWIDTH 600 0
DWIDTH 22 0
BBX 20 26 1 0
BITMAP
00F000
00F000
01F800
01F800
01F800
01F800
039C00
039C00
039C00
070E00
070E00
070E00
0F0700
0E0700
0E0700
1FFF80
1FFF80
1FFF80
3C03C0
3801C0
3801C0
7801E0
7000E0
7000E0
F000F0
F000F0
ENDCHAR
STARTCHAR uni0411
ENCODING -1
SWIDTH 600 0
DWIDTH 22 0
BBX 18 26 2 0
BITMAP
FFFF00
FFFF00
FFFF00
E00000
E00000
E00000
E00000
E00000
E00000
E00000
E00000
FFF800
FFFE00
FFFF00
E00F80
E003C0
E003C0
E003C0
E001C0
E003C0
E003C0
E00780
E00F80
FFFF00
FFFE00
FFF800
ENDCHAR
STARTCHAR uni0412
ENCODING -1
SWIDTH 600 0
DWIDTH 22 0
BBX 18 26 2 0
BITMAP
FFF000
FFFE00
FFFF00
E00F00
E00780
E00780
E00380
E00780
E00780
E00700
E01E00
FFFC00
FFF800
FFFE00
E00F80
E00380
E003C0
E003C0
E001C0
E003C0
E003C0
E00380
E00F80
FFFF00
FFFE00
FFF800
ENDCHAR
STARTCHAR uni0413
ENCODING -1
SWIDTH 600 0
DWIDTH 22 0
BBX 15 26 4 0
BITMAP
FFFE
FFFE
FFFE
E000
E000
E000
E000
E000
E000
E000
E000
E000
E000
E000
E000
E000
E000
E000
E000
E000
E000
E000
E000
E000
E000
E000
ENDCHAR
STARTCHAR uni0414
ENCODING -1
SWIDTH 600 0
DWIDTH 22 0
BBX 21 33 0 -7
BITMAP
00FFC0
00FFC0
00FFC0
00E1C0
00E1C0
01E1C0
01E1C0
01E1C0
01C1C0
01C1C0
01C1C0
03C1C0
03C1C0
0381C0
0381C0
0781C0
0701C0
0701C0
0F01C0
0E01C0
1E01C0
1C01C0
3C01C0
FFFFF8
FFFFF8
FFFFF8
E00038
E00038
E00038
E00038
E00038
E00038
E00038
ENDCHAR
STARTCHAR uni0415
ENCODING -1
SWIDTH 600 0
DWIDTH 22 0
BBX 15 26 4 0
BITMAP
FFFE
FFFE
FFFE
E000
E000
E000
E000
E000
E000
E000
E000
FFFC
FFFC
FFFC
E000
E000
E000
E000
E000
E000
E000
E000
E000
FFFE
FFFE
FFFE
ENDCHAR
STARTCHAR uni0416
ENCODING -1
SWIDTH 600 0
DWIDTH 22 0
BBX 22 26 0 0
BITMAP
E0381C
70383C
703838
383878
383870
1C3870
0E38E0
0E38E0
0739C0
0739C0
03BB80
03BB80
01FF00
01FB80
03BB80
07BB80
0739C0
0F39C0
0E38E0
1C38E0
1C3870
383870
383878
703838
70383C
E0381C
ENDCHAR
STARTCHAR uni0417
ENCODING -1
SWIDTH 600 0
DWIDTH 22 0
BBX 17 26 2 0
BITMAP
07F000
3FFE00
FFFF00
780F00
000780
000780
000380
000780
000700
000F00
003E00
1FF800
1FF000
1FFC00
001F00
000F00
000780
000780
000380
000780
000780
000F00
C01F00
FFFE00
FFFC00
3FE000
ENDCHAR
STARTCHAR uni0418
ENCODING -1
SWIDTH 600 0
DWIDTH 22 0
BBX 18 26 2 0
BITMAP
E003C0
E007C0
E007C0
E00FC0
E00FC0
E01FC0
E01DC0
E03DC0
E039C0
E071C0
E071C0
E0E1C0
E0E1C0
E1C1C0
E1C1C0
E381C0
E381C0
E701C0
EF01C0
EE01C0
FE01C0
FC01C0
FC01C0
F801C0
F801C0
F001C0
ENDCHAR
STARTCHAR uni0419
ENCODING -1
SWIDTH 600 0
DWIDTH 22 0
BBX 18 34 2 0
BITMAP
1C0700
1C0700
1E0F00
0F1E00
07FC00
03F000
000000
000000
E003C0
E007C0
E007C0
E00FC0
E00FC0
E01FC0
E01DC0
E03DC0
E039C0
E071C0
E071C0
E0E1C0
E0E1C0
E1C1C0
E1C1C0
E381C0
E381C0
E701C0
EF01C0
EE01C0
FE01C0
FC01C0
FC01C0
F801C0
F801C0
F001C0
ENDCHAR
STARTCHAR uni041A
ENCODING -1
SWIDTH 600 0
DWIDTH 22 0
BBX 17 26 4 0
BITMAP
E00780
E00F00
E00E00
E01C00
E03C00
E07800
E0F000
E1E000
E1C000
E38000
E78000
EF0000
FE0000
EF0000
E70000
E78000
E3C000
E1E000
E0F000
E0F000
E07800
E03C00
E01E00
E01E00
E00F00
E00780
ENDCHAR
STARTCHAR uni041B
ENCODING -1
SWIDTH 600 0
DWIDTH 22 0
BBX 20 26 0 0
BITMAP
00FFF0
00FFF0
00FFF0
00E070
01E070
01E070
01E070
01E070
01E070
01C070
01C070
03C070
03C070
03C070
03C070
038070
038070
078070
078070
078070
070070
0F0070
1F0070
FE0070
FC0070
F80070
ENDCHAR
STARTCHAR uni041C
ENCODING -1
SWIDTH 600 0
DWIDTH 22 0
BBX 18 26 2 0
BITMAP
F807C0
F807C0
F807C0
D807C0
D806C0
DC0FC0
FC0FC0
FC0FC0
EC0DC0
EC1DC0
EE1DC0
EE1DC0
E619C0
E619C0
E639C0
E739C0
E731C0
E331C0
E331C0
E3F1C0
E3F1C0
E1E1C0
E1E1C0
E1E1C0
E1E1C0
E1C1C0
ENDCHAR
STARTCHAR uni041D
ENCODING -1
SWIDTH 600 0
DWIDTH 22 0
BBX 18 26 2 0
BITMAP
E001C0
E001C0
E001C0
E001C0
E001C0
E001C0
E001C0
E001C0
E001C0
E001C0
E001C0
FFFFC0
FFFFC0
FFFFC0
E001C0
E001C0
E001C0
E001C0
E001C0
E001C0
E001C0
E001C0
E001C0
E001C0
E001C0
E001C0
ENDCHAR
STARTCHAR uni041E
ENCODING -1
SWIDTH 600 0
DWIDTH 22 0
BBX 20 26 1 0
BITMAP
01F800
0FFE00
1FFF80
3E07C0
3C03C0
7801E0
7800E0
7000E0
F000F0
F000F0
F000F0
F000F0
E00070
E00070
F000F0
F000F0
F000F0
F000F0
7000E0
7801E0
7801E0
3C03C0
3E07C0
1FFF80
0FFE00
03F800
ENDCHAR
STARTCHAR uni041F
ENCODING -1
SWIDTH 600 0
DWIDTH 22 0
BBX 18 26 2 0
BITMAP
FFFFC0
FFFFC0
FFFFC0
E001C0
E001C0
E001C0
E001C0
E001C0
E001C0
E001C0
E001C0
E001C0
E001C0
E001C0
E001C0
E001C0
E001C0
E001C0
E001C0
E001C0
E001C0
E001C0
E001C0
E001C0
E001C0
E001C0
ENDCHAR
STARTCHAR uni0420
ENCODING -1
SWIDTH 600 0
DWIDTH 22 0
BBX 17 26 3 0
BITMAP
FFF000
FFFC00
FFFE00
E01F00
E00F00
E00780
E00780
E00380
E00780
E00780
E00780
E00F00
E03E00
FFFE00
FFF800
FFC000
E00000
E00000
E00000
E00000
E00000
E00000
E00000
E00000
E00000
E00000
ENDCHAR
STARTCHAR uni0421
ENCODING -1
SWIDTH 600 0
DWIDTH 22 0
BBX 19 26 2 0
BITMAP
00FF00
03FFE0
0FFFC0
1F80C0
3E0000
3C0000
780000
780000
700000
F00000
F00000
F00000
E00000
E00000
F00000
F00000
F00000
F00000
700000
780000
3C0000
3E0000
1F80C0
0FFFC0
07FFC0
00FF00
ENDCHAR
STARTCHAR uni0422
ENCODING -1
SWIDTH 600 0
DWIDTH 22 0
BBX 18 26 2 0
BITMAP
FFFFC0
FFFFC0
FFFFC0
01C000
01C000
01C000
01C000
01C000
01C000
01C000
01C000
01C000
01C000
01C000
01C000
01C000
01C000
01C000
01C000
01C000
01C000
01C000
01C000
01C000
01C000
01C000
ENDCHAR
STARTCHAR uni0423
ENCODING -1
SWIDTH 600 0
DWIDTH 22 0
BBX 21 26 0 0
BITMAP
F00078
700070
780070
3800E0
3C00E0
1C01E0
1E01C0
0E03C0
0F0380
070380
078700
038700
03CF00
01CE00
01CE00
00FC00
00FC00
007800
007800
007800
007000
00F000
41E000
7FC000
7F8000
7E0000
ENDCHAR
STARTCHAR uni0424
ENCODING -1
SWIDTH 600 0
DWIDTH 22 0
BBX 21 26 0 0
BITMAP
007000
007000
007000
07FF00
1FFFC0
3FFFE0
3C71E0
7870F0
707070
F07078
E07038
E07038
E07038
E07038
E07038
F07078
707070
7870F0
3C71E0
3FFFE0
0FFFC0
07FF00
007000
007000
007000
007000
ENDCHAR
STARTCHAR uni0425
ENCODING -1
SWIDTH 600 0
DWIDTH 22 0
BBX 20 26 1 0
BITMAP
7801E0
3801C0
3C03C0
1E0380
0E0700
0F0F00
070E00
079E00
039C00
01F800
01F800
00F000
00F000
01F800
01F800
039C00
039C00
070E00
0F0F00
0E0700
1C0780
1C0380
3803C0
7801E0
7001E0
F000F0
ENDCHAR
STARTCHAR uni0426
ENCODING -1
SWIDTH 600 0
DWIDTH 22 0
BBX 20 33 2 -7
BITMAP
E00380
E00380
E00380
E00380
E00380
E00380
E00380
E00380
E00380
E00380
E00380
E00380
E00380
E00380
E00380
E00380
E00380
E00380
E00380
E00380
E00380
E00380
E00380
FFFFF0
FFFFF0
FFFFF0
000070
000070
000070
000070
000070
000070
000070
ENDCHAR
STARTCHAR uni0427
ENCODING -1
SWIDTH 600 0
DWIDTH 22 0
BBX 18 26 2 0
BITMAP
E001C0
E001C0
E001C0
E001C0
E001C0
E001C0
E001C0
E001C0
E001C0
E001C0
E001C0
E001C0
F001C0
780FC0
7FFFC0
3FFFC0
0FE1C0
0001C0
0001C0
0001C0
0001C0
0001C0
0001C0
0001C0
0001C0
0001C0
ENDCHAR
STARTCHAR uni0428
ENCODING -1
SWIDTH 600 0
DWIDTH 22 0
BBX 18 26 2 0
BITMAP
E1C1C0
E1C1C0
E1C1C0
E1C1C0
E1C1C0
E1C1C0
E1C1C0
E1C1C0
E1C1C0
E1C1C0
E1C1C0
E1C1C0
E1C1C0
E1C1C0
E1C1C0
E1C1C0
E1C1C0
E1C1C0
E1C1C0
E1C1C0
E1C1C0
E1C1C0
E1C1C0
FFFFC0
FFFFC0
FFFFC0
ENDCHAR
STARTCHAR uni0429
ENCODING -1
SWIDTH 600 0
DWIDTH 22 0
BBX 21 33 1 -7
BITMAP
E1C1C0
E1C1C0
E1C1C0
E1C1C0
E1C1C0
E1C1C0
E1C1C0
E1C1C0
E1C1C0
E1C1C0
E1C1C0
E1C1C0
E1C1C0
E1C1C0
E1C1C0
E1C1C0
E1C1C0
E1C1C0
E1C1C0
E1C1C0
E1C1C0
E1C1C0
E1C1C0
FFFFF8
FFFFF8
FFFFF8
000038
000038
000038
000038
000038
000038
000038
ENDCHAR
STARTCHAR uni042A
ENCODING -1
SWIDTH 600 0
DWIDTH 22 0
BBX 20 26 0 0
BITMAP
FF0000
FF0000
FF0000
070000
070000
070000
070000
070000
070000
070000
070000
07FC00
07FF80
07FFC0
0703E0
0701E0
0700F0
0700F0
070070
0700F0
0700F0
0701E0
0703E0
07FFC0
07FF80
07FC00
ENDCHAR
STARTCHAR uni042B
ENCODING -1
SWIDTH 600 0
DWIDTH 22 0
BBX 18 26 2 0
BITMAP
E001C0
E001C0
E001C0
E001C0
E001C0
E001C0
E001C0
E001C0
E001C0
E001C0
E001C0
FF01C0
FFC1C0
FFE1C0
E0F1C0
E079C0
E039C0
E039C0
E039C0
E039C0
E039C0
E071C0
E0F1C0
FFE1C0
FFC1C0
FF01C0
ENDCHAR
STARTCHAR uni042C
ENCODING -1
SWIDTH 600 0
DWIDTH 22 0
BBX 17 26 3 0
BITMAP
E00000
E00000
E00000
E00000
E00000
E00000
E00000
E00000
E00000
E00000
E00000
FFE000
FFFC00
FFFE00
E01F00
E00780
E00780
E00780
E00380
E00780
E00780
E00F00
E01F00
FFFE00
FFFC00
FFF000
ENDCHAR
STARTCHAR uni042D
ENCODING -1
SWIDTH 600 0
DWIDTH 22 0
BBX 19 26 1 0
BITMAP
1FE000
FFF800
FFFE00
603F00
000F80
000780
0003C0
0001C0
0001E0
0001E0
0001E0
0FFFE0
0FFFE0
0FFFE0
0001E0
0001E0
0001E0
0001C0
0001C0
0003C0
000780
000F80
C03F00
FFFE00
FFF800
3FE000
ENDCHAR
STARTCHAR uni042E
ENCODING -1
SWIDTH 600 0
DWIDTH 22 0
BBX 19 26 2 0
BITMAP
E07E00
E0FF00
E1FF80
E3C3C0
E381C0
E381C0
E301C0
E700E0
E700E0
E700E0
E700E0
FF00E0
FF00E0
FF00E0
E700E0
E700E0
E700E0
E700E0
E700E0
E301C0
E381C0
E381C0
E3C3C0
E1FF80
E0FF00
E07E00
ENDCHAR
STARTCHAR uni042F
ENCODING -1
SWIDTH 600 0
DWIDTH 22 0
BBX 18 26 1 0
BITMAP
01FFC0
07FFC0
1FFFC0
1F01C0
3C01C0
3C01C0
3C01C0
3801C0
3C01C0
3C01C0
1E01C0
1F01C0
0FFFC0
03FFC0
01FFC0
03C1C0
0781C0
0781C0
0F01C0
0E01C0
1E01C0
3C01C0
3C01C0
7801C0
7801C0
F001C0
ENDCHAR
STARTCHAR uni0430
ENCODING -1
SWIDTH 600 0
DWIDTH 22 0
BBX 16 19 2 0
BITMAP
07F0
3FFC
3FFE
301F
000F
0007
0007
0007
03FF
1FFF
7F07
F007
F007
E00F
E00F
F01F
7FF7
3FE7
1FC3
ENDCHAR
STARTCHAR uni0431
ENCODING -1
SWIDTH 600 0
DWIDTH 22 0
BBX 16 27 3 0
BITMAP
0006
00FF
07FF
0FF0
1E00
3C00
7800
7000
7000
71F0
E7F8
EFFC
FC1E
F80E
F00F
E00F
E007
E007
E007
F007
700F
700E
780E
3C1E
1FFC
0FF8
07E0
ENDCHAR
STARTCHAR uni0432
ENCODING -1
SWIDTH 600 0
DWIDTH 22 0
BBX 17 19 3 0
BITMAP
FFF800
FFFE00
FFFE00
E00F00
E00700
E00700
E00700
E01E00
FFFC00
FFF800
FFFF00
E00700
E00380
E00380
E00380
E00780
FFFF00
FFFE00
FFF800
ENDCHAR
STARTCHAR uni0433
ENCODING -1
SWIDTH 600 0
DWIDTH 22 0
BBX 14 19 5 0
BITMAP
FFFC
FFFC
FFFC
E000
E000
E000
E000
E000
E000
E000
E000
E000
E000
E000
E000
E000
E000
E000
E000
ENDCHAR
STARTCHAR uni0434
ENCODING -1
SWIDTH 600 0
DWIDTH 22 0
BBX 20 26 1 -7
BITMAP
03FF80
03FF80
03FF80
038380
038380
038380
070380
070380
070380
070380
070380
0E0380
0E0380
1E0380
1C0380
3C0380
FFFFF0
FFFFF0
FFFFF0
E00070
E00070
E00070
E00070
E00070
E00070
E00070
ENDCHAR
STARTCHAR uni0435
ENCODING -1
SWIDTH 600 0
DWIDTH 22 0
BBX 18 19 2 0
BITMAP
03F800
0FFE00
1FFF00
3C0780
780380
7003C0
F001C0
E001C0
FFFFC0
FFFFC0
FFFFC0
E00000
F00000
700000
780000
3C0180
1FFF80
0FFF80
03FE00
ENDCHAR
STARTCHAR uni0436
ENCODING -1
SWIDTH 600 0
DWIDTH 22 0
BBX 22 19 0 0
BITMAP
E0381C
703838
383878
1C3870
1C38E0
0E38E0
0739C0
03BB80
03BB80
01FF00
03BB80
07BBC0
0739C0
0E38E0
1C38E0
3C3870
383878
703838
F0381C
ENDCHAR
STARTCHAR uni0437
ENCODING -1
SWIDTH 600 0
DWIDTH 22 0
BBX 15 19 4 0
BITMAP
3FC0
FFF0
FFF8
403C
001C
001C
001C
0078
1FF0
1FE0
1FF8
001C
000E
000E
000E
C01E
FFFC
FFF8
3FE0
ENDCHAR
STARTCHAR uni0438
ENCODING -1
SWIDTH 600 0
DWIDTH 22 0
BBX 16 19 3 0
BITMAP
E00F
E01F
E03F
E03F
E077
E077
E0E7
E0E7
E1C7
E3C7
E387
E707
E707
EE07
EE07
FC07
FC07
F807
F007
ENDCHAR
STARTCHAR uni0439
ENCODING -1
SWIDTH 600 0
DWIDTH 22 0
BBX 16 28 3 0
BITMAP
380E
380E
3C1E
1E3C
0FF8
07E0
0000
0000
0000
E00F
E01F
E03F
E03F
E077
E077
E0E7
E0E7
E1C7
E3C7
E387
E707
E707
EE07
EE07
FC07
FC07
F807
F007
ENDCHAR
STARTCHAR uni043A
ENCODING -1
SWIDTH 600 0
DWIDTH 22 0
BBX 17 19 4 0
BITMAP
E00F00
E01E00
E03C00
E07800
E0F000
E1E000
E3C000
E78000
EF0000
FE0000
EF0000
E78000
E3C000
E1E000
E0F000
E07800
E03C00
E01E00
E00F80
ENDCHAR
STARTCHAR uni043B
ENCODING -1
SWIDTH 600 0
DWIDTH 22 0
BBX 18 19 1 0
BITMAP
03FFC0
03FFC0
03FFC0
0381C0
0381C0
0701C0
0701C0
0701C0
0701C0
0701C0
0701C0
0F01C0
0E01C0
0E01C0
1E01C0
1C01C0
3C01C0
F801C0
F001C0
ENDCHAR
STARTCHAR uni043C
ENCODING -1
SWIDTH 600 0
DWIDTH 22 0
BBX 18 19 2 0
BITMAP
F003C0
F003C0
F807C0
F807C0
F807C0
FC0FC0
EC0DC0
EC0DC0
EE1DC0
E619C0
E619C0
E739C0
E331C0
E331C0
E3F1C0
E1E1C0
E1E1C0
E1E1C0
E0C1C0
ENDCHAR
STARTCHAR uni043D
ENCODING -1
SWIDTH 600 0
DWIDTH 22 0
BBX 16 19 3 0
BITMAP
E007
E007
E007
E007
E007
E007
E007
E007
FFFF
FFFF
FFFF
E007
E007
E007
E007
E007
E007
E007
E007
ENDCHAR
STARTCHAR uni043E
ENCODING -1
SWIDTH 600 0
DWIDTH 22 0
BBX 18 19 2 0
BITMAP
03F000
0FFC00
3FFE00
3C0F00
780780
700380
F003C0
E001C0
E001C0
E001C0
E001C0
E001C0
F003C0
700380
780780
3C0F00
1FFE00
0FFC00
03F000
ENDCHAR
STARTCHAR uni043F
ENCODING -1
SWIDTH 600 0
DWIDTH 22 0
BBX 16 19 3 0
BITMAP
FFFF
FFFF
FFFF
E007
E007
E007
E007
E007
E007
E007
E007
E007
E007
E007
E007
E007
E007
E007
E007
ENDCHAR
STARTCHAR uni0440
ENCODING -1
SWIDTH 600 0
DWIDTH 22 0
BBX 17 28 3 -9
BITMAP
E3F000
E7FC00
EFFE00
F81F00
F00F00
F00700
E00780
E00380
E00380
E00380
E00380
E00380
E00780
F00700
F00F00
F80F00
FFFE00
EFFC00
E3F000
E00000
E00000
E00000
E00000
E00000
E00000
E00000
E00000
E00000
ENDCHAR
STARTCHAR uni0441
ENCODING -1
SWIDTH 600 0
DWIDTH 22 0
BBX 16 19 3 0
BITMAP
03FC
0FFF
1FFE
3C02
7800
7000
F000
E000
E000
E000
E000
E000
F000
7000
7800
3C01
1FFF
0FFF
03FC
ENDCHAR
STARTCHAR uni0442
ENCODING -1
SWIDTH 600 0
DWIDTH 22 0
BBX 17 19 2 0
BITMAP
FFFF80
FFFF80
FFFF80
01C000
01C000
01C000
01C000
01C000
01C000
01C000
01C000
01C000
01C000
01C000
01C000
01C000
01C000
01C000
01C000
ENDCHAR
STARTCHAR uni0443
ENCODING -1
SWIDTH 600 0
DWIDTH 22 0
BBX 20 28 1 -9
BITMAP
F000F0
7000E0
7000E0
3801E0
3801C0
3C03C0
1C0380
1E0780
0E0700
0F0700
070F00
070E00
039E00
039C00
01DC00
01FC00
01F800
00F800
00F000
00F000
00E000
00E000
01E000
01C000
03C000
FF8000
FF0000
FC0000
ENDCHAR
STARTCHAR uni0444
ENCODING -1
SWIDTH 600 0
DWIDTH 22 0
BBX 20 36 1 -9
BITMAP
007000
007000
007000
007000
007000
007000
007000
007000
03FC00
0FFF00
3FFFC0
3C73C0
7070E0
7070E0
E07070
E07070
E07070
E07070
E07070
E07070
E07070
7070E0
7070E0
3C71E0
3FFFC0
0FFF00
03FC00
007000
007000
007000
007000
007000
007000
007000
007000
007000
ENDCHAR
STARTCHAR uni0445
ENCODING -1
SWIDTH 600 0
DWIDTH 22 0
BBX 18 19 2 0
BITMAP
700380
780780
3C0F00
1C0E00
0E1C00
0F3C00
07F800
03F000
01E000
01E000
03F000
03F000
073800
0F3C00
1E1E00
1C0E00
380700
780780
F003C0
ENDCHAR
STARTCHAR uni0446
ENCODING -1
SWIDTH 600 0
DWIDTH 22 0
BBX 18 26 3 -7
BITMAP
E00E00
E00E00
E00E00
E00E00
E00E00
E00E00
E00E00
E00E00
E00E00
E00E00
E00E00
E00E00
E00E00
E00E00
E00E00
E00E00
FFFFC0
FFFFC0
FFFFC0
0001C0
0001C0
0001C0
0001C0
0001C0
0001C0
0001C0
ENDCHAR
STARTCHAR uni0447
ENCODING -1
SWIDTH 600 0
DWIDTH 22 0
BBX 16 19 3 0
BITMAP
E007
E007
E007
E007
E007
E007
E007
E007
E00F
F01F
7FFF
3FF7
1F87
0007
0007
0007
0007
0007
0007
ENDCHAR
STARTCHAR uni0448
ENCODING -1
SWIDTH 600 0
DWIDTH 22 0
BBX 18 19 2 0
BITMAP
E0E1C0
E0E1C0
E0E1C0
E0E1C0
E0E1C0
E0E1C0
E0E1C0
E0E1C0
E0E1C0
E0E1C0
E0E1C0
E0E1C0
E0E1C0
E0E1C0
E0E1C0
E0E1C0
FFFFC0
FFFFC0
FFFFC0
ENDCHAR
STARTCHAR uni0449
ENCODING -1
SWIDTH 600 0
DWIDTH 22 0
BBX 20 26 2 -7
BITMAP
E0E1C0
E0E1C0
E0E1C0
E0E1C0
E0E1C0
E0E1C0
E0E1C0
E0E1C0
E0E1C0
E0E1C0
E0E1C0
E0E1C0
E0E1C0
E0E1C0
E0E1C0
E0E1C0
FFFFF0
FFFFF0
FFFFF0
000070
000070
000070
000070
000070
000070
000070
ENDCHAR
STARTCHAR uni044A
ENCODING -1
SWIDTH 600 0
DWIDTH 22 0
BBX 20 19 1 0
BITMAP
FFC000
FFC000
FFC000
01C000
01C000
01C000
01C000
01C000
01FF00
01FFC0
01FFE0
01C0F0
01C070
01C070
01C070
01C0F0
01FFE0
01FFC0
01FF00
ENDCHAR
STARTCHAR uni044B
ENCODING -1
SWIDTH 600 0
DWIDTH 22 0
BBX 18 19 2 0
BITMAP
E001C0
E001C0
E001C0
E001C0
E001C0
E001C0
E001C0
E001C0
FF81C0
FFE1C0
FFF1C0
E079C0
E039C0
E039C0
E039C0
E079C0
FFF1C0
FFE1C0
FF81C0
ENDCHAR
STARTCHAR uni044C
ENCODING -1
SWIDTH 600 0
DWIDTH 22 0
BBX 16 19 4 0
BITMAP
E000
E000
E000
E000
E000
E000
E000
E000
FFF0
FFFC
FFFE
E00F
E007
E007
E007
E00F
FFFE
FFFC
FFF0
ENDCHAR
STARTCHAR uni044D
ENCODING -1
SWIDTH 600 0
DWIDTH 22 0
BBX 16 19 3 0
BITMAP
3FC0
FFF0
FFFC
403C
001E
000E
000F
0007
1FFF
1FFF
1FFF
0007
000F
000E
001E
803C
FFF8
FFF0
3FC0
ENDCHAR
STARTCHAR uni044E
ENCODING -1
SWIDTH 600 0
DWIDTH 22 0
BBX 19 19 2 0
BITMAP
E03E00
E0FF00
E0FF80
E1C1C0
E1C1C0
E380E0
E380E0
E380E0
FF80E0
FF80E0
FF80E0
E380E0
E380E0
E380E0
E1C1C0
E1C1C0
E0FF80
E0FF80
E03E00
ENDCHAR
STARTCHAR uni044F
ENCODING -1
SWIDTH 600 0
DWIDTH 22 0
BBX 17 19 2 0
BITMAP
07FF80
1FFF80
3FFF80
780380
700380
700380
700380
780380
3C0380
3FFF80
0FFF80
07FF80
0F0380
0E0380
1C0380
3C0380
380380
700380
F00380
ENDCHAR
STARTCHAR uni0451
ENCODING -1
SWIDTH 600 0
DWIDTH 22 0
BBX 18 27 2 0
BITMAP
070E00
070E00
070E00
070E00
000000
000000
000000
000000
03F800
0FFE00
1FFF00
3C0780
780380
7003C0
F001C0
E001C0
FFFFC0
FFFFC0
FFFFC0
E00000
F00000
700000
780000
3C0180
1FFF80
0FFF80
03FE00
ENDCHAR
STARTCHAR uni0452
ENCODING -1
SWIDTH 600 0
DWIDTH 22 0
BBX 19 36 0 -9
BITMAP
1C0000
1C0000
1C0000
FFF800
FFF800
1C0000
1C0000
1C0000
1C7E00
1DFF80
1DFFC0
1F03C0
1E01E0
1E00E0
1E00E0
1C00E0
1C00E0
1C00E0
1C00E0
1C00E0
1C00E0
1C00E0
1C00E0
1C00E0
1C00E0
1C00E0
1C00E0
0000E0
0000E0
0000E0
0000E0
0000E0
0001E0
000FC0
000FC0
000F80
ENDCHAR
STARTCHAR uni0453
ENCODING -1
SWIDTH 600 0
DWIDTH 22 0
BBX 14 28 5 0
BITMAP
00F0
01E0
01E0
03C0
0380
0700
0000
0000
0000
FFFC
FFFC
FFFC
E000
E000
E000
E000
E000
E000
E000
E000
E000
E000
E000
E000
E000
E000
E000
E000
ENDCHAR
STARTCHAR uni0454
ENCODING -1
SWIDTH 600 0
DWIDTH 22 0
BBX 16 19 3 0
BITMAP
03FE
0FFF
1FFF
3C02
7800
7000
F000
E000
FFF8
FFF8
FFF8
E000
F000
7000
7800
3C01
1FFF
0FFF
03FC
ENDCHAR
STARTCHAR uni0455
ENCODING -1
SWIDTH 600 0
DWIDTH 22 0
BBX 14 19 4 0
BITMAP
0FF0
3FFC
7FFC
F008
E000
E000
F000
7C00
3F80
0FE0
03F8
0078
003C
001C
001C
C03C
FFF8
FFF0
3FC0
ENDCHAR
STARTCHAR uni0456
ENCODING -1
SWIDTH 600 0
DWIDTH 22 0
BBX 15 27 4 0
BITMAP
0380
0380
0380
0380
0000
0000
0000
0000
7F80
7F80
0380
0380
0380
0380
0380
0380
0380
0380
0380
0380
0380
0380
0380
0380
03C0
FFFE
FFFE
ENDCHAR
STARTCHAR uni0457
ENCODING -1
SWIDTH 600 0
DWIDTH 22 0
BBX 15 27 4 0
BITMAP
1C38
1C38
1C38
1C38
0000
0000
0000
0000
7F80
7F80
0380
0380
0380
0380
0380
0380
0380
0380
0380
0380
0380
0380
0380
0380
03C0
FFFE
FFFE
ENDCHAR
STARTCHAR uni0458
ENCODING -1
SWIDTH 600 0
DWIDTH 22 0
BBX 13 36 2 -9
BITMAP
0030
0078
0078
0030
0000
0000
0000
0000
3FF8
3FF8
0078
0038
0038
0038
0038
0038
0038
0038
0038
0038
0038
0038
0038
0038
0038
0038
0038
0038
0038
0038
0038
0078
00F0
FFF0
FFE0
7F80
ENDCHAR
STARTCHAR uni0459
ENCODING -1
SWIDTH 600 0
DWIDTH 22 0
BBX 21 19 0 0
BITMAP
0FF800
0FF800
0FF800
0E3800
0C3800
0C3800
1C3800
1C3800
1C3FC0
1C3FE0
1C3FF0
1C3878
1C3838
1C3838
183838
383878
383FF0
F83FE0
F03F80
ENDCHAR
STARTCHAR uni045A
ENCODING -1
SWIDTH 600 0
DWIDTH 22 0
BBX 19 19 2 0
BITMAP
E0E000
E0E000
E0E000
E0E000
E0E000
E0E000
E0E000
E0E000
FFFF00
FFFF80
FFFFC0
E0E1E0
E0E0E0
E0E0E0
E0E0E0
E0E1E0
E0FFC0
E0FF80
E0FE00
ENDCHAR
STARTCHAR uni045B
ENCODING -1
SWIDTH 600 0
DWIDTH 22 0
BBX 19 27 0 0
BITMAP
1C0000
1C0000
1C0000
FFFC00
FFFC00
1C0000
1C0000
1C0000
1C7E00
1DFF80
1DFFC0
1F03C0
1E01E0
1E00E0
1E00E0
1C00E0
1C00E0
1C00E0
1C00E0
1C00E0
1C00E0
1C00E0
1C00E0
1C00E0
1C00E0
1C00E0
1C00E0
ENDCHAR
STARTCHAR uni045C
ENCODING -1
SWIDTH 600 0
DWIDTH 22 0
BBX 17 28 4 0
BITMAP
00F000
01E000
01E000
03C000
038000
070000
000000
000000
000000
E00700
E00E00
E01C00
E03800
E07000
E1E000
E3C000
E78000
EF0000
EF0000
FF8000
F3C000
E1E000
E0F000
E07800
E03C00
E01E00
E00F00
E00780
ENDCHAR
STARTCHAR uni045E
ENCODING -1
SWIDTH 600 0
DWIDTH 22 0
BBX 20 37 1 -9
BITMAP
0E0380
0E0380
0F0780
078F00
03FE00
01F800
000000
000000
000000
F000F0
7000E0
7000E0
3801E0
3801C0
3C03C0
1C0380
1E0780
0E0700
0F0700
070F00
070E00
039E00
039C00
01DC00
01FC00
01F800
00F800
00F000
00F000
00E000
00E000
01E000
01C000
03C000
FF8000
FF0000
FC0000
ENDCHAR
STARTCHAR uni045F
ENCODING -1
SWIDTH 600 0
DWIDTH 22 0
BBX 16 26 3 -7
BITMAP
E007
E007
E007
E007
E007
E007
E007
E007
E007
E007
E007
E007
E007
E007
E007
E007
FFFF
FFFF
FFFF
01C0
01C0
01C0
01C0
01C0
01C0
01C0
ENDCHAR
STARTCHAR uni0490
ENCODING -1
SWIDTH 600 0
DWIDTH 22 0
BBX 15 31 4 0
BITMAP
000E
000E
000E
000E
000E
FFFE
FFFE
FFFE
E000
E000
E000
E000
E000
E000
E000
E000
E000
E000
E000
E000
E000
E000
E000
E000
E000
E000
E000
E000
E000
E000
E000
ENDCHAR
STARTCHAR uni0491
ENCODING -1
SWIDTH 600 0
DWIDTH 22 0
BBX 13 25 5 0
BITMAP
0038
0038
0038
0038
0038
0038
FFF8
FFF8
E000
E000
E000
E000
E000
E000
E000
E000
E000
E000
E000
E000
E000
E000
E000
E000
E000
ENDCHAR
STARTCHAR Wgrave
ENCODING -1
SWIDTH 600 0
DWIDTH 22 0
BBX 22 34 0 0
BITMAP
03C000
01E000
01E000
00F000
007000
003800
000000
000000
E0001C
E0001C
E0001C
E0001C
700018
700038
700038
700038
707838
707838
707838
30FC38
38FC30
38CC70
38CC70
39CE70
39CE70
398670
1B8770
1B8760
1B0360
1B0360
1B03E0
1F03E0
1E01E0
1E01E0
ENDCHAR
STARTCHAR wgrave
ENCODING -1
SWIDTH 600 0
DWIDTH 22 0
BBX 22 28 0 0
BITMAP
03C000
01E000
01E000
00F000
007000
003800
000000
000000
000000
E0781C
E0781C
60781C
60FC18
70FC38
70CC38
70CC38
31CE38
31CE30
39CE70
398670
398670
1B8770
1B8760
1B0360
1B0360
1F03E0
0F03C0
0E01C0
ENDCHAR
STARTCHAR Wacute
ENCODING -1
SWIDTH 600 0
DWIDTH 22 0
BBX 22 34 0 0
BITMAP
000F00
001E00
001E00
003C00
003800
007000
000000
000000
E0001C
E0001C
E0001C
E0001C
700018
700038
700038
700038
707838
707838
707838
30FC38
38FC30
38CC70
38CC70
39CE70
39CE70
398670
1B8770
1B8760
1B0360
1B0360
1B03E0
1F03E0
1E01E0
1E01E0
ENDCHAR
STARTCHAR wacute
ENCODING -1
SWIDTH 600 0
DWIDTH 22 0
BBX 22 28 0 0
BITMAP
000780
000F00
000F00
001E00
001C00
003800
000000
000000
000000
E0781C
E0781C
60781C
60FC18
70FC38
70CC38
70CC38
31CE38
31CE30
39CE70
398670
398670
1B8770
1B8760
1B0360
1B0360
1F03E0
0F03C0
0E01C0
ENDCHAR
STARTCHAR Wdieresis
ENCODING -1
SWIDTH 600 0
DWIDTH 22 0
BBX 22 33 0 0
BITMAP
038700
038700
038700
038700
000000
000000
000000
E0001C
E0001C
E0001C
E0001C
700018
700038
700038
700038
707838
707838
707838
30FC38
38FC30
38CC70
38CC70
39CE70
39CE70
398670
1B8770
1B8760
1B0360
1B0360
1B03E0
1F03E0
1E01E0
1E01E0
ENDCHAR
STARTCHAR wdieresis
ENCODING -1
SWIDTH 600 0
DWIDTH 22 0
BBX 22 27 0 0
BITMAP
038700
038700
038700
038700
000000
000000
000000
000000
E0781C
E0781C
60781C
60FC18
70FC38
70CC38
70CC38
31CE38
31CE30
39CE70
398670
398670
1B8770
1B8760
1B0360
1B0360
1F03E0
0F03C0
0E01C0
ENDCHAR
STARTCHAR Ygrave
ENCODING -1
SWIDTH 600 0
DWIDTH 22 0
BBX 21 34 0 0
BITMAP
078000
03C000
03C000
01E000
00E000
007000
000000
000000
F00078
700070
7800F0
3800E0
1C01E0
1C01C0
0E0380
0F0380
070700
078700
038E00
03CE00
01DC00
00FC00
00F800
007800
007000
007000
007000
007000
007000
007000
007000
007000
007000
007000
ENDCHAR
STARTCHAR ygrave
ENCODING -1
SWIDTH 600 0
DWIDTH 22 0
BBX 20 37 1 -9
BITMAP
078000
03C000
03C000
01E000
00E000
007000
000000
000000
000000
F000F0
7000E0
7000E0
3801E0
3801C0
3C03C0
1C0380
1E0780
0E0700
0F0700
070F00
070E00
039E00
039C00
01DC00
01FC00
01F800
00F800
00F000
00F000
00E000
00E000
01E000
01C000
03C000
FF8000
FF0000
FC0000
ENDCHAR
STARTCHAR endash
ENCODING -1
SWIDTH 600 0
DWIDTH 22 0
BBX 16 3 3 8
BITMAP
FFFF
FFFF
FFFF
ENDCHAR
STARTCHAR emdash
ENCODING -1
SWIDTH 600 0
DWIDTH 22 0
BBX 22 3 0 8
BITMAP
FFFFFC
FFFFFC
FFFFFC
ENDCHAR
STARTCHAR uni2015
ENCODING -1
SWIDTH 600 0
DWIDTH 22 0
BBX 22 3 0 8
BITMAP
FFFFFC
FFFFFC
FFFFFC
ENDCHAR
STARTCHAR underscoredbl
ENCODING -1
SWIDTH 600 0
DWIDTH 22 0
BBX 22 7 0 -8
BITMAP
FFFFFC
FFFFFC
000000
000000
000000
FFFFFC
FFFFFC
ENDCHAR
STARTCHAR quoteleft
ENCODING -1
SWIDTH 600 0
DWIDTH 22 0
BBX 6 9 8 17
BITMAP
1C
3C
38
38
78
78
78
F0
F0
ENDCHAR
STARTCHAR quoteright
ENCODING -1
SWIDTH 600 0
DWIDTH 22 0
BBX 6 9 8 17
BITMAP
3C
3C
78
78
78
70
70
E0
E0
ENDCHAR
STARTCHAR quotesinglbase
ENCODING -1
SWIDTH 600 0
DWIDTH 22 0
BBX 6 10 8 -6
BITMAP
3C
3C
78
78
78
70
70
70
E0
E0
ENDCHAR
STARTCHAR quotereversed
ENCODING -1
SWIDTH 600 0
DWIDTH 22 0
BBX 6 9 8 17
BITMAP
F0
F0
78
78
78
38
38
3C
1C
ENDCHAR
STARTCHAR quotedblleft
ENCODING -1
SWIDTH 600 0
DWIDTH 22 0
BBX 13 9 4 17
BITMAP
1C38
3C78
3870
3870
78F0
78F0
78F0
F1E0
F1E0
ENDCHAR
STARTCHAR quotedblright
ENCODING -1
SWIDTH 600 0
DWIDTH 22 0
BBX 13 9 4 17
BITMAP
3C78
3C78
78F0
78F0
78F0
70E0
70E0
E1C0
E1C0
ENDCHAR
STARTCHAR quotedblbase
ENCODING -1
SWIDTH 600 0
DWIDTH 22 0
BBX 13 10 4 -6
BITMAP
3C78
3C78
78F0
78F0
78F0
70E0
70E0
70E0
E1C0
E1C0
ENDCHAR
STARTCHAR dagger
ENCODING -1
SWIDTH 600 0
DWIDTH 22 0
BBX 14 27 4 0
BITMAP
0780
0780
0780
0700
0300
0300
0300
FFFC
FFFC
FFFC
0300
0300
0300
0300
0300
0300
0300
0300
0700
0700
0700
0700
0780
0780
0780
0780
0780
ENDCHAR
STARTCHAR daggerdbl
ENCODING -1
SWIDTH 600 0
DWIDTH 22 0
BBX 14 27 4 0
BITMAP
0780
0780
0700
0300
0300
0300
FFFC
FFFC
FFFC
0300
0300
0700
0780
0780
0780
0700
0300
0300
FFFC
FFFC
FFFC
0300
0300
0300
0700
0780
0780
ENDCHAR
STARTCHAR bullet
ENCODING -1
SWIDTH 600 0
DWIDTH 22 0
BBX 8 9 7 9
BITMAP
3C
7E
FF
FF
FF
FF
FF
7E
3C
ENDCHAR
STARTCHAR ellipsis
ENCODING -1
SWIDTH 600 0
DWIDTH 22 0
BBX 18 5 2 -1
BITMAP
70E1C0
F1E3C0
F1E3C0
F1E3C0
70E1C0
ENDCHAR
STARTCHAR perthousand
ENCODING -1
SWIDTH 600 0
DWIDTH 22 0
BBX 21 26 0 0
BITMAP
3E0000
7F0000
E30000
E38000
E38000
E38000
E38000
E38000
638000
7F1000
3E7800
03E000
0F8000
3E0000
F00000
43C1E0
07E3F0
0E7738
0E7738
0E7738
0E7738
0E7738
0E7738
0E7738
07E3F0
03C1E0
ENDCHAR
STARTCHAR minute
ENCODING -1
SWIDTH 600 0
DWIDTH 22 0
BBX 4 10 9 16
BITMAP
F0
F0
F0
F0
F0
F0
F0
70
70
70
ENDCHAR
STARTCHAR second
ENCODING -1
SWIDTH 600 0
DWIDTH 22 0
BBX 11 10 5 16
BITMAP
F1E0
F1E0
F1E0
F1E0
F1E0
F1E0
F1E0
70E0
70E0
70E0
ENDCHAR
STARTCHAR guilsinglleft
ENCODING -1
SWIDTH 600 0
DWIDTH 22 0
BBX 7 15 8 2
BITMAP
04
0E
1C
1C
38
78
70
E0
70
78
38
1C
1C
0E
04
ENDCHAR
STARTCHAR guilsinglright
ENCODING -1
SWIDTH 600 0
DWIDTH 22 0
BBX 7 15 8 2
BITMAP
40
E0
70
70
38
3C
1C
0E
1C
3C
38
70
70
E0
40
ENDCHAR
STARTCHAR exclamdbl
ENCODING -1
SWIDTH 600 0
DWIDTH 22 0
BBX 12 27 5 -1
BITMAP
F0F0
F0F0
F0F0
F0F0
7070
7070
7070
7070
7070
7070
7070
7070
7070
7070
7070
6060
6060
6060
6060
0000
0000
0000
7070
F0F0
F0F0
F0F0
7070
ENDCHAR
STARTCHAR fraction
ENCODING -1
SWIDTH 600 0
DWIDTH 22 0
BBX 16 26 3 0
BITMAP
0007
000E
000E
001C
001C
0038
0038
0070
0070
00E0
00E0
01C0
01C0
0380
0380
0700
0700
0E00
0E00
1C00
1C00
3800
3800
7000
7000
E000
ENDCHAR
STARTCHAR uni207F
ENCODING -1
SWIDTH 600 0
DWIDTH 22 0
BBX 10 12 6 14
BITMAP
CF00
DF80
F1C0
E1C0
E1C0
E1C0
E1C0
E1C0
E1C0
E1C0
E1C0
E1C0
ENDCHAR
STARTCHAR franc
ENCODING -1
SWIDTH 600 0
DWIDTH 22 0
BBX 17 26 2 0
BITMAP
1FFF80
1FFF80
1FFF80
1C0000
1C0000
1C0000
1C0000
1C0000
1C0000
1C0000
1C0000
1C0000
1FFF00
1FFF00
1FFF00
1C0000
1C0000
1C0000
FFF000
FFF000
FFF000
1C0000
1C0000
1C0000
1C0000
1C0000
ENDCHAR
STARTCHAR lira
ENCODING -1
SWIDTH 600 0
DWIDTH 22 0
BBX 18 26 2 0
BITMAP
00FE00
03FF80
07FF80
078100
0F0000
0E0000
0E0000
0E0000
0E0000
0E0000
FFFC00
FFFC00
FFFC00
0E0000
0E0000
FFFC00
FFFC00
FFFC00
0E0000
0E0000
0E0000
1C0000
380000
FFFFC0
FFFFC0
FFFFC0
ENDCHAR
STARTCHAR peseta
ENCODING -1
SWIDTH 600 0
DWIDTH 22 0
BBX 20 26 1 0
BITMAP
FF0000
FFC000
FFE000
E1E000
E0F000
E07000
E07000
E07000
E07100
E07300
E0F300
E0E300
E1E7F0
FFCFF0
FF8FF0
F00300
E00300
E00300
E00300
E00300
E00300
E00300
E00300
E003F0
E003F0
E001F0
ENDCHAR
STARTCHAR Euro
ENCODING -1
SWIDTH 600 0
DWIDTH 22 0
BBX 19 26 1 0
BITMAP
003F00
01FFE0
03FFC0
07C0C0
078000
0F0000
0E0000
1E0000
1E0000
FFFC00
FFFC00
1C0000
1C0000
1C0000
1C0000
FFF800
FFF800
1E0000
0E0000
0E0000
0F0000
078000
07C040
03FFC0
01FFC0
003F80
ENDCHAR
STARTCHAR uni2105
ENCODING -1
SWIDTH 600 0
DWIDTH 22 0
BBX 22 26 0 0
BITMAP
1F80E0
3F81C0
7081C0
E00380
E00380
E00700
E00700
E00E00
E00E00
701C00
3F9C00
1FB800
003800
007000
0071E0
00E7F0
00E738
01CE1C
01CE1C
038E1C
038E1C
070E1C
070E1C
0E0738
0E07F8
1C01E0
ENDCHAR
STARTCHAR uni2113
ENCODING -1
SWIDTH 600 0
DWIDTH 22 0
BBX 13 26 5 0
BITMAP
07C0
0FE0
1E70
1C70
1C30
1C30
1C70
1C70
1C60
1C60
1CC0
1DC0
1F00
1E00
FC00
FC00
1C00
1C00
1C00
1C00
1C18
1C38
1E38
0FF0
0FF0
03C0
ENDCHAR
STARTCHAR uni2116
ENCODING -1
SWIDTH 600 0
DWIDTH 22 0
BBX 22 26 0 0
BITMAP
E03000
F03000
F03000
F03000
F83000
F83000
D83000
D83000
DC3000
CC31F0
CC33F8
CE3318
C6371C
C6360C
C7360C
C3360C
C3360C
C3B71C
C1B318
C1B3F8
C1F1F0
C1F000
C0F000
C0F3F8
C0F3F8
C073F8
ENDCHAR
STARTCHAR trademark
ENCODING -1
SWIDTH 600 0
DWIDTH 22 0
BBX 21 13 0 13
BITMAP
FF7838
FF7878
187878
187878
186CD8
186CD8
186CD8
186C98
186798
186798
186798
186318
186318
ENDCHAR
STARTCHAR Omega
ENCODING -1
SWIDTH 600 0
DWIDTH 22 0
BBX 19 26 2 0
BITMAP
03F800
0FFE00
1FFF00
3E0F80
380380
7803C0
7001C0
F001E0
F001E0
F001E0
F001E0
E000E0
E001E0
F001E0
F001E0
F001E0
7001C0
7001C0
7803C0
380380
3C0780
1C0700
0E0E00
FF1FE0
FF1FE0
FF1FE0
ENDCHAR
STARTCHAR estimated
ENCODING -1
SWIDTH 600 0
DWIDTH 22 0
BBX 19 19 1 0
BITMAP
03F800
0FFE00
180300
300180
7001C0
7001C0
F001E0
F001E0
FFFFE0
FFFFE0
F00000
F00000
F00000
700080
7000C0
300180
1C0700
0FFE00
03F800
ENDCHAR
STARTCHAR oneeighth
ENCODING -1
SWIDTH 600 0
DWIDTH 22 0
BBX 21 26 0 0
BITMAP
1E01C0
3E0380
FE0380
4E0700
0E0700
0E0E00
0E0E00
0E1C00
0E1C00
0E3800
0E3800
0E7000
0E77E0
0EEFF0
00FC38
01DC38
01DC38
038EF0
0387C0
070FE0
071C70
0E1C38
0E1C38
1C1C38
1C0FF0
3807E0
ENDCHAR
STARTCHAR threeeighths
ENCODING -1
SWIDTH 600 0
DWIDTH 22 0
BBX 21 26 0 0
BITMAP
3E00E0
FF01C0
4381C0
038380
038380
030700
3E0700
3F0E00
038E00
039C00
039C00
83B800
FF3FE0
7E7FF0
007C38
00FC38
00FC38
01CEF0
01C7C0
038FE0
039C70
071C38
071C38
0E1C38
0E0FF0
1C07E0
ENDCHAR
STARTCHAR fiveeighths
ENCODING -1
SWIDTH 600 0
DWIDTH 22 0
BBX 20 26 1 0
BITMAP
FF01C0
FF0380
C00380
C00700
C00700
FE0E00
FF0E00
039C00
039C00
03B800
03B800
87F000
FF7FC0
7CFFE0
00F870
01F870
01F870
039DE0
038F80
071FC0
0738E0
0E3870
0E3870
1C3870
1C1FE0
380FC0
ENDCHAR
STARTCHAR seveneighths
ENCODING -1
SWIDTH 600 0
DWIDTH 22 0
BBX 21 26 0 0
BITMAP
FFC1C0
FFC380
01C380
018700
038700
030E00
070E00
071C00
0E1C00
0E3800
0C3800
1C7000
1877E0
38EFF0
00FC38
01DC38
01DC38
038EF0
0387C0
070FE0
071C70
0E1C38
0E1C38
1C1C38
1C0FF0
3807E0
ENDCHAR
STARTCHAR partialdiff
ENCODING -1
SWIDTH 600 0
DWIDTH 22 0
BBX 18 26 2 0
BITMAP
01F800
07FE00
07FF00
040780
000380
0003C0
0001C0
0001C0
03F1C0
0FFDC0
1FFFC0
3E07C0
3C03C0
7803C0
7003C0
F00380
F00380
E00780
E00700
E00F00
E00E00
F01E00
703C00
7FF800
3FF000
1FC000
ENDCHAR
STARTCHAR Delta
ENCODING -1
SWIDTH 600 0
DWIDTH 22 0
BBX 20 26 1 0
BITMAP
00F000
00F000
01F800
01F800
01F800
03BC00
039C00
039C00
079E00
070E00
070E00
0F0F00
0E0700
0E0700
1E0780
1C0380
1C0380
3803C0
3801C0
3801C0
7000E0
7000E0
7000E0
FFFFF0
FFFFF0
FFFFF0
ENDCHAR
STARTCHAR product
ENCODING -1
SWIDTH 600 0
DWIDTH 22 0
BBX 17 35 3 -9
BITMAP
FFFF80
FFFF80
FFFF80
E00380
E00380
E00380
E00380
E00380
E00380
E00380
E00380
E00380
E00380
E00380
E00380
E00380
E00380
E00380
E00380
E00380
E00380
E00380
E00380
E00380
E00380
E00380
E00380
E00380
E00380
E00380
E00380
E00380
E00380
E00380
E00380
ENDCHAR
STARTCHAR summation
ENCODING -1
SWIDTH 600 0
DWIDTH 22 0
BBX 20 35 1 -9
BITMAP
FFFFE0
FFFFE0
7FFFE0
780000
3C0000
1E0000
0F0000
0F0000
078000
03C000
01E000
01E000
00F000
007800
003800
003C00
001E00
003C00
003C00
007800
00F000
00F000
01E000
03C000
03C000
078000
0F0000
0F0000
1E0000
3C0000
3C0000
780000
FFFFF0
FFFFF0
FFFFF0
ENDCHAR
STARTCHAR minus
ENCODING -1
SWIDTH 600 0
DWIDTH 22 0
BBX 16 3 3 11
BITMAP
FFFF
FFFF
FFFF
ENDCHAR
STARTCHAR radical
ENCODING -1
SWIDTH 600 0
DWIDTH 22 0
BBX 22 30 0 0
BITMAP
00001C
000018
000038
000038
000030
000070
000070
000060
0000E0
0000C0
0001C0
0001C0
000180
000380
F80380
FC0700
1C0700
1C0600
0E0E00
0E0E00
071C00
071C00
071800
03B800
03B800
01B000
01F000
01F000
00E000
00E000
ENDCHAR
STARTCHAR infinity
ENCODING -1
SWIDTH 600 0
DWIDTH 22 0
BBX 20 11 1 7
BITMAP
1E0780
7F0FE0
7B9FE0
E1F870
E0F070
C06030
E0F070
E1F870
7B9CE0
7F1FE0
1E07C0
ENDCHAR
STARTCHAR integral
ENCODING -1
SWIDTH 600 0
DWIDTH 22 0
BBX 13 36 5 -9
BITMAP
00F8
03F8
03D8
0700
0700
0700
0700
0700
0700
0700
0700
0700
0700
0700
0700
0700
0700
0700
0700
0700
0700
0700
0700
0700
0700
0700
0700
0700
0700
0700
0700
0600
0E00
BE00
FC00
F800
ENDCHAR
STARTCHAR approxequal
ENCODING -1
SWIDTH 600 0
DWIDTH 22 0
BBX 16 12 3 7
BITMAP
3E01
FF83
FFFF
C1FF
807C
0000
0000
3E00
FF83
FFFF
C1FF
007C
ENDCHAR
STARTCHAR notequal
ENCODING -1
SWIDTH 600 0
DWIDTH 22 0
BBX 16 20 3 3
BITMAP
0030
0038
0030
0070
0070
FFFF
FFFF
FFFF
01C0
01C0
0380
0380
FFFF
FFFF
FFFF
0E00
0E00
0C00
1C00
0C00
ENDCHAR
STARTCHAR lessequal
ENCODING -1
SWIDTH 600 0
DWIDTH 22 0
BBX 16 22 3 0
BITMAP
0001
0007
001F
007E
01F8
07E0
1F80
7E00
F800
F800
7E00
1F80
07E0
01F8
007E
001F
0007
0001
0000
FFFF
FFFF
FFFF
ENDCHAR
STARTCHAR greaterequal
ENCODING -1
SWIDTH 600 0
DWIDTH 22 0
BBX 16 22 3 0
BITMAP
8000
E000
F800
7E00
1F80
07E0
01F8
007E
001F
001F
007E
01F8
07E0
1F80
7E00
F800
E000
8000
0000
FFFF
FFFF
FFFF
ENDCHAR
STARTCHAR lozenge
ENCODING -1
SWIDTH 600 0
DWIDTH 22 0
BBX 18 26 2 0
BITMAP
00C000
01E000
01E000
03F000
07F800
073800
0E1C00
0E1C00
1C0E00
380700
380700
700380
F003C0
F003C0
700380
380700
380700
1C0E00
1E1C00
0E1C00
073800
07F800
03F000
01E000
01E000
00C000
ENDCHAR
STARTCHAR uniFB01
ENCODING -1
SWIDTH 600 0
DWIDTH 22 0
BBX 18 27 1 0
BITMAP
03F000
0FF9C0
0FF1C0
1E01C0
1C01C0
1C0000
1C0000
1C0000
7FE1C0
FFE1C0
1C01C0
1C01C0
1C01C0
1C01C0
1C01C0
1C01C0
1C01C0
1C01C0
1C01C0
1C01C0
1C01C0
1C01C0
1C01C0
1C01C0
1C01C0
1C01C0
1C01C0
ENDCHAR
STARTCHAR uniFB02
ENCODING -1
SWIDTH 600 0
DWIDTH 22 0
BBX 18 27 1 0
BITMAP
03F1C0
0FF9C0
0FF1C0
1E01C0
1C01C0
1C01C0
1C01C0
1C01C0
7FE1C0
FFE1C0
1C01C0
1C01C0
1C01C0
1C01C0
1C01C0
1C01C0
1C01C0
1C01C0
1C01C0
1C01C0
1C01C0
1C01C0
1C01C0
1C01C0
1C01C0
1C01C0
1C01C0
ENDCHAR
STARTCHAR glyph566
ENCODING -1
SWIDTH 600 0
DWIDTH 22 0
BBX 13 6 5 22
BITMAP
E038
E038
F078
78F0
3FE0
1F80
ENDCHAR
STARTCHAR glyph567
ENCODING -1
SWIDTH 600 0
DWIDTH 22 0
BBX 13 28 2 -9
BITMAP
3FF8
3FF8
0078
0038
0038
0038
0038
0038
0038
0038
0038
0038
0038
0038
0038
0038
0038
0038
0038
0038
0038
0038
0038
0078
00F0
FFF0
FFE0
7F80
ENDCHAR
STARTCHAR glyph568
ENCODING -1
SWIDTH 600 0
DWIDTH 22 0
BBX 4 6 9 21
BITMAP
70
70
60
E0
C0
C0
ENDCHAR
STARTCHAR glyph569
ENCODING -1
SWIDTH 600 0
DWIDTH 22 0
BBX 5 6 8 -8
BITMAP
38
78
70
70
E0
C0
ENDCHAR
STARTCHAR glyph570
ENCODING -1
SWIDTH 600 0
DWIDTH 22 0
BBX 5 6 8 22
BITMAP
18
38
70
70
F0
F0
ENDCHAR
STARTCHAR glyph571
ENCODING -1
SWIDTH 600 0
DWIDTH 22 0
BBX 11 14 5 12
BITMAP
01C0
03C0
07C0
0FC0
0DC0
19C0
39C0
71C0
61C0
FFE0
FFE0
01C0
01C0
01C0
ENDCHAR
STARTCHAR glyph572
ENCODING -1
SWIDTH 600 0
DWIDTH 22 0
BBX 9 14 6 12
BITMAP
FF00
FF00
C000
C000
C000
FE00
FF00
0380
0380
0380
0380
8780
FF00
7C00
ENDCHAR
STARTCHAR glyph573
ENCODING -1
SWIDTH 600 0
DWIDTH 22 0
BBX 10 14 6 12
BITMAP
FFC0
FFC0
01C0
0180
0380
0300
0700
0700
0E00
0E00
0C00
1C00
1800
3800
ENDCHAR
STARTCHAR glyph574
ENCODING -1
SWIDTH 600 0
DWIDTH 22 0
BBX 10 14 5 12
BITMAP
3F00
7F80
E1C0
E1C0
E1C0
7780
3E00
7F00
E380
E1C0
E1C0
E1C0
7F80
3F00
ENDCHAR
STARTCHAR uni2000
ENCODING -1
SWIDTH 600 0
DWIDTH 22 0
BBX 1 1 0 0
BITMAP
00
ENDCHAR
STARTCHAR uni2001
ENCODING -1
SWIDTH 600 0
DWIDTH 22 0
BBX 1 1 0 0
BITMAP
00
ENDCHAR
STARTCHAR uni2002
ENCODING -1
SWIDTH 600 0
DWIDTH 22 0
BBX 1 1 0 0
BITMAP
00
ENDCHAR
STARTCHAR uni2003
ENCODING -1
SWIDTH 600 0
DWIDTH 22 0
BBX 1 1 0 0
BITMAP
00
ENDCHAR
STARTCHAR uni2004
ENCODING -1
SWIDTH 600 0
DWIDTH 22 0
BBX 1 1 0 0
BITMAP
00
ENDCHAR
STARTCHAR uni2005
ENCODING -1
SWIDTH 600 0
DWIDTH 22 0
BBX 1 1 0 0
BITMAP
00
ENDCHAR
STARTCHAR uni2006
ENCODING -1
SWIDTH 600 0
DWIDTH 22 0
BBX 1 1 0 0
BITMAP
00
ENDCHAR
STARTCHAR uni2007
ENCODING -1
SWIDTH 600 0
DWIDTH 22 0
BBX 1 1 0 0
BITMAP
00
ENDCHAR
STARTCHAR uni2008
ENCODING -1
SWIDTH 600 0
DWIDTH 22 0
BBX 1 1 0 0
BITMAP
00
ENDCHAR
STARTCHAR uni2009
ENCODING -1
SWIDTH 600 0
DWIDTH 22 0
BBX 1 1 0 0
BITMAP
00
ENDCHAR
STARTCHAR uni200A
ENCODING -1
SWIDTH 600 0
DWIDTH 22 0
BBX 1 1 0 0
BITMAP
00
ENDCHAR
STARTCHAR uni200B
ENCODING -1
SWIDTH 600 0
DWIDTH 22 0
BBX 1 1 0 0
BITMAP
00
ENDCHAR
STARTCHAR uniFEFF
ENCODING -1
SWIDTH 600 0
DWIDTH 22 0
BBX 1 1 0 0
BITMAP
00
ENDCHAR
STARTCHAR uniFFFC
ENCODING -1
SWIDTH 600 0
DWIDTH 22 0
BBX 20 34 1 -7
BITMAP
F8F1F0
F8F1F0
C00030
C38030
C6C030
0C6000
0C6000
0C6000
CC6030
C6C030
C78030
C00030
C00030
007C00
006E00
C06630
C07C30
C06E30
C06630
C06E30
007C00
000000
C00030
C00FB0
C00330
C00330
C00330
000300
000300
C01730
C01E30
C00030
F8F1F0
F8F1F0
ENDCHAR
STARTCHAR uniFFFD
ENCODING -1
SWIDTH 600 0
DWIDTH 22 0
BBX 21 33 0 -6
BITMAP
002000
002000
007000
00F800
00F800
01FC00
03FE00
03FE00
070700
0C0180
0C0080
1E70C0
3FF8E0
3FF8E0
7FF0F0
FFE1F8
FFC3F8
FF87F8
7F0FF0
3F1FE0
3F1FE0
1FFFC0
0FFF80
0F0F80
070F00
030E00
039E00
01FC00
00F800
00F800
007000
002000
002000
ENDCHAR
STARTCHAR uni01F0
ENCODING -1
SWIDTH 600 0
DWIDTH 22 0
BBX 15 37 2 -9
BITMAP
1C0E
0E1C
0738
07F0
03E0
01C0
0000
0000
0000
3FF8
3FF8
0078
0038
0038
0038
0038
0038
0038
0038
0038
0038
0038
0038
0038
0038
0038
0038
0038
0038
0038
0038
0038
0078
00F0
FFF0
FFE0
7F80
ENDCHAR
STARTCHAR uni02BC
ENCODING -1
SWIDTH 600 0
DWIDTH 22 0
BBX 6 9 8 17
BITMAP
3C
3C
78
78
78
70
70
E0
E0
ENDCHAR
STARTCHAR theta1
ENCODING -1
SWIDTH 600 0
DWIDTH 22 0
BBX 21 27 0 0
BITMAP
01F800
07FE00
07FF00
0F0780
0E0380
0E03C0
0E01C0
0F01C0
0781E0
03E1E0
01FFF8
003FF8
7800E0
FC00E0
7E00E0
0E00E0
1E00E0
1C00E0
1C01E0
1C01C0
1C01C0
1C03C0
1C0380
1E0780
0FFF00
07FE00
03F800
ENDCHAR
STARTCHAR Upsilon1
ENCODING -1
SWIDTH 600 0
DWIDTH 22 0
BBX 21 26 0 0
BITMAP
F00078
7000F8
7800F8
3801E0
1C03C0
1E0380
0E0780
0F0700
070F00
078E00
038E00
03DC00
01DC00
00F800
00F800
007800
007000
007000
007000
007000
007000
007000
007000
007000
007000
007000
ENDCHAR
STARTCHAR omega1
ENCODING -1
SWIDTH 600 0
DWIDTH 22 0
BBX 20 19 1 0
BITMAP
7FFFF0
FFFFF0
FFFFF0
3801C0
3801C0
3000C0
7000E0
7000E0
7070E0
7070E0
7070E0
7070E0
7070E0
7070E0
7070E0
38F9C0
3FDFC0
1FDF80
0F0F00
ENDCHAR
STARTCHAR uni1E3E
ENCODING -1
SWIDTH 600 0
DWIDTH 22 0
BBX 18 34 2 0
BITMAP
003C00
007800
007800
00F000
00E000
01C000
000000
000000
F807C0
F807C0
F807C0
D807C0
D806C0
DC0FC0
FC0FC0
FC0FC0
EC0DC0
EC1DC0
EE1DC0
EE1DC0
E619C0
E619C0
E639C0
E739C0
E731C0
E331C0
E331C0
E3F1C0
E3F1C0
E1E1C0
E1E1C0
E1E1C0
E1E1C0
E1C1C0
ENDCHAR
STARTCHAR uni1E3F
ENCODING -1
SWIDTH 600 0
DWIDTH 22 0
BBX 18 28 2 0
BITMAP
001E00
003C00
003C00
007800
007000
00E000
000000
000000
000000
E70F00
EF9F80
FFFF80
F3E3C0
F1E1C0
E1C1C0
E1C1C0
E1C1C0
E1C1C0
E1C1C0
E1C1C0
E1C1C0
E1C1C0
E1C1C0
E1C1C0
E1C1C0
E1C1C0
E1C1C0
E1C1C0
ENDCHAR
STARTCHAR uni1E00
ENCODING -1
SWIDTH 600 0
DWIDTH 22 0
BBX 20 36 1 -10
BITMAP
00F000
00F000
01F800
01F800
01F800
01F800
039C00
039C00
039C00
070E00
070E00
070E00
0F0700
0E0700
0E0700
1FFF80
1FFF80
1FFF80
3C03C0
3801C0
3801C0
7801E0
7000E0
7000E0
F000F0
F000F0
000000
000000
00F000
01F800
030C00
030C00
030C00
030C00
01F800
00F000
ENDCHAR
STARTCHAR uni1E01
ENCODING -1
SWIDTH 600 0
DWIDTH 22 0
BBX 16 29 2 -10
BITMAP
07F0
3FFC
3FFE
301F
000F
0007
0007
0007
03FF
1FFF
7F07
F007
F007
E00F
E00F
F01F
7FF7
3FE7
1FC3
0000
0000
01E0
03F0
0618
0618
0618
0618
03F0
01E0
ENDCHAR
STARTCHAR uni1F4D
ENCODING -1
SWIDTH 600 0
DWIDTH 22 0
BBX 29 26 -5 0
BITMAP
13C0FC00
7387FF00
C38FFFC0
E31F03E0
F61E01E0
763C00F0
003C0070
00380070
00780078
00780078
00780078
00780078
00700038
00700038
00780078
00780078
00780078
00780078
00380070
003C00F0
003C00F0
001E01E0
001F03E0
000FFFC0
0007FF00
0001FC00
ENDCHAR
STARTCHAR uni02F3
ENCODING -1
SWIDTH 600 0
DWIDTH 22 0
BBX 8 8 7 -10
BITMAP
3C
7E
C3
C3
C3
C3
7E
3C
ENDCHAR
STARTCHAR glyph601
ENCODING -1
SWIDTH 600 0
DWIDTH 22 0
BBX 10 6 6 20
BITMAP
13C0
7380
C380
E300
F600
7600
ENDCHAR
STARTCHAR uniFB03
ENCODING -1
SWIDTH 600 0
DWIDTH 22 0
BBX 18 27 1 0
BITMAP
019F80
0FFF80
1FFF80
3C7000
387000
387000
387000
387000
7FFFC0
FFFFC0
3871C0
3871C0
3871C0
3871C0
3871C0
3871C0
3871C0
3871C0
3871C0
3871C0
3871C0
3871C0
3871C0
3871C0
3871C0
3871C0
3871C0
ENDCHAR
STARTCHAR uniFB04
ENCODING -1
SWIDTH 600 0
DWIDTH 22 0
BBX 18 27 1 0
BITMAP
019FC0
0FFFC0
1FFFC0
3C71C0
3871C0
3871C0
3871C0
3871C0
7FFDC0
FFFDC0
3871C0
3871C0
3871C0
3871C0
3871C0
3871C0
3871C0
3871C0
3871C0
3871C0
3871C0
3871C0
3871C0
3871C0
3871C0
3871C0
3871C0
ENDCHAR
STARTCHAR Ohorn
ENCODING -1
SWIDTH 600 0
DWIDTH 22 0
BBX 22 27 1 0
BITMAP
00003C
01FC3C
0FFF38
1FFFB8
3E07F0
3C03E0
7801E0
7800E0
7000E0
F000F0
F000F0
F000F0
F000F0
E00070
E00070
E000F0
F000F0
F000F0
F000F0
7000E0
7000E0
7801E0
3C03C0
3E07C0
1FFF80
0FFE00
03F800
ENDCHAR
STARTCHAR ohorn
ENCODING -1
SWIDTH 600 0
DWIDTH 22 0
BBX 21 22 2 0
BITMAP
000078
000078
000070
03F070
0FFCF0
3FFFE0
3C0FC0
780780
700380
F003C0
E001C0
E001C0
E001C0
E001C0
E001C0
F003C0
700380
780780
3C0F00
1FFF00
0FFC00
03F000
ENDCHAR
STARTCHAR Uhorn
ENCODING -1
SWIDTH 600 0
DWIDTH 22 0
BBX 21 28 2 0
BITMAP
000078
000078
E00E70
E00E70
E00EE0
E00FE0
E00F80
E00E00
E00E00
E00E00
E00E00
E00E00
E00E00
E00E00
E00E00
E00E00
E00E00
E00E00
E00E00
E00E00
E00E00
E00E00
F01E00
701C00
783C00
7FF800
3FF000
0FE000
ENDCHAR
STARTCHAR uhorn
ENCODING -1
SWIDTH 600 0
DWIDTH 22 0
BBX 20 22 3 0
BITMAP
0000F0
0000F0
0000E0
E01CE0
E01DE0
E01FC0
E01F80
E01C00
E01C00
E01C00
E01C00
E01C00
E01C00
E01C00
E01C00
E01C00
E03C00
F03C00
F07C00
7FFC00
3FDC00
1F1C00
ENDCHAR
STARTCHAR gravecomb
ENCODING -1
SWIDTH 600 0
DWIDTH 22 0
BBX 7 6 8 22
BITMAP
F0
78
78
3C
1C
0E
ENDCHAR
STARTCHAR acutecomb
ENCODING -1
SWIDTH 600 0
DWIDTH 22 0
BBX 7 6 8 22
BITMAP
1E
3C
3C
78
70
E0
ENDCHAR
STARTCHAR tildecomb
ENCODING -1
SWIDTH 600 0
DWIDTH 22 0
BBX 13 5 5 22
BITMAP
3C18
7E18
FFF0
C3F0
C1E0
ENDCHAR
STARTCHAR hookabovecomb
ENCODING -1
SWIDTH 600 0
DWIDTH 22 0
BBX 7 8 8 21
BITMAP
F8
FE
0E
0E
1E
78
60
60
ENDCHAR
STARTCHAR dotbelowcomb
ENCODING -1
SWIDTH 600 0
DWIDTH 22 0
BBX 4 4 9 -6
BITMAP
60
F0
F0
60
ENDCHAR
STARTCHAR uni0400
ENCODING -1
SWIDTH 600 0
DWIDTH 22 0
BBX 15 34 4 0
BITMAP
1E00
0F00
0F00
0780
0380
01C0
0000
0000
FFFE
FFFE
FFFE
E000
E000
E000
E000
E000
E000
E000
E000
FFFC
FFFC
FFFC
E000
E000
E000
E000
E000
E000
E000
E000
E000
FFFE
FFFE
FFFE
ENDCHAR
STARTCHAR uni040D
ENCODING -1
SWIDTH 600 0
DWIDTH 22 0
BBX 18 34 2 0
BITMAP
0F0000
078000
078000
03C000
01C000
00E000
000000
000000
E003C0
E007C0
E007C0
E00FC0
E00FC0
E01FC0
E01DC0
E03DC0
E039C0
E071C0
E071C0
E0E1C0
E0E1C0
E1C1C0
E1C1C0
E381C0
E381C0
E701C0
EF01C0
EE01C0
FE01C0
FC01C0
FC01C0
F801C0
F801C0
F001C0
ENDCHAR
STARTCHAR uni0450
ENCODING -1
SWIDTH 600 0
DWIDTH 22 0
BBX 18 28 2 0
BITMAP
078000
03C000
03C000
01E000
00E000
007000
000000
000000
000000
03F800
0FFE00
1FFF00
3C0780
780380
7003C0
F001C0
E001C0
FFFFC0
FFFFC0
FFFFC0
E00000
F00000
700000
780000
3C0180
1FFF80
0FFF80
03FE00
ENDCHAR
STARTCHAR uni045D
ENCODING -1
SWIDTH 600 0
DWIDTH 22 0
BBX 16 28 3 0
BITMAP
1E00
0F00
0F00
0780
0380
01C0
0000
0000
0000
E00F
E01F
E03F
E03F
E077
E077
E0E7
E0E7
E1C7
E3C7
E387
E707
E707
EE07
EE07
FC07
FC07
F807
F007
ENDCHAR
STARTCHAR uni0460
ENCODING -1
SWIDTH 600 0
DWIDTH 22 0
BBX 20 26 1 0
BITMAP
1F0F80
3F0FC0
3E07C0
7000E0
7000E0
7000E0
E00070
E00070
E00070
E00070
E00070
E00070
E00070
E00070
E07070
E07070
E07070
E07070
E07070
7070F0
7070E0
7870E0
7871E0
3FFFC0
1FDFC0
0F8F00
ENDCHAR
STARTCHAR uni0461
ENCODING -1
SWIDTH 600 0
DWIDTH 22 0
BBX 21 19 0 0
BITMAP
E0E038
E0E038
606038
707038
707038
707038
303038
383838
383830
387870
187870
1C7C70
1CFC60
0CCCE0
0CCCC0
0FCDC0
0F8F80
078780
070700
ENDCHAR
STARTCHAR uni0462
ENCODING -1
SWIDTH 600 0
DWIDTH 22 0
BBX 20 27 0 0
BITMAP
070000
070000
070000
070000
070000
FFFF00
FFFF00
FFFF00
070000
070000
070000
070000
07FC00
07FF80
07FFC0
0703E0
0700E0
0700F0
0700F0
070070
0700F0
0700F0
0700E0
0703E0
07FFC0
07FF80
07FE00
ENDCHAR
STARTCHAR uni0463
ENCODING -1
SWIDTH 600 0
DWIDTH 22 0
BBX 20 23 0 0
BITMAP
0E0000
0E0000
0E0000
0E0000
FFF800
FFF800
FFF800
0E0000
0E0000
0E0000
0E0000
0E0000
0FFF00
0FFFC0
0FFFE0
0E00F0
0E0070
0E0070
0E0070
0E00F0
0FFFE0
0FFFC0
0FFF00
ENDCHAR
STARTCHAR uni0464
ENCODING -1
SWIDTH 600 0
DWIDTH 22 0
BBX 19 26 2 0
BITMAP
E01F80
E07FE0
E0FFE0
E1F0C0
E1C000
E3C000
E38000
E38000
E78000
E70000
E70000
FFFF00
FFFF00
FFFF00
E70000
E70000
E70000
E70000
E78000
E38000
E3C000
E3C000
E1E040
E0FFC0
E07FC0
E03F80
ENDCHAR
STARTCHAR uni0465
ENCODING -1
SWIDTH 600 0
DWIDTH 22 0
BBX 18 19 3 0
BITMAP
E01F80
E07FC0
E0FFC0
E1E000
E1C000
E38000
E38000
E38000
FFFF00
FFFF00
FFFF00
E38000
E38000
E38000
E1C000
E1E040
E0FFC0
E07FC0
E01F80
ENDCHAR
STARTCHAR uni0466
ENCODING -1
SWIDTH 600 0
DWIDTH 22 0
BBX 22 26 0 0
BITMAP
007800
007800
00FC00
00FC00
00DC00
01CE00
01CE00
018E00
038700
038700
030300
07FF80
07FF80
0FFF80
0E71C0
0E71C0
1C70E0
1C70E0
1C70E0
387070
387070
387070
707038
707038
707038
E0701C
ENDCHAR
STARTCHAR uni0467
ENCODING -1
SWIDTH 600 0
DWIDTH 22 0
BBX 19 19 1 0
BITMAP
01F000
01F000
03F000
03B800
033800
073C00
071C00
0E1C00
0FFE00
0FFE00
1FFF00
1CE700
1CE700
38E380
38E380
70E3C0
70E1C0
70E1C0
E0E1E0
ENDCHAR
STARTCHAR uni0468
ENCODING -1
SWIDTH 600 0
DWIDTH 22 0
BBX 20 26 2 0
BITMAP
E03C00
E03C00
E03C00
E03C00
E07E00
E07E00
E06600
E06600
E0E700
E0E700
E0C300
FFFF00
FFFF80
FFFF80
E1DF80
E19D80
E39DC0
E39DC0
E39DC0
E31CC0
E71CE0
E71CE0
E71CE0
E71CE0
EE1C70
EE1C70
ENDCHAR
STARTCHAR uni0469
ENCODING -1
SWIDTH 600 0
DWIDTH 22 0
BBX 21 19 2 0
BITMAP
E01C00
E03E00
E03600
E03600
E07700
E07700
E0E380
E0E380
FFFF80
FFFFC0
FFFFC0
E1DDC0
E39CE0
E39CE0
E31CE0
E71C70
E71C70
E61C30
EE1C38
ENDCHAR
STARTCHAR uni046A
ENCODING -1
SWIDTH 600 0
DWIDTH 22 0
BBX 22 26 0 0
BITMAP
3FFFF0
3FFFF0
3FFFF0
1C00E0
1E01C0
0E01C0
070380
078700
038E00
01DE00
01FC00
03FF00
0FFFC0
1FFFC0
1C71E0
1C70E0
3870F0
387070
387070
387070
707038
707038
707038
707038
E0701C
E0701C
ENDCHAR
STARTCHAR uni046B
ENCODING -1
SWIDTH 600 0
DWIDTH 22 0
BBX 21 19 0 0
BITMAP
3FFFE0
3FFFE0
1FFFC0
1E03C0
0F0780
070F00
038E00
01DC00
07FE00
0FFF80
1E73C0
1C71C0
3C71E0
3870E0
3870E0
787070
707070
707070
F07038
ENDCHAR
STARTCHAR uni046C
ENCODING -1
SWIDTH 600 0
DWIDTH 22 0
BBX 20 26 2 0
BITMAP
E3FFE0
E3FFE0
E3FFE0
E3C1E0
E1C1C0
E1C1C0
E0E380
E0E380
E07700
E07700
E07700
FFFF80
FFFFC0
FFFFC0
E1DDE0
E39CE0
E39CE0
E39CE0
E39CE0
E39CE0
E39CE0
E39C70
E71C70
E71C70
E71C70
E71C70
ENDCHAR
STARTCHAR uni046D
ENCODING -1
SWIDTH 600 0
DWIDTH 22 0
BBX 21 19 2 0
BITMAP
E7FFF0
E7FFF0
E7FFE0
E380E0
E1C1C0
E0C380
E0E300
E07600
FFFF80
FFFFC0
FF9CE0
E39CE0
E71C60
E71C70
E71C70
E71C70
E61C30
EE1C38
EE1C38
ENDCHAR
STARTCHAR uni046E
ENCODING -1
SWIDTH 600 0
DWIDTH 22 0
BBX 17 38 2 -7
BITMAP
381E00
1C3E00
0E7000
07E000
03E000
0FF000
3FFE00
FFFF00
700F00
000780
000780
000380
000780
000700
000F00
003E00
1FF800
1FF800
1FFE00
001F00
000700
000780
000780
000780
000780
000780
000F00
001F00
0FFE00
3FFC00
7FE000
F80000
E00000
E00000
F00000
FFFF80
7FFF80
1FFF80
ENDCHAR
STARTCHAR uni046F
ENCODING -1
SWIDTH 600 0
DWIDTH 22 0
BBX 16 29 3 -6
BITMAP
381C
1C3C
0E70
07E0
1FF0
7FF8
3FFC
201E
000E
000E
001E
003C
0FF8
0FF8
0FFE
000E
0007
0007
0007
000F
03FE
3FFC
7FF0
E000
E000
E000
FFFE
7FFF
1FFF
ENDCHAR
STARTCHAR uni0470
ENCODING -1
SWIDTH 600 0
DWIDTH 22 0
BBX 20 26 1 0
BITMAP
E0E070
E0E070
E0E070
E0E070
E0E070
E0E070
E0E070
E0E070
E0E070
E0E070
E0E070
E0E0F0
F0E0F0
70E0E0
78E1E0
3FFFC0
1FFF80
07FE00
00E000
00E000
00E000
00E000
00E000
00E000
00E000
00E000
ENDCHAR
STARTCHAR uni0471
ENCODING -1
SWIDTH 600 0
DWIDTH 22 0
BBX 20 36 1 -9
BITMAP
00E000
00E000
00E000
00E000
00E000
00E000
00E000
00E000
E0E0E0
E0E0E0
E0E0E0
E0E0F0
E0E070
E0E070
E0E070
E0E070
E0E070
E0E070
E0E070
E0E070
F0E0F0
F0E0E0
70E1E0
78E3C0
3FFF80
1FFF00
07FC00
00E000
00E000
00E000
00E000
00E000
00E000
00E000
00E000
00E000
ENDCHAR
STARTCHAR uni0472
ENCODING -1
SWIDTH 600 0
DWIDTH 22 0
BBX 20 26 1 0
BITMAP
01F800
0FFE00
1FFF80
3E07C0
3C03C0
7801E0
7000E0
7000E0
F000F0
F000F0
F000F0
FFFFF0
FFFFF0
FFFFF0
E000F0
F000F0
F000F0
F000F0
7000E0
7801E0
7801E0
3C03C0
3E07C0
1FFF80
0FFE00
03F800
ENDCHAR
STARTCHAR uni0473
ENCODING -1
SWIDTH 600 0
DWIDTH 22 0
BBX 18 19 2 0
BITMAP
03F000
0FFC00
3FFE00
3C0F00
780780
700380
F003C0
E001C0
FFFFC0
FFFFC0
FFFFC0
E001C0
F003C0
700380
780780
3C0F00
1FFF00
0FFC00
03F000
ENDCHAR
STARTCHAR uni0474
ENCODING -1
SWIDTH 600 0
DWIDTH 22 0
BBX 22 26 1 0
BITMAP
F0007C
F000FC
7001FC
7001C0
7803C0
380380
380380
3C0380
1C0780
1C0700
1C0700
0E0F00
0E0E00
0E0E00
0F0E00
071E00
071C00
071C00
039C00
03B800
03B800
01B800
01F800
01F000
01F000
00F000
ENDCHAR
STARTCHAR uni0475
ENCODING -1
SWIDTH 600 0
DWIDTH 22 0
BBX 20 19 1 0
BITMAP
F000F0
7001F0
7003C0
780380
380780
380700
1C0700
1C0F00
1E0E00
0E0E00
0E1E00
071C00
071C00
071800
03B800
03B800
01B000
01F000
01F000
ENDCHAR
STARTCHAR uni0476
ENCODING -1
SWIDTH 600 0
DWIDTH 22 0
BBX 22 34 1 0
BITMAP
3CF000
1C7000
0E3800
071C00
071C00
018600
000000
000000
F0007C
F000FC
7001FC
7001C0
7803C0
380380
380380
3C0380
1C0780
1C0700
1C0700
0E0F00
0E0E00
0E0E00
0F0E00
071E00
071C00
071C00
039C00
03B800
03B800
01B800
01F800
01F000
01F000
00F000
ENDCHAR
STARTCHAR uni0477
ENCODING -1
SWIDTH 600 0
DWIDTH 22 0
BBX 20 28 1 0
BITMAP
3CF000
1C7000
0E3800
071C00
071C00
018600
000000
000000
000000
F000F0
7001F0
7003C0
780380
380780
380700
1C0700
1C0F00
1E0E00
0E0E00
0E1E00
071C00
071C00
071800
03B800
03B800
01B000
01F000
01F000
ENDCHAR
STARTCHAR uni0478
ENCODING -1
SWIDTH 600 0
DWIDTH 22 0
BBX 21 35 1 -9
BITMAP
1E0000
3F0000
7F8000
738000
618000
E1C000
E1C000
E1DC38
E1DC38
E1DC38
E1CC30
E1CC30
E1CE70
E1CE70
E1CE70
E1C660
E1C660
E1C6E0
E1C7E0
E1C7E0
E1C3C0
E183C0
7383C0
7F83C0
3F03C0
1E0380
000180
000380
000380
000380
000300
000700
003F00
003E00
003C00
ENDCHAR
STARTCHAR uni0479
ENCODING -1
SWIDTH 600 0
DWIDTH 22 0
BBX 21 28 1 -9
BITMAP
1E3838
3F1838
7F9C38
739C30
E1DC70
E1DC70
E1CC70
E1CC70
E1CE60
E1CEE0
E1CEE0
E1C6E0
E1C6E0
E1C6C0
E1C7C0
7387C0
7F83C0
3F03C0
1E0380
000380
000380
000380
000380
000700
000700
003F00
003E00
003C00
ENDCHAR
STARTCHAR uni047A
ENCODING -1
SWIDTH 600 0
DWIDTH 22 0
BBX 20 30 1 -2
BITMAP
00F000
01F000
03FC00
0FFF00
1FFF80
3EF3C0
3801C0
7801E0
7000E0
7000E0
F000F0
F000F0
F000F0
F000F0
E00070
F00070
E000F0
F000F0
F000F0
F000F0
7000E0
7000E0
7801E0
3801C0
3CF3C0
1FFF80
0FFF00
03FC00
01F000
00F000
ENDCHAR
STARTCHAR uni047B
ENCODING -1
SWIDTH 600 0
DWIDTH 22 0
BBX 18 23 2 -2
BITMAP
01E000
01E000
07F800
1FFC00
3FFF00
3DEF00
780780
700380
F003C0
E001C0
E001C0
E001C0
E001C0
E001C0
F003C0
700380
780780
3DEF00
3FFF00
1FFE00
07F800
01E000
01E000
ENDCHAR
STARTCHAR uni047C
ENCODING -1
SWIDTH 600 0
DWIDTH 22 0
BBX 20 37 1 0
BITMAP
03E000
0FFE00
0E7F80
0CE780
00F000
00F000
003000
002000
006000
008000
000000
1F0F80
3F0FC0
3E07C0
7000E0
7000E0
7000E0
E00070
E00070
E00070
E00070
E00070
E00070
E00070
E00070
E00070
E00070
E00070
E00070
E00070
F000E0
7000E0
7040E0
78E1E0
3FFFC0
1FFF80
0F1F00
ENDCHAR
STARTCHAR uni047D
ENCODING -1
SWIDTH 600 0
DWIDTH 22 0
BBX 18 31 2 0
BITMAP
07C000
0FF800
1CFE00
19DE00
01E000
01E000
006000
006000
00C000
010000
000000
000000
1E1E00
3F3F00
7E1F80
700380
E001C0
E001C0
E001C0
E001C0
E001C0
E001C0
E001C0
E001C0
E001C0
E001C0
700380
70C380
7FFF80
3FFF00
1F3C00
ENDCHAR
STARTCHAR uni047E
ENCODING -1
SWIDTH 600 0
DWIDTH 22 0
BBX 20 32 1 0
BITMAP
1FFF80
1FFF80
0C6300
084100
000000
000000
0F8F80
3F8FC0
3F07C0
7800E0
7000E0
7000E0
F00070
E00070
E00070
E00070
E00070
E00070
E00070
E00070
E07070
E07070
E07070
E07070
E07070
F070E0
7070E0
7870E0
7871E0
3FFFC0
1FFF80
0F0F00
ENDCHAR
STARTCHAR uni047F
ENCODING -1
SWIDTH 600 0
DWIDTH 22 0
BBX 21 26 0 0
BITMAP
0FFFC0
0FFFC0
063180
042080
000000
000000
000000
E0E038
E0E038
606038
707038
707038
307038
303038
383030
383870
187870
1C7870
1C7860
1CFCE0
0CDCE0
0ECCC0
0FCDC0
078F80
078F80
078700
ENDCHAR
STARTCHAR uni0480
ENCODING -1
SWIDTH 600 0
DWIDTH 22 0
BBX 19 35 2 -9
BITMAP
00FF00
03FFE0
0FFFE0
1F80C0
3E0000
3C0000
780000
780000
700000
F00000
F00000
F00000
E00000
E00000
F00000
F00000
F00000
F00000
700000
780000
3C0000
3E0000
1F8000
0FFE00
07FE00
00FE00
000E00
000E00
000E00
000E00
000E00
000E00
000E00
000E00
000E00
ENDCHAR
STARTCHAR uni0481
ENCODING -1
SWIDTH 600 0
DWIDTH 22 0
BBX 16 28 3 -9
BITMAP
03FC
0FFF
3FFE
3C02
7800
7000
F000
E000
E000
E000
E000
E000
F000
7000
7800
3C00
3FF8
0FF8
03F8
0038
0038
0038
0038
0038
0038
0038
0038
0038
ENDCHAR
STARTCHAR uni0482
ENCODING -1
SWIDTH 600 0
DWIDTH 22 0
BBX 18 23 2 0
BITMAP
000200
000700
000600
000E00
020C00
079C00
03F800
01F800
007E00
007F80
00E3C0
00E080
41C000
F1C000
7F8000
1F8000
07E000
0FF000
0E7800
1C1000
1C0000
380000
180000
ENDCHAR
STARTCHAR uni0483
ENCODING -1
SWIDTH 600 0
DWIDTH 22 0
BBX 13 6 4 21
BITMAP
0038
0038
FFF8
FFF8
E000
E000
ENDCHAR
STARTCHAR uni0484
ENCODING -1
SWIDTH 600 0
DWIDTH 22 0
BBX 13 4 4 22
BITMAP
03E0
3FF8
FE38
F038
ENDCHAR
STARTCHAR uni0485
ENCODING -1
SWIDTH 600 0
DWIDTH 22 0
BBX 4 6 8 22
BITMAP
70
F0
E0
C0
70
10
ENDCHAR
STARTCHAR uni0486
ENCODING -1
SWIDTH 600 0
DWIDTH 22 0
BBX 4 6 9 22
BITMAP
E0
F0
70
30
E0
80
ENDCHAR
STARTCHAR uni0488
ENCODING -1
SWIDTH 600 0
DWIDTH 22 0
BBX 20 18 1 1
BITMAP
00E000
01F000
019000
380380
3C07C0
000000
000000
000000
F000E0
F001B0
000000
000000
000000
380380
3C07C0
000000
00E000
019000
ENDCHAR
STARTCHAR uni0489
ENCODING -1
SWIDTH 600 0
DWIDTH 22 0
BBX 20 20 1 0
BITMAP
003000
003000
106000
186080
180380
0C0700
080200
000000
000000
C000C0
F000F0
300030
000000
000000
0C0300
1C0300
303180
003080
006000
006000
ENDCHAR
STARTCHAR uni048A
ENCODING -1
SWIDTH 600 0
DWIDTH 22 0
BBX 21 41 2 -7
BITMAP
380E00
380E00
3C1E00
1E3C00
0FF800
07F000
000000
000000
E003C0
E007C0
E007C0
E00FC0
E00FC0
E01FC0
E01DC0
E03DC0
E039C0
E071C0
E071C0
E0E1C0
E0E1C0
E1C1C0
E1C1C0
E381C0
E381C0
E701C0
EF01C0
EE01C0
FE01C0
FC01C0
FC01C0
F801F8
F801F8
F001F0
000070
000070
000070
0000E0
0000E0
0001E0
0001E0
ENDCHAR
STARTCHAR uni048B
ENCODING -1
SWIDTH 600 0
DWIDTH 22 0
BBX 19 35 3 -7
BITMAP
701C00
701C00
783C00
3C7800
1FF000
0FE000
000000
000000
000000
E01F00
E01F00
E03F00
E03F00
E07700
E07700
E0E700
E0E700
E1C700
E3C700
E38700
E70700
E70700
EE0700
EE0700
FC0700
FC07E0
F807E0
F807E0
0000C0
0001C0
0001C0
0001C0
0003C0
000380
000380
ENDCHAR
STARTCHAR uni048C
ENCODING -1
SWIDTH 600 0
DWIDTH 22 0
BBX 19 26 1 0
BITMAP
1C0000
1C0000
1C0000
FFF000
FFF000
FFF000
1C0000
1C0000
1C0000
1C0000
1C0000
1FF800
1FFF00
1FFF80
1C07C0
1C01C0
1C01E0
1C01E0
1C00E0
1C01E0
1C01E0
1C01C0
1C07C0
1FFF80
1FFF00
1FFC00
ENDCHAR
STARTCHAR uni048D
ENCODING -1
SWIDTH 600 0
DWIDTH 22 0
BBX 19 27 1 0
BITMAP
1C0000
1C0000
1C0000
1C0000
FFF000
FFF000
1C0000
1C0000
1C0000
1C0000
1C0000
1C0000
1C0000
1C0000
1C0000
1C0000
1FFE00
1FFF80
1FFFC0
1C01E0
1C00E0
1C00E0
1C00E0
1C01E0
1FFFC0
1FFF80
1FFE00
ENDCHAR
STARTCHAR uni048E
ENCODING -1
SWIDTH 600 0
DWIDTH 22 0
BBX 17 26 3 0
BITMAP
FFF000
FFFC00
FFFE00
E01F00
E00F00
E00780
E00780
E00380
E00780
E08780
E1C780
E0EF00
E07F00
FFFE00
FFFC00
FFFC00
E01C00
E00E00
E00400
E00000
E00000
E00000
E00000
E00000
E00000
E00000
ENDCHAR
STARTCHAR uni048F
ENCODING -1
SWIDTH 600 0
DWIDTH 22 0
BBX 17 28 3 -9
BITMAP
E3F000
E7FC00
EFFE00
F80F00
F00700
F00700
E00780
E00380
E00380
E00380
E00380
E00380
F04780
F0E780
F07F00
F83F00
FFFE00
EFFC00
E3FC00
E00E00
E00700
E00200
E00000
E00000
E00000
E00000
E00000
E00000
ENDCHAR
STARTCHAR uni0492
ENCODING -1
SWIDTH 600 0
DWIDTH 22 0
BBX 18 26 2 0
BITMAP
1FFFC0
1FFFC0
1FFFC0
1C0000
1C0000
1C0000
1C0000
1C0000
1C0000
1C0000
1C0000
1C0000
FFF000
FFF000
FFF000
1C0000
1C0000
1C0000
1C0000
1C0000
1C0000
1C0000
1C0000
1C0000
1C0000
1C0000
ENDCHAR
STARTCHAR uni0493
ENCODING -1
SWIDTH 600 0
DWIDTH 22 0
BBX 17 19 2 0
BITMAP
1FFF80
1FFF80
1FFF80
1C0000
1C0000
1C0000
1C0000
1C0000
FFF000
FFF000
1C0000
1C0000
1C0000
1C0000
1C0000
1C0000
1C0000
1C0000
1C0000
ENDCHAR
STARTCHAR uni0494
ENCODING -1
SWIDTH 600 0
DWIDTH 22 0
BBX 17 35 3 -9
BITMAP
FFF800
FFF800
FFF800
E00000
E00000
E00000
E00000
E00000
E00000
E00000
E00000
E00000
FFC000
FFF000
FFF800
E07C00
E01E00
E00F00
E00F00
E00700
E00780
E00780
E00780
E00380
E00780
E00780
000780
000780
000700
000F00
001F00
103E00
1FFC00
1FF800
0FE000
ENDCHAR
STARTCHAR uni0495
ENCODING -1
SWIDTH 600 0
DWIDTH 22 0
BBX 16 28 4 -9
BITMAP
FFF0
FFF0
FFF0
E000
E000
E000
E000
E000
FFC0
FFF0
FFF8
E07C
E01E
E00E
E00F
E00F
E007
E007
E007
0007
000F
000F
000E
001E
103C
1FFC
1FF8
0FE0
ENDCHAR
STARTCHAR uni0496
ENCODING -1
SWIDTH 600 0
DWIDTH 22 0
BBX 22 33 0 -7
BITMAP
E07038
707070
707070
3870E0
3870E0
1C71C0
1C71C0
0E7380
0E7380
077700
077700
03FE00
03FE00
03FE00
077F00
077700
0E7780
0E7380
1E73C0
1C71C0
3C71E0
3870E0
3870F0
70707C
70707C
E0703C
00001C
00001C
00001C
00001C
00001C
00001C
00001C
ENDCHAR
STARTCHAR uni0497
ENCODING -1
SWIDTH 600 0
DWIDTH 22 0
BBX 21 26 0 -7
BITMAP
F07070
707070
3870E0
3871C0
1C71C0
0E7380
0E7780
077700
037E00
03FE00
077E00
077700
0E7380
1E7380
1C71C0
3871C0
3870F8
7070F8
F07078
000038
000038
000038
000038
000038
000038
000038
ENDCHAR
STARTCHAR uni0498
ENCODING -1
SWIDTH 600 0
DWIDTH 22 0
BBX 17 34 2 -8
BITMAP
07F000
3FFE00
FFFF00
780F00
000780
000780
000380
000780
000700
000F00
003E00
1FF800
1FF000
1FFC00
001F00
000F00
000780
000780
000380
000780
000780
000F00
C01F00
FFFE00
FFFC00
3FE000
01C000
00E000
006000
007000
007000
007000
03F000
03C000
ENDCHAR
STARTCHAR uni0499
ENCODING -1
SWIDTH 600 0
DWIDTH 22 0
BBX 15 27 4 -8
BITMAP
3FC0
FFF0
FFF8
403C
001C
001C
001C
0078
1FF0
1FE0
1FF8
001C
000E
000E
000E
C01E
FFFC
FFF8
3FE0
0700
0380
0180
01C0
01C0
01C0
0FC0
0F00
ENDCHAR
STARTCHAR uni049A
ENCODING -1
SWIDTH 600 0
DWIDTH 22 0
BBX 17 33 4 -7
BITMAP
E00F00
E01E00
E01C00
E03800
E07800
E0F000
E0E000
E1E000
E3C000
E78000
E70000
EF0000
FE0000
EF0000
EF0000
E78000
E3C000
E1C000
E1E000
E0F000
E07000
E07800
E03C00
E01F80
E01F80
E00F80
000380
000380
000380
000380
000380
000380
000380
ENDCHAR
STARTCHAR uni049B
ENCODING -1
SWIDTH 600 0
DWIDTH 22 0
BBX 17 26 4 -7
BITMAP
E00F00
E01E00
E03C00
E07800
E0F000
E1E000
E3C000
E78000
EF0000
FE0000
EF0000
E78000
E3C000
E1E000
E0F000
E07800
E03F80
E01F80
E00F80
000380
000380
000380
000380
000380
000380
000380
ENDCHAR
STARTCHAR uni049C
ENCODING -1
SWIDTH 600 0
DWIDTH 22 0
BBX 17 26 4 0
BITMAP
E00780
E00F00
E01E00
E01C00
E63800
E67800
E6F000
E7E000
E7C000
E78000
E78000
EF0000
EF0000
FF8000
FF8000
F7C000
E7E000
E6E000
E6F000
E67800
E63800
E03C00
E01E00
E00F00
E00F00
E00780
ENDCHAR
STARTCHAR uni049D
ENCODING -1
SWIDTH 600 0
DWIDTH 22 0
BBX 17 19 4 0
BITMAP
E00700
E38E00
E39C00
E3B800
E3F000
E3E000
E3C000
E78000
FF0000
EF8000
E7C000
E3E000
E3E000
E3F000
E3F800
E3BC00
E39E00
E00F00
E00780
ENDCHAR
STARTCHAR uni049E
ENCODING -1
SWIDTH 600 0
DWIDTH 22 0
BBX 20 26 1 0
BITMAP
1C00F0
1C01E0
1C03C0
FFC380
FFC700
FFCF00
1C1E00
1C3C00
1C3800
1C7000
1CF000
1DE000
1DF000
1FF000
1F7800
1C3C00
1C1C00
1C1E00
1C0E00
1C0F00
1C0780
1C0380
1C03C0
1C01E0
1C00E0
1C00F0
ENDCHAR
STARTCHAR uni049F
ENCODING -1
SWIDTH 600 0
DWIDTH 22 0
BBX 19 27 1 0
BITMAP
1C0000
1C0000
1C0000
FFF800
FFF800
1C0000
1C0000
1C0000
1C01C0
1C0380
1C0700
1C0E00
1C1C00
1C3800
1C7000
1CE000
1DE000
1FF000
1F7000
1E7800
1C3C00
1C1E00
1C0F00
1C0700
1C0780
1C03C0
1C01E0
ENDCHAR
STARTCHAR uni04A0
ENCODING -1
SWIDTH 600 0
DWIDTH 22 0
BBX 21 26 0 0
BITMAP
FF0078
FF0070
FF00E0
0701E0
0701C0
070380
070780
070F00
070E00
071E00
073C00
073800
077C00
07FC00
07DE00
078F00
070F00
070780
070380
0703C0
0701C0
0701E0
0700E0
0700F0
070070
070078
ENDCHAR
STARTCHAR uni04A1
ENCODING -1
SWIDTH 600 0
DWIDTH 22 0
BBX 21 19 1 0
BITMAP
FF80F0
FF80E0
FF81C0
038380
038700
038F00
038E00
039C00
03B800
03F800
03BC00
039E00
038E00
038700
038380
0383C0
0381E0
0380F0
038078
ENDCHAR
STARTCHAR uni04A2
ENCODING -1
SWIDTH 600 0
DWIDTH 22 0
BBX 19 33 2 -7
BITMAP
E00700
E00700
E00700
E00700
E00700
E00700
E00700
E00700
E00700
E00700
E00700
FFFF00
FFFF00
FFFF00
E00700
E00700
E00700
E00700
E00700
E00700
E00700
E00700
E00700
E007E0
E007E0
E007E0
0000E0
0000E0
0000E0
0000E0
0000E0
0000E0
0000E0
ENDCHAR
STARTCHAR uni04A3
ENCODING -1
SWIDTH 600 0
DWIDTH 22 0
BBX 18 26 3 -7
BITMAP
E00E00
E00E00
E00E00
E00E00
E00E00
E00E00
E00E00
E00E00
FFFE00
FFFE00
FFFE00
E00E00
E00E00
E00E00
E00E00
E00E00
E00FC0
E00FC0
E00FC0
0001C0
0001C0
0001C0
0001C0
0001C0
0001C0
0001C0
ENDCHAR
STARTCHAR uni04A4
ENCODING -1
SWIDTH 600 0
DWIDTH 22 0
BBX 19 26 2 0
BITMAP
E01FE0
E01FE0
E01FE0
E01C00
E01C00
E01C00
E01C00
E01C00
E01C00
E01C00
E01C00
FFFC00
FFFC00
FFFC00
E01C00
E01C00
E01C00
E01C00
E01C00
E01C00
E01C00
E01C00
E01C00
E01C00
E01C00
E01C00
ENDCHAR
STARTCHAR uni04A5
ENCODING -1
SWIDTH 600 0
DWIDTH 22 0
BBX 18 19 3 0
BITMAP
E01FC0
E01FC0
E01FC0
E01C00
E01C00
E01C00
E01C00
E01C00
FFFC00
FFFC00
FFFC00
E01C00
E01C00
E01C00
E01C00
E01C00
E01C00
E01C00
E01C00
ENDCHAR
STARTCHAR uni04A6
ENCODING -1
SWIDTH 600 0
DWIDTH 22 0
BBX 19 35 2 -9
BITMAP
FFE000
FFE000
FFE000
E0E000
E0E000
E0E000
E0E000
E0E000
E0E000
E0E000
E0E000
E0E000
E0FE00
E0FF00
E0FF80
E0E3C0
E0E1C0
E0E1C0
E0E0E0
E0E0E0
E0E0E0
E0E0E0
E0E0E0
E0E0E0
E0E0E0
E0E0E0
0000E0
0000E0
0000E0
0001C0
0001C0
0003C0
003F80
003F00
003E00
ENDCHAR
STARTCHAR uni04A7
ENCODING -1
SWIDTH 600 0
DWIDTH 22 0
BBX 19 28 2 -9
BITMAP
FFE000
FFE000
FFE000
E0E000
E0E000
E0E000
E0E000
E0E000
E0FE00
E0FF80
E0FF80
E0E1C0
E0E1C0
E0E0E0
E0E0E0
E0E0E0
E0E0E0
E0E0E0
E0E0E0
0000E0
0000E0
0000E0
0000E0
0000C0
0001C0
003FC0
003F80
001F00
ENDCHAR
STARTCHAR uni04A8
ENCODING -1
SWIDTH 600 0
DWIDTH 22 0
BBX 20 27 1 -1
BITMAP
03F800
0FF800
1FF000
3E0000
3C0000
781F00
703F80
707FC0
F071C0
F0F1E0
F0F1E0
F0F1E0
E0F1E0
E0E0E0
E0E1E0
F0F1E0
F0F1E0
F0F1E0
7071C0
7071C0
787BC0
3C3F80
3E3F80
1FFF00
0FFFF0
03FFF0
0001F0
ENDCHAR
STARTCHAR uni04A9
ENCODING -1
SWIDTH 600 0
DWIDTH 22 0
BBX 18 20 2 -1
BITMAP
03F000
0FF000
3FE000
3C0000
783E00
707F80
F0FF80
E1E3C0
E1E1C0
E1C1C0
E1C1C0
E1C1C0
F1E3C0
70E380
78F780
3C7F00
3FFE00
0FFFC0
03FFC0
0003C0
ENDCHAR
STARTCHAR uni04AA
ENCODING -1
SWIDTH 600 0
DWIDTH 22 0
BBX 19 34 2 -8
BITMAP
00FF00
03FFE0
0FFFC0
1F80C0
3E0000
3C0000
780000
780000
700000
F00000
F00000
F00000
E00000
E00000
F00000
F00000
F00000
F00000
700000
780000
3C0000
3E0000
1F80C0
0FFFC0
07FFC0
00FF00
003800
001C00
000C00
000E00
000E00
000E00
007E00
007800
ENDCHAR
STARTCHAR uni04AB
ENCODING -1
SWIDTH 600 0
DWIDTH 22 0
BBX 16 27 3 -8
BITMAP
03FC
0FFF
1FFE
3C02
7800
7000
F000
E000
E000
E000
E000
E000
F000
7000
7800
3C01
1FFF
0FFF
03FC
01C0
00E0
0060
0070
0070
0070
03F0
03C0
ENDCHAR
STARTCHAR uni04AC
ENCODING -1
SWIDTH 600 0
DWIDTH 22 0
BBX 18 33 2 -7
BITMAP
FFFFC0
FFFFC0
FFFFC0
01C000
01C000
01C000
01C000
01C000
01C000
01C000
01C000
01C000
01C000
01C000
01C000
01C000
01C000
01C000
01C000
01C000
01C000
01C000
01C000
01F800
01F800
01F800
003800
003800
003800
003800
003800
003800
003800
ENDCHAR
STARTCHAR uni04AD
ENCODING -1
SWIDTH 600 0
DWIDTH 22 0
BBX 17 26 2 -7
BITMAP
FFFF80
FFFF80
FFFF80
01C000
01C000
01C000
01C000
01C000
01C000
01C000
01C000
01C000
01C000
01C000
01C000
01C000
01F800
01F800
01F800
003800
003800
003800
003800
003800
003800
003800
ENDCHAR
STARTCHAR uni04AE
ENCODING -1
SWIDTH 600 0
DWIDTH 22 0
BBX 21 26 0 0
BITMAP
F00078
700070
7800F0
3800E0
1C01E0
1C01C0
0E0380
0F0380
070700
078700
038E00
03CE00
01DC00
00FC00
00F800
007800
007000
007000
007000
007000
007000
007000
007000
007000
007000
007000
ENDCHAR
STARTCHAR uni04AF
ENCODING -1
SWIDTH 600 0
DWIDTH 22 0
BBX 19 28 1 -9
BITMAP
F001E0
7001C0
7001C0
7803C0
380380
3C0380
1C0700
1C0700
0E0F00
0E0E00
0F0E00
071C00
071C00
039C00
03B800
03B800
01B000
01F000
00F000
00E000
00E000
00E000
00E000
00E000
00E000
00E000
00E000
00E000
ENDCHAR
STARTCHAR uni04B0
ENCODING -1
SWIDTH 600 0
DWIDTH 22 0
BBX 21 26 0 0
BITMAP
F00078
700070
7800F0
3800E0
1C01E0
1E01C0
0E0380
0F0380
070700
078700
038E00
03DE00
01DC00
00FC00
00F800
007800
007000
0FFF80
0FFF80
0FFF80
007000
007000
007000
007000
007000
007000
ENDCHAR
STARTCHAR uni04B1
ENCODING -1
SWIDTH 600 0
DWIDTH 22 0
BBX 19 28 1 -9
BITMAP
F001E0
7001C0
7001C0
7803C0
380380
3C0380
1C0700
1C0700
0E0F00
0E0E00
0F0E00
071C00
071C00
03B800
03B800
01B800
01F000
01F000
00E000
1FFF00
1FFF00
00E000
00E000
00E000
00E000
00E000
00E000
00E000
ENDCHAR
STARTCHAR uni04B2
ENCODING -1
SWIDTH 600 0
DWIDTH 22 0
BBX 20 33 1 -7
BITMAP
7801E0
3801C0
3C03C0
1C0380
0E0700
0F0700
070E00
079E00
039C00
03F800
01F800
00F000
00F000
01F000
01F800
03BC00
039C00
071E00
0F0E00
0E0F00
1E0700
1C0780
380380
7803F0
7001F0
F001F0
000070
000070
000070
000070
000070
000070
000070
ENDCHAR
STARTCHAR uni04B3
ENCODING -1
SWIDTH 600 0
DWIDTH 22 0
BBX 19 26 2 -7
BITMAP
F003C0
780780
3C0F00
1C0E00
1E1E00
0F3C00
07F800
03F000
01E000
01E000
03F000
07F800
073800
0F3C00
1E1E00
1C0F00
3807E0
7807E0
F003E0
0000E0
0000E0
0000E0
0000E0
0000E0
0000E0
0000E0
ENDCHAR
STARTCHAR uni04B4
ENCODING -1
SWIDTH 600 0
DWIDTH 22 0
BBX 20 33 1 -7
BITMAP
FFE380
FFE380
FFE380
0E0380
0E0380
0E0380
0E0380
0E0380
0E0380
0E0380
0E0380
0E0380
0E0380
0E0380
0E0380
0E0380
0E0380
0E0380
0E0380
0E0380
0E0380
0E0380
0E0380
0FFFF0
0FFFF0
0FFFF0
000070
000070
000070
000070
000070
000070
000070
ENDCHAR
STARTCHAR uni04B5
ENCODING -1
SWIDTH 600 0
DWIDTH 22 0
BBX 21 26 0 -7
BITMAP
FFE1C0
FFE1C0
FFE1C0
0E01C0
0E01C0
0E01C0
0E01C0
0E01C0
0E01C0
0E01C0
0E01C0
0E01C0
0E01C0
0E01C0
0E01C0
0E01C0
0FFFF8
0FFFF8
0FFFF8
000038
000038
000038
000038
000038
000038
000038
ENDCHAR
STARTCHAR uni04B6
ENCODING -1
SWIDTH 600 0
DWIDTH 22 0
BBX 19 33 2 -7
BITMAP
E00700
E00700
E00700
E00700
E00700
E00700
E00700
E00700
E00700
E00700
E00700
E00700
F00700
781F00
7FFF00
3FFF00
0FE700
000700
000700
000700
000700
000700
000700
0007E0
0007E0
0007E0
0000E0
0000E0
0000E0
0000E0
0000E0
0000E0
0000E0
ENDCHAR
STARTCHAR uni04B7
ENCODING -1
SWIDTH 600 0
DWIDTH 22 0
BBX 18 26 3 -7
BITMAP
E00E00
E00E00
E00E00
E00E00
E00E00
E00E00
E00E00
E00E00
E00E00
F03E00
7FFE00
3FEE00
1F8E00
000E00
000E00
000E00
000FC0
000FC0
000FC0
0001C0
0001C0
0001C0
0001C0
0001C0
0001C0
0001C0
ENDCHAR
STARTCHAR uni04B8
ENCODING -1
SWIDTH 600 0
DWIDTH 22 0
BBX 18 26 2 0
BITMAP
E001C0
E001C0
E001C0
E001C0
E001C0
E001C0
E001C0
E001C0
E0C1C0
E0C1C0
E0C1C0
E0C1C0
F0C1C0
78CFC0
7FFFC0
3FFFC0
0FE1C0
00C1C0
00C1C0
00C1C0
00C1C0
00C1C0
0001C0
0001C0
0001C0
0001C0
ENDCHAR
STARTCHAR uni04B9
ENCODING -1
SWIDTH 600 0
DWIDTH 22 0
BBX 16 19 3 0
BITMAP
E007
E007
E007
E007
E007
E1C7
E1C7
E1C7
E1CF
F1FF
7FFF
3FF7
1FC7
01C7
01C7
01C7
01C7
0007
0007
ENDCHAR
STARTCHAR uni04BA
ENCODING -1
SWIDTH 600 0
DWIDTH 22 0
BBX 18 26 2 0
BITMAP
E00000
E00000
E00000
E00000
E00000
E00000
E00000
E00000
E00000
E1FC00
FFFF00
FFFF80
FC0780
E003C0
E001C0
E001C0
E001C0
E001C0
E001C0
E001C0
E001C0
E001C0
E001C0
E001C0
E001C0
E001C0
ENDCHAR
STARTCHAR uni04BB
ENCODING -1
SWIDTH 600 0
DWIDTH 22 0
BBX 16 19 3 0
BITMAP
E000
E000
E000
E000
E000
E000
E1F8
EFFC
FFFE
F80F
E007
E007
E007
E007
E007
E007
E007
E007
E007
ENDCHAR
STARTCHAR uni04BC
ENCODING -1
SWIDTH 600 0
DWIDTH 22 0
BBX 21 26 0 0
BITMAP
003F00
007FC0
00FFE0
01E0F0
03C0F0
03C070
038078
E78078
E78078
E78078
E70038
FFFFF8
7FFFF8
1FFFF8
070000
078000
078000
078000
038000
038000
03C000
01E000
01F030
00FFF0
007FF0
001FC0
ENDCHAR
STARTCHAR uni04BD
ENCODING -1
SWIDTH 600 0
DWIDTH 22 0
BBX 21 19 -1 0
BITMAP
003F00
00FFC0
01FFE0
01C0F0
E38070
E38078
E78038
E70038
FFFFF8
7FFFF8
0FFFF8
070000
078000
078000
038000
03E030
01FFF0
00FFF0
003FC0
ENDCHAR
STARTCHAR uni04BE
ENCODING -1
SWIDTH 600 0
DWIDTH 22 0
BBX 21 32 0 -6
BITMAP
003F00
007FC0
00FFE0
01E0F0
03C0F0
03C070
038078
E78078
E78078
E78078
E70038
FFFFF8
7FFFF8
1FFFF8
070000
078000
078000
078000
038000
038000
03C000
01E000
01F030
00FFF0
007FF0
001FC0
000E00
000E00
000E00
000E00
000E00
000E00
ENDCHAR
STARTCHAR uni04BF
ENCODING -1
SWIDTH 600 0
DWIDTH 22 0
BBX 21 25 -1 -6
BITMAP
003F00
00FFC0
01FFE0
01C0F0
E38070
E38078
E78038
E70038
FFFFF8
7FFFF8
0FFFF8
070000
078000
078000
038000
03E030
01FFF0
00FFF0
001FC0
000E00
000E00
000E00
000E00
000E00
000E00
ENDCHAR
STARTCHAR uni04C0
ENCODING -1
SWIDTH 600 0
DWIDTH 22 0
BBX 13 26 4 0
BITMAP
FFF8
FFF8
0700
0700
0700
0700
0700
0700
0700
0700
0700
0700
0700
0700
0700
0700
0700
0700
0700
0700
0700
0700
0700
0780
FFF8
FFF8
ENDCHAR
STARTCHAR uni04C1
ENCODING -1
SWIDTH 600 0
DWIDTH 22 0
BBX 22 34 0 0
BITMAP
0701C0
0701C0
0783C0
03C780
01FF00
00FC00
000000
000000
E0381C
70383C
703838
383878
383870
1C3870
0E38E0
0E38E0
0739C0
0739C0
03BB80
03BB80
01FF00
01FB80
03BB80
07BB80
0739C0
0F39C0
0E38E0
1C38E0
1C3870
383870
383878
703838
70383C
E0381C
ENDCHAR
STARTCHAR uni04C2
ENCODING -1
SWIDTH 600 0
DWIDTH 22 0
BBX 22 28 0 0
BITMAP
0701C0
0701C0
0783C0
03C780
01FF00
00FC00
000000
000000
000000
E0381C
703838
383878
1C3870
1C38E0
0E38E0
0739C0
03BB80
03BB80
01FF00
03BB80
07BBC0
0739C0
0E38E0
1C38E0
3C3870
383878
703838
F0381C
ENDCHAR
STARTCHAR uni04C3
ENCODING -1
SWIDTH 600 0
DWIDTH 22 0
BBX 18 35 2 -9
BITMAP
E003C0
E00780
E00F00
E01E00
E03C00
E03800
E07000
E0E000
E1E000
E3C000
E78000
E70000
EF0000
FFF000
FFFC00
E03E00
E01F00
E00780
E00780
E00380
E003C0
E003C0
E003C0
E001C0
E003C0
E003C0
0003C0
0003C0
000380
000780
000F00
101F00
1FFE00
1FFC00
0FF000
ENDCHAR
STARTCHAR uni04C4
ENCODING -1
SWIDTH 600 0
DWIDTH 22 0
BBX 16 28 4 -9
BITMAP
E00F
E01E
E03C
E070
E0E0
E1C0
E780
EF00
FE00
FFF0
FFF8
E07C
E01E
E00E
E00F
E00F
E007
E007
E007
0007
000F
000F
000E
001E
103C
1FFC
1FF0
0FC0
ENDCHAR
STARTCHAR uni04C5
ENCODING -1
SWIDTH 600 0
DWIDTH 22 0
BBX 22 33 0 -7
BITMAP
00FFE0
00FFE0
00FFE0
00E0E0
01C0E0
01C0E0
01C0E0
01C0E0
01C0E0
01C0E0
01C0E0
03C0E0
0380E0
0380E0
0380E0
0380E0
0380E0
0780E0
0700E0
0700E0
0700E0
0F00E0
0E00E0
FE00FC
FC00FC
F800F8
000038
000038
000070
000070
000070
0000E0
0000E0
ENDCHAR
STARTCHAR uni04C6
ENCODING -1
SWIDTH 600 0
DWIDTH 22 0
BBX 20 26 1 -7
BITMAP
03FF80
03FF80
03FF80
038380
038380
070380
070380
070380
070380
070380
070380
0F0380
0E0380
0E0380
1E0380
1C0380
3C03F0
F803F0
F003F0
000060
0000E0
0000E0
0000E0
0001E0
0001C0
0001C0
ENDCHAR
STARTCHAR uni04C7
ENCODING -1
SWIDTH 600 0
DWIDTH 22 0
BBX 18 35 2 -9
BITMAP
E001C0
E001C0
E001C0
E001C0
E001C0
E001C0
E001C0
E001C0
E001C0
E001C0
E001C0
FFFFC0
FFFFC0
FFFFC0
E001C0
E001C0
E001C0
E001C0
E001C0
E001C0
E001C0
E001C0
E001C0
E001C0
E001C0
E001C0
0003C0
0003C0
000380
000780
000780
081F00
0FFE00
0FFC00
07F000
ENDCHAR
STARTCHAR uni04C8
ENCODING -1
SWIDTH 600 0
DWIDTH 22 0
BBX 16 28 3 -9
BITMAP
E007
E007
E007
E007
E007
E007
E007
E007
FFFF
FFFF
FFFF
E007
E007
E007
E007
E007
E007
E007
E007
0007
0007
000F
000F
000E
041E
07FC
07F8
03F0
ENDCHAR
STARTCHAR uni04C9
ENCODING -1
SWIDTH 600 0
DWIDTH 22 0
BBX 20 33 2 -7
BITMAP
E00380
E00380
E00380
E00380
E00380
E00380
E00380
E00380
E00380
E00380
E00380
FFFF80
FFFF80
FFFF80
E00380
E00380
E00380
E00380
E00380
E00380
E00380
E00380
E00380
E003F0
E003F0
E003E0
0000E0
0000E0
0001C0
0001C0
0001C0
000380
000380
ENDCHAR
STARTCHAR uni04CA
ENCODING -1
SWIDTH 600 0
DWIDTH 22 0
BBX 18 26 3 -7
BITMAP
E00E00
E00E00
E00E00
E00E00
E00E00
E00E00
E00E00
E00E00
FFFE00
FFFE00
FFFE00
E00E00
E00E00
E00E00
E00E00
E00E00
E00FC0
E00FC0
E00FC0
000180
000380
000380
000380
000380
000700
000700
ENDCHAR
STARTCHAR uni04CB
ENCODING -1
SWIDTH 600 0
DWIDTH 22 0
BBX 18 33 2 -7
BITMAP
E001C0
E001C0
E001C0
E001C0
E001C0
E001C0
E001C0
E001C0
E001C0
E001C0
E001C0
E001C0
F001C0
781FC0
7FFFC0
3FFDC0
0FE1C0
0001C0
0001C0
0001C0
0001C0
0001C0
0001C0
000FC0
000FC0
000FC0
000E00
000E00
000E00
000E00
000E00
000E00
000E00
ENDCHAR
STARTCHAR uni04CC
ENCODING -1
SWIDTH 600 0
DWIDTH 22 0
BBX 16 26 3 -7
BITMAP
E007
E007
E007
E007
E007
E007
E007
E007
F00F
F83F
7FFF
3FE7
0707
0007
0007
0007
003F
003F
003F
0038
0038
0038
0038
0038
0038
0038
ENDCHAR
STARTCHAR uni04CD
ENCODING -1
SWIDTH 600 0
DWIDTH 22 0
BBX 20 33 2 -7
BITMAP
F00780
F80F80
F80F80
D80D80
D80F80
D80F80
FC1F80
FC1F80
EC1B80
EC1B80
EC1B80
EE3B80
EE3B80
E63380
E63380
E63380
E67380
E77380
E36380
E36380
E36380
E3E380
E3E380
E1C3F0
E1C3F0
E1C3E0
0000E0
0000E0
0001C0
0001C0
0001C0
000380
000380
ENDCHAR
STARTCHAR uni04CE
ENCODING -1
SWIDTH 600 0
DWIDTH 22 0
BBX 19 26 2 -7
BITMAP
F00F00
F00F00
F00F00
F81F00
F81F00
F81F00
FC3F00
EC3700
EC3700
EC3700
EE7700
E66700
E66700
E66700
E3C700
E3C700
E3C7E0
E3C7E0
E187E0
0000C0
0000C0
0001C0
0001C0
0001C0
000380
000380
ENDCHAR
STARTCHAR uni04CF
ENCODING -1
SWIDTH 600 0
DWIDTH 22 0
BBX 13 26 4 0
BITMAP
FFF8
FFF8
0700
0700
0700
0700
0700
0700
0700
0700
0700
0700
0700
0700
0700
0700
0700
0700
0700
0700
0700
0700
0700
0780
FFF8
FFF8
ENDCHAR
STARTCHAR uni04D0
ENCODING -1
SWIDTH 600 0
DWIDTH 22 0
BBX 20 34 1 0
BITMAP
0E0380
0E0380
0F0780
078F00
03FE00
01F800
000000
000000
00F000
00F000
01F800
01F800
01F800
01F800
039C00
039C00
039C00
070E00
070E00
070E00
0F0700
0E0700
0E0700
1FFF80
1FFF80
1FFF80
3C03C0
3801C0
3801C0
7801E0
7000E0
7000E0
F000F0
F000F0
ENDCHAR
STARTCHAR uni04D1
ENCODING -1
SWIDTH 600 0
DWIDTH 22 0
BBX 16 28 2 0
BITMAP
380E
380E
3C1E
1E3C
0FF8
07E0
0000
0000
0000
07F0
3FFC
3FFE
301F
000F
0007
0007
0007
03FF
1FFF
7F07
F007
F007
E00F
E00F
F01F
7FF7
3FE7
1FC3
ENDCHAR
STARTCHAR uni04D2
ENCODING -1
SWIDTH 600 0
DWIDTH 22 0
BBX 20 33 1 0
BITMAP
070E00
070E00
070E00
070E00
000000
000000
000000
00F000
00F000
01F800
01F800
01F800
01F800
039C00
039C00
039C00
070E00
070E00
070E00
0F0700
0E0700
0E0700
1FFF80
1FFF80
1FFF80
3C03C0
3801C0
3801C0
7801E0
7000E0
7000E0
F000F0
F000F0
ENDCHAR
STARTCHAR uni04D3
ENCODING -1
SWIDTH 600 0
DWIDTH 22 0
BBX 16 27 2 0
BITMAP
0E1C
0E1C
0E1C
0E1C
0000
0000
0000
0000
07F0
3FFC
3FFE
301F
000F
0007
0007
0007
03FF
1FFF
7F07
F007
F007
E00F
E00F
F01F
7FF7
3FE7
1FC3
ENDCHAR
STARTCHAR uni04D4
ENCODING -1
SWIDTH 600 0
DWIDTH 22 0
BBX 21 26 0 0
BITMAP
03FFF8
03FFF8
07FFF8
073800
073800
063800
0E3800
0E3800
0E3800
0E3800
0C3800
1C3FF0
1C3FF0
1C3FF0
1C3800
3FF800
3FF800
3FF800
383800
703800
703800
703800
703800
703FF8
E03FF8
E03FF8
ENDCHAR
STARTCHAR uni04D5
ENCODING -1
SWIDTH 600 0
DWIDTH 22 0
BBX 20 19 1 0
BITMAP
1F0F80
7F9FC0
3FFFE0
21F8E0
00F0E0
00F070
00E070
00E070
1FFFF0
3FFFF0
7CFFF0
F0E000
E0E000
E0F000
E1F000
F1B830
FFBFF0
7F1FF0
3C07C0
ENDCHAR
STARTCHAR uni04D6
ENCODING -1
SWIDTH 600 0
DWIDTH 22 0
BBX 15 34 4 0
BITMAP
701C
701C
783C
3C78
1FF0
0FC0
0000
0000
FFFE
FFFE
FFFE
E000
E000
E000
E000
E000
E000
E000
E000
FFFC
FFFC
FFFC
E000
E000
E000
E000
E000
E000
E000
E000
E000
FFFE
FFFE
FFFE
ENDCHAR
STARTCHAR uni04D7
ENCODING -1
SWIDTH 600 0
DWIDTH 22 0
BBX 18 28 2 0
BITMAP
1C0700
1C0700
1E0F00
0F1E00
07FC00
03F000
000000
000000
000000
03F800
0FFE00
1FFF00
3C0780
780380
7003C0
F001C0
E001C0
FFFFC0
FFFFC0
FFFFC0
E00000
F00000
700000
780000
3C0180
1FFF80
0FFF80
03FE00
ENDCHAR
STARTCHAR uni04D8
ENCODING -1
SWIDTH 600 0
DWIDTH 22 0
BBX 20 26 1 0
BITMAP
0FF800
3FFE00
3FFF00
300F80
0003C0
0001C0
0001E0
0000E0
0000E0
0000F0
0000F0
0000F0
FFFFF0
FFFFF0
FFFFF0
E000F0
F000F0
F000F0
F000E0
7001E0
7801E0
7803C0
3E0F80
1FFF00
0FFE00
03F800
ENDCHAR
STARTCHAR uni04D9
ENCODING -1
SWIDTH 600 0
DWIDTH 22 0
BBX 18 19 2 0
BITMAP
0FE000
7FFC00
7FFE00
600F00
000780
000380
0003C0
0001C0
0001C0
FFFFC0
FFFFC0
FFFFC0
E003C0
F00380
700380
780F00
3FFE00
1FFC00
07F000
ENDCHAR
STARTCHAR uni04DA
ENCODING -1
SWIDTH 600 0
DWIDTH 22 0
BBX 20 33 1 0
BITMAP
070E00
070E00
070E00
070E00
000000
000000
000000
0FF800
3FFE00
3FFF00
300F80
0003C0
0001C0
0001E0
0000E0
0000E0
0000F0
0000F0
0000F0
FFFFF0
FFFFF0
FFFFF0
E000F0
F000F0
F000F0
F000E0
7001E0
7801E0
7803C0
3E0F80
1FFF00
0FFE00
03F800
ENDCHAR
STARTCHAR uni04DB
ENCODING -1
SWIDTH 600 0
DWIDTH 22 0
BBX 18 27 2 0
BITMAP
0E1C00
0E1C00
0E1C00
0E1C00
000000
000000
000000
000000
0FE000
7FFC00
7FFE00
600F00
000780
000380
0003C0
0001C0
0001C0
FFFFC0
FFFFC0
FFFFC0
E003C0
F00380
700380
780F00
3FFE00
1FFC00
07F000
ENDCHAR
STARTCHAR uni04DC
ENCODING -1
SWIDTH 600 0
DWIDTH 22 0
BBX 22 33 0 0
BITMAP
038700
038700
038700
038700
000000
000000
000000
E0381C
70383C
703838
383878
383870
1C3870
0E38E0
0E38E0
0739C0
0739C0
03BB80
03BB80
01FF00
01FB80
03BB80
07BB80
0739C0
0F39C0
0E38E0
1C38E0
1C3870
383870
383878
703838
70383C
E0381C
ENDCHAR
STARTCHAR uni04DD
ENCODING -1
SWIDTH 600 0
DWIDTH 22 0
BBX 22 27 0 0
BITMAP
038700
038700
038700
038700
000000
000000
000000
000000
E0381C
703838
383878
1C3870
1C38E0
0E38E0
0739C0
03BB80
03BB80
01FF00
03BB80
07BBC0
0739C0
0E38E0
1C38E0
3C3870
383878
703838
F0381C
ENDCHAR
STARTCHAR uni04DE
ENCODING -1
SWIDTH 600 0
DWIDTH 22 0
BBX 17 33 2 0
BITMAP
0E1C00
0E1C00
0E1C00
0E1C00
000000
000000
000000
07F000
3FFE00
FFFF00
780F00
000780
000780
000380
000780
000700
000F00
003E00
1FF800
1FF000
1FFC00
001F00
000F00
000780
000780
000380
000780
000780
000F00
C01F00
FFFE00
FFFC00
3FE000
ENDCHAR
STARTCHAR uni04DF
ENCODING -1
SWIDTH 600 0
DWIDTH 22 0
BBX 15 27 4 0
BITMAP
1C38
1C38
1C38
1C38
0000
0000
0000
0000
3FC0
FFF0
FFF8
403C
001C
001C
001C
0078
1FF0
1FE0
1FF8
001C
000E
000E
000E
C01E
FFFC
FFF8
3FE0
ENDCHAR
STARTCHAR uni04E0
ENCODING -1
SWIDTH 600 0
DWIDTH 22 0
BBX 17 26 3 0
BITMAP
7FFF00
7FFF00
7FFF00
000E00
001C00
003800
007000
00E000
01C000
038000
070000
0F0000
0FF800
0FFE00
003F00
000F00
000780
000780
000380
000780
000780
000F00
E01F00
FFFE00
FFFC00
3FE000
ENDCHAR
STARTCHAR uni04E1
ENCODING -1
SWIDTH 600 0
DWIDTH 22 0
BBX 16 28 3 -9
BITMAP
FFFE
FFFE
FFFE
001C
0038
0078
00F0
01E0
01C0
0380
0780
0F00
0FF0
0FF8
007C
001E
000F
0007
0007
0007
0007
0007
000E
001E
C03C
FFFC
FFF0
3FC0
ENDCHAR
STARTCHAR uni04E2
ENCODING -1
SWIDTH 600 0
DWIDTH 22 0
BBX 18 31 2 0
BITMAP
0FFC00
0FFC00
0FFC00
000000
000000
E003C0
E007C0
E007C0
E00FC0
E00FC0
E01FC0
E01DC0
E03DC0
E039C0
E071C0
E071C0
E0E1C0
E0E1C0
E1C1C0
E1C1C0
E381C0
E381C0
E701C0
EF01C0
EE01C0
FE01C0
FC01C0
FC01C0
F801C0
F801C0
F001C0
ENDCHAR
STARTCHAR uni04E3
ENCODING -1
SWIDTH 600 0
DWIDTH 22 0
BBX 16 25 3 0
BITMAP
1FF8
1FF8
1FF8
0000
0000
0000
E00F
E01F
E03F
E03F
E077
E077
E0E7
E0E7
E1C7
E3C7
E387
E707
E707
EE07
EE07
FC07
FC07
F807
F007
ENDCHAR
STARTCHAR uni04E4
ENCODING -1
SWIDTH 600 0
DWIDTH 22 0
BBX 18 33 2 0
BITMAP
0E1C00
0E1C00
0E1C00
0E1C00
000000
000000
000000
E003C0
E007C0
E007C0
E00FC0
E00FC0
E01FC0
E01DC0
E03DC0
E039C0
E071C0
E071C0
E0E1C0
E0E1C0
E1C1C0
E1C1C0
E381C0
E381C0
E701C0
EF01C0
EE01C0
FE01C0
FC01C0
FC01C0
F801C0
F801C0
F001C0
ENDCHAR
STARTCHAR uni04E5
ENCODING -1
SWIDTH 600 0
DWIDTH 22 0
BBX 16 27 3 0
BITMAP
1C38
1C38
1C38
1C38
0000
0000
0000
0000
E00F
E01F
E03F
E03F
E077
E077
E0E7
E0E7
E1C7
E3C7
E387
E707
E707
EE07
EE07
FC07
FC07
F807
F007
ENDCHAR
STARTCHAR uni04E6
ENCODING -1
SWIDTH 600 0
DWIDTH 22 0
BBX 20 33 1 0
BITMAP
070E00
070E00
070E00
070E00
000000
000000
000000
01F800
0FFE00
1FFF80
3E07C0
3C03C0
7801E0
7800E0
7000E0
F000F0
F000F0
F000F0
F000F0
E00070
E00070
F000F0
F000F0
F000F0
F000F0
7000E0
7801E0
7801E0
3C03C0
3E07C0
1FFF80
0FFE00
03F800
ENDCHAR
STARTCHAR uni04E7
ENCODING -1
SWIDTH 600 0
DWIDTH 22 0
BBX 18 27 2 0
BITMAP
0E1C00
0E1C00
0E1C00
0E1C00
000000
000000
000000
000000
03F000
0FFC00
3FFE00
3C0F00
780780
700380
F003C0
E001C0
E001C0
E001C0
E001C0
E001C0
F003C0
700380
780780
3C0F00
1FFE00
0FFC00
03F000
ENDCHAR
STARTCHAR uni04E8
ENCODING -1
SWIDTH 600 0
DWIDTH 22 0
BBX 20 26 1 0
BITMAP
01F800
0FFE00
1FFF80
3E07C0
3C03C0
7801E0
7000E0
7000E0
F000F0
F000F0
F000F0
FFFFF0
FFFFF0
FFFFF0
E000F0
F000F0
F000F0
F000F0
7000E0
7801E0
7801E0
3C03C0
3E07C0
1FFF80
0FFE00
03F800
ENDCHAR
STARTCHAR uni04E9
ENCODING -1
SWIDTH 600 0
DWIDTH 22 0
BBX 18 19 2 0
BITMAP
03F000
0FFC00
3FFE00
3C0F00
780780
700380
F003C0
E001C0
FFFFC0
FFFFC0
FFFFC0
E001C0
F003C0
700380
780780
3C0F00
1FFF00
0FFC00
03F000
ENDCHAR
STARTCHAR uni04EA
ENCODING -1
SWIDTH 600 0
DWIDTH 22 0
BBX 20 33 1 0
BITMAP
070E00
070E00
070E00
070E00
000000
000000
000000
01F800
0FFE00
1FFF80
3E07C0
3C03C0
7801E0
7000E0
7000E0
F000F0
F000F0
F000F0
FFFFF0
FFFFF0
FFFFF0
E000F0
F000F0
F000F0
F000F0
7000E0
7801E0
7801E0
3C03C0
3E07C0
1FFF80
0FFE00
03F800
ENDCHAR
STARTCHAR uni04EB
ENCODING -1
SWIDTH 600 0
DWIDTH 22 0
BBX 18 27 2 0
BITMAP
0E1C00
0E1C00
0E1C00
0E1C00
000000
000000
000000
000000
03F000
0FFC00
3FFE00
3C0F00
780780
700380
F003C0
E001C0
FFFFC0
FFFFC0
FFFFC0
E001C0
F003C0
700380
780780
3C0F00
1FFF00
0FFC00
03F000
ENDCHAR
STARTCHAR uni04EC
ENCODING -1
SWIDTH 600 0
DWIDTH 22 0
BBX 19 33 1 0
BITMAP
1C3800
1C3800
1C3800
1C3800
000000
000000
000000
1FE000
FFF800
FFFE00
603F00
000F80
000780
0003C0
0001C0
0001E0
0001E0
0001E0
0FFFE0
0FFFE0
0FFFE0
0001E0
0001E0
0001E0
0001C0
0001C0
0003C0
000780
000F80
C03F00
FFFE00
FFF800
3FE000
ENDCHAR
STARTCHAR uni04ED
ENCODING -1
SWIDTH 600 0
DWIDTH 22 0
BBX 16 27 3 0
BITMAP
3870
3870
3870
3870
0000
0000
0000
0000
3FC0
FFF0
FFFC
403C
001E
000E
000F
0007
1FFF
1FFF
1FFF
0007
000F
000E
001E
803C
FFF8
FFF0
3FC0
ENDCHAR
STARTCHAR uni04EE
ENCODING -1
SWIDTH 600 0
DWIDTH 22 0
BBX 21 31 0 0
BITMAP
03FF00
03FF00
03FF00
000000
000000
F00078
700070
780070
3800E0
3C00E0
1C01E0
1E01C0
0E03C0
0F0380
070380
078700
038700
03CF00
01CE00
01CE00
00FC00
00FC00
007800
007800
007800
007000
00F000
41E000
7FC000
7F8000
7E0000
ENDCHAR
STARTCHAR uni04EF
ENCODING -1
SWIDTH 600 0
DWIDTH 22 0
BBX 20 34 1 -9
BITMAP
07FE00
07FE00
07FE00
000000
000000
000000
F000F0
7000E0
7000E0
3801E0
3801C0
3C03C0
1C0380
1E0780
0E0700
0F0700
070F00
070E00
039E00
039C00
01DC00
01FC00
01F800
00F800
00F000
00F000
00E000
00E000
01E000
01C000
03C000
FF8000
FF0000
FC0000
ENDCHAR
STARTCHAR uni04F0
ENCODING -1
SWIDTH 600 0
DWIDTH 22 0
BBX 21 33 0 0
BITMAP
038700
038700
038700
038700
000000
000000
000000
F00078
700070
780070
3800E0
3C00E0
1C01E0
1E01C0
0E03C0
0F0380
070380
078700
038700
03CF00
01CE00
01CE00
00FC00
00FC00
007800
007800
007800
007000
00F000
41E000
7FC000
7F8000
7E0000
ENDCHAR
STARTCHAR uni04F1
ENCODING -1
SWIDTH 600 0
DWIDTH 22 0
BBX 20 36 1 -9
BITMAP
070E00
070E00
070E00
070E00
000000
000000
000000
000000
F000F0
7000E0
7000E0
3801E0
3801C0
3C03C0
1C0380
1E0780
0E0700
0F0700
070F00
070E00
039E00
039C00
01DC00
01FC00
01F800
00F800
00F000
00F000
00E000
00E000
01E000
01C000
03C000
FF8000
FF0000
FC0000
ENDCHAR
STARTCHAR uni04F2
ENCODING -1
SWIDTH 600 0
DWIDTH 22 0
BBX 21 34 0 0
BITMAP
0079E0
00F3C0
00E380
01C780
01C600
030C00
000000
000000
F00078
700070
780070
3800E0
3C00E0
1C01E0
1E01C0
0E03C0
0F0380
070380
078700
038700
03CF00
01CE00
01CE00
00FC00
00FC00
007800
007800
007800
007000
00F000
41E000
7FC000
7F8000
7E0000
ENDCHAR
STARTCHAR uni04F3
ENCODING -1
SWIDTH 600 0
DWIDTH 22 0
BBX 20 37 1 -9
BITMAP
00F3C0
01E780
01C700
038F00
038C00
061800
000000
000000
000000
F000F0
7000E0
7000E0
3801E0
3801C0
3C03C0
1C0380
1E0780
0E0700
0F0700
070F00
070E00
039E00
039C00
01DC00
01FC00
01F800
00F800
00F000
00F000
00E000
00E000
01E000
01C000
03C000
FF8000
FF0000
FC0000
ENDCHAR
STARTCHAR uni04F4
ENCODING -1
SWIDTH 600 0
DWIDTH 22 0
BBX 18 33 2 0
BITMAP
0E1C00
0E1C00
0E1C00
0E1C00
000000
000000
000000
E001C0
E001C0
E001C0
E001C0
E001C0
E001C0
E001C0
E001C0
E001C0
E001C0
E001C0
E001C0
F001C0
780FC0
7FFFC0
3FFFC0
0FE1C0
0001C0
0001C0
0001C0
0001C0
0001C0
0001C0
0001C0
0001C0
0001C0
ENDCHAR
STARTCHAR uni04F5
ENCODING -1
SWIDTH 600 0
DWIDTH 22 0
BBX 16 27 3 0
BITMAP
1C38
1C38
1C38
1C38
0000
0000
0000
0000
E007
E007
E007
E007
E007
E007
E007
E007
E00F
F01F
7FFF
3FF7
1F87
0007
0007
0007
0007
0007
0007
ENDCHAR
STARTCHAR uni04F6
ENCODING -1
SWIDTH 600 0
DWIDTH 22 0
BBX 15 33 5 -7
BITMAP
FFFE
FFFE
FFFE
E000
E000
E000
E000
E000
E000
E000
E000
E000
E000
E000
E000
E000
E000
E000
E000
E000
E000
E000
E000
FC00
FC00
FC00
1C00
1C00
1C00
1C00
1C00
1C00
1C00
ENDCHAR
STARTCHAR uni04F7
ENCODING -1
SWIDTH 600 0
DWIDTH 22 0
BBX 14 26 5 -7
BITMAP
FFFC
FFFC
FFFC
E000
E000
E000
E000
E000
E000
E000
E000
E000
E000
E000
E000
E000
FC00
FC00
FC00
1C00
1C00
1C00
1C00
1C00
1C00
1C00
ENDCHAR
STARTCHAR uni04F8
ENCODING -1
SWIDTH 600 0
DWIDTH 22 0
BBX 18 33 2 0
BITMAP
0E1C00
0E1C00
0E1C00
0E1C00
000000
000000
000000
E001C0
E001C0
E001C0
E001C0
E001C0
E001C0
E001C0
E001C0
E001C0
E001C0
E001C0
FF01C0
FFC1C0
FFE1C0
E0F1C0
E079C0
E039C0
E039C0
E039C0
E039C0
E039C0
E071C0
E0F1C0
FFE1C0
FFC1C0
FF01C0
ENDCHAR
STARTCHAR uni04F9
ENCODING -1
SWIDTH 600 0
DWIDTH 22 0
BBX 18 27 2 0
BITMAP
0E1C00
0E1C00
0E1C00
0E1C00
000000
000000
000000
000000
E001C0
E001C0
E001C0
E001C0
E001C0
E001C0
E001C0
E001C0
FF81C0
FFE1C0
FFF1C0
E079C0
E039C0
E039C0
E039C0
E079C0
FFF1C0
FFE1C0
FF81C0
ENDCHAR
STARTCHAR uni04FA
ENCODING -1
SWIDTH 600 0
DWIDTH 22 0
BBX 18 33 2 -7
BITMAP
1FFFC0
1FFFC0
1FFFC0
1C0000
1C0000
1C0000
1C0000
1C0000
1C0000
1C0000
1C0000
1C0000
FFF000
FFF000
FFF000
1C0000
1C0000
1C0000
1C0000
1C0000
1C0000
1C0000
1C0000
1F8000
1F8000
1F8000
038000
038000
038000
038000
3F0000
3F0000
3E0000
ENDCHAR
STARTCHAR uni04FB
ENCODING -1
SWIDTH 600 0
DWIDTH 22 0
BBX 17 26 2 -7
BITMAP
1FFF80
1FFF80
1FFF80
1C0000
1C0000
1C0000
1C0000
1C0000
FFF000
FFF000
1C0000
1C0000
1C0000
1C0000
1C0000
1C0000
1F8000
1F8000
1F8000
038000
038000
038000
038000
3F0000
3F0000
3E0000
ENDCHAR
STARTCHAR uni04FC
ENCODING -1
SWIDTH 600 0
DWIDTH 22 0
BBX 22 33 1 -7
BITMAP
7801E0
3801C0
3C03C0
1E0380
0E0700
0F0F00
070E00
079E00
039C00
01F800
01F800
00F000
00F000
01F800
01F800
039C00
039C00
070E00
0F0F00
0E0700
1C0780
1C0380
3803C0
7801FC
7001FC
F000FC
00001C
00001C
00001C
00001C
0001F8
0001F8
0001F0
ENDCHAR
STARTCHAR uni04FD
ENCODING -1
SWIDTH 600 0
DWIDTH 22 0
BBX 19 26 2 -7
BITMAP
700380
780780
3C0F00
1C0E00
0E1C00
0F3C00
07F800
03F000
01E000
01E000
03F000
03F000
073800
0F3C00
1E1E00
1C0E00
3807E0
7807E0
F003E0
0000E0
0000E0
0000E0
0000E0
000FC0
000FC0
000F80
ENDCHAR
STARTCHAR uni04FE
ENCODING -1
SWIDTH 600 0
DWIDTH 22 0
BBX 20 26 1 0
BITMAP
F00070
7000E0
7801E0
3C01C0
1C0380
1E0780
0F0F00
070E00
079C00
03FC00
01F800
3FFFC0
3FFFC0
3FFFC0
01F800
03FC00
039C00
071E00
0F0F00
0E0700
1C0780
1C0380
3803C0
7801E0
7000E0
E000F0
ENDCHAR
STARTCHAR uni04FF
ENCODING -1
SWIDTH 600 0
DWIDTH 22 0
BBX 18 19 2 0
BITMAP
F003C0
780780
3C0F00
1C0E00
0E1C00
0F3C00
07F800
03F000
7FFF80
7FFF80
03F000
07F000
073800
0F3C00
1E1E00
1C0E00
380700
780780
F003C0
ENDCHAR
STARTCHAR uni0500
ENCODING -1
SWIDTH 600 0
DWIDTH 22 0
BBX 16 26 2 0
BITMAP
0007
0007
0007
0007
0007
0007
0007
0007
0007
0007
0007
03FF
1FFF
3FFF
7C07
F007
F007
F007
E007
F007
F007
7007
7C07
3FFF
1FFF
07FF
ENDCHAR
STARTCHAR uni0501
ENCODING -1
SWIDTH 600 0
DWIDTH 22 0
BBX 17 27 2 0
BITMAP
000380
000380
000380
000380
000380
000380
000380
000380
07E380
1FFB80
3FFF80
780F80
780780
700780
F00780
E00380
E00380
E00380
E00380
E00380
F00380
700780
700780
780F80
3FFB80
1FF380
07E380
ENDCHAR
STARTCHAR uni0502
ENCODING -1
SWIDTH 600 0
DWIDTH 22 0
BBX 20 26 1 0
BITMAP
007000
007000
007000
007000
007000
007000
007000
007000
007000
007000
007000
0FF070
3FF070
7FF070
787070
F07070
F07070
E07070
E07070
E07070
E07070
F07070
70F8F0
7FDFE0
3F9FE0
1F0F80
ENDCHAR
STARTCHAR uni0503
ENCODING -1
SWIDTH 600 0
DWIDTH 22 0
BBX 20 27 1 0
BITMAP
007000
007000
007000
007000
007000
007000
007000
007000
1E7000
3F7000
7FF000
70F000
70F000
E07000
E07000
E07070
E07070
E07070
E07070
E07070
E07070
E07070
F0F070
70F8F0
7FBFE0
3F9FE0
1F0F80
ENDCHAR
STARTCHAR uni0504
ENCODING -1
SWIDTH 600 0
DWIDTH 22 0
BBX 19 26 1 0
BITMAP
1F0000
7F8000
FFC000
41E000
00E000
00E000
00E000
00E000
00E000
01C000
01C000
3F00E0
3F00E0
3FC0E0
01C0E0
00E0E0
00E0E0
00E0E0
00E0E0
00E0E0
00E0E0
00E0E0
00F1E0
007FC0
003F80
001F00
ENDCHAR
STARTCHAR uni0505
ENCODING -1
SWIDTH 600 0
DWIDTH 22 0
BBX 19 19 1 0
BITMAP
3F0000
FFC000
7FE000
40E000
00E000
00E000
00E000
01C0E0
1F80E0
1F80E0
1FC0E0
00E0E0
00E0E0
00E0E0
00E0E0
00F1E0
007FC0
007FC0
001F00
ENDCHAR
STARTCHAR uni0506
ENCODING -1
SWIDTH 600 0
DWIDTH 22 0
BBX 19 33 1 -7
BITMAP
0FE000
3FF800
FFFC00
703C00
401E00
001E00
000E00
001E00
001C00
003C00
007800
1FE000
1FE000
1FF800
001C00
000E00
000F00
000700
000700
000700
000700
000700
000700
0007E0
0007E0
0007E0
0000E0
0000E0
0000E0
0000E0
0000E0
0000E0
0000E0
ENDCHAR
STARTCHAR uni0507
ENCODING -1
SWIDTH 600 0
DWIDTH 22 0
BBX 19 26 1 -7
BITMAP
1FE000
FFF800
FFFC00
401E00
000E00
000E00
001E00
003C00
1FF800
1FF800
1FFE00
000E00
000F00
000700
000700
000700
0007E0
0007E0
0007E0
0000E0
0000E0
0000E0
0000E0
0000E0
0000E0
0000E0
ENDCHAR
STARTCHAR uni0508
ENCODING -1
SWIDTH 600 0
DWIDTH 22 0
BBX 21 26 0 0
BITMAP
0FF800
0FF800
0FF800
0E3800
0E3800
0E3800
1E3800
1E3800
1E3800
1C3800
1C3800
1C3838
1C3838
1C3838
1C3838
1C3838
1C3838
1C3838
3C3838
383838
383838
383838
383C78
F81FF0
F00FE0
E007C0
ENDCHAR
STARTCHAR uni0509
ENCODING -1
SWIDTH 600 0
DWIDTH 22 0
BBX 21 19 0 0
BITMAP
0FF800
0FF800
0FF800
0E3800
0E3800
0E3800
0E3800
0E3838
0E3838
1C3838
1C3838
1C3838
1C3838
1C3838
383838
383C78
781EF0
F01FF0
E00FE0
ENDCHAR
STARTCHAR uni050A
ENCODING -1
SWIDTH 600 0
DWIDTH 22 0
BBX 19 26 2 0
BITMAP
E0E000
E0E000
E0E000
E0E000
E0E000
E0E000
E0E000
E0E000
E0E000
E0E000
E0E000
FFE0E0
FFE0E0
FFE0E0
E0E0E0
E0E0E0
E0E0E0
E0E0E0
E0E0E0
E0E0E0
E0E0E0
E0E0E0
E0F1E0
E07FC0
E07FC0
E01F00
ENDCHAR
STARTCHAR uni050B
ENCODING -1
SWIDTH 600 0
DWIDTH 22 0
BBX 19 19 2 0
BITMAP
E07000
E07000
E07000
E07000
E07000
E07000
E07000
E070E0
FFF0E0
FFF0E0
FFF0E0
E070E0
E070E0
E070E0
E070E0
E070E0
E03FC0
E03FC0
E00F00
ENDCHAR
STARTCHAR uni050C
ENCODING -1
SWIDTH 600 0
DWIDTH 22 0
BBX 18 26 2 0
BITMAP
01FC00
07FF80
0FFF80
1F0300
3C0000
780000
780000
700000
F00000
F00000
F00000
F00000
E03FC0
E03FC0
F03FC0
F001C0
F001C0
F001C0
7003C0
7803C0
780380
3C0780
1E0F80
1FFF00
07FE00
01F800
ENDCHAR
STARTCHAR uni050D
ENCODING -1
SWIDTH 600 0
DWIDTH 22 0
BBX 18 19 2 0
BITMAP
03FC00
0FFF00
1FFF00
3C0200
780000
700000
F00000
E00000
E00000
E07FC0
E07FC0
E07FC0
F001C0
7001C0
780380
3C0780
3FFF00
0FFE00
03F800
ENDCHAR
STARTCHAR uni050E
ENCODING -1
SWIDTH 600 0
DWIDTH 22 0
BBX 20 26 1 0
BITMAP
FFFFC0
FFFFC0
FFFFC0
01C000
01C000
01C000
01C000
01C000
01C000
01C000
01C000
01C070
01C070
01C070
01C070
01C070
01C070
01C070
01C070
01C070
01C070
01E0F0
00E0E0
00FFE0
007FC0
001F80
ENDCHAR
STARTCHAR uni050F
ENCODING -1
SWIDTH 600 0
DWIDTH 22 0
BBX 20 19 0 0
BITMAP
FFFE00
FFFE00
FFFE00
038000
038000
038000
038000
038070
038070
038070
038070
038070
038070
038070
03C0F0
01C0F0
01FFE0
00FFC0
003F80
ENDCHAR
STARTCHAR uni0510
ENCODING -1
SWIDTH 600 0
DWIDTH 22 0
BBX 17 26 3 0
BITMAP
03F800
1FFE00
3FFF80
3C0700
780100
700000
700000
700000
780000
3C0000
1E0000
07FC00
07FC00
1FFC00
3C0000
700000
F00000
F00000
E00000
F00000
F00000
780000
7C0180
3FFF80
1FFF80
07FE00
ENDCHAR
STARTCHAR uni0511
ENCODING -1
SWIDTH 600 0
DWIDTH 22 0
BBX 14 19 4 0
BITMAP
07F0
1FFC
3FFC
7808
7000
7000
7800
3C00
1FE0
0FE0
3FE0
7000
E000
E000
E000
F004
7FFC
3FFC
0FF0
ENDCHAR
STARTCHAR uni0512
ENCODING -1
SWIDTH 600 0
DWIDTH 22 0
BBX 20 26 0 0
BITMAP
00FFF0
00FFF0
00FFF0
00E070
01E070
01E070
01E070
01E070
01E070
01C070
01C070
03C070
03C070
03C070
03C070
038070
038070
078070
078070
078070
070070
0F0070
1F0070
FE0070
FC0070
F80070
ENDCHAR
STARTCHAR uni0513
ENCODING -1
SWIDTH 600 0
DWIDTH 22 0
BBX 18 19 1 0
BITMAP
03FFC0
03FFC0
03FFC0
0381C0
0381C0
0701C0
0701C0
0701C0
0701C0
0701C0
0701C0
0F01C0
0E01C0
0E01C0
1E01C0
1C01C0
3C01C0
F801C0
F001C0
ENDCHAR
STARTCHAR uni1EA0
ENCODING -1
SWIDTH 600 0
DWIDTH 22 0
BBX 20 32 1 -6
BITMAP
00F000
00F000
01F800
01F800
01F800
01F800
039C00
039C00
039C00
070E00
070E00
070E00
0F0700
0E0700
0E0700
1FFF80
1FFF80
1FFF80
3C03C0
3801C0
3801C0
7801E0
7000E0
7000E0
F000F0
F000F0
000000
000000
006000
00F000
00F000
006000
ENDCHAR
STARTCHAR uni1EA1
ENCODING -1
SWIDTH 600 0
DWIDTH 22 0
BBX 16 25 2 -6
BITMAP
07F0
3FFC
3FFE
301F
000F
0007
0007
0007
03FF
1FFF
7F07
F007
F007
E00F
E00F
F01F
7FF7
3FE7
1FC3
0000
0000
0180
03C0
03C0
0180
ENDCHAR
STARTCHAR uni1EA2
ENCODING -1
SWIDTH 600 0
DWIDTH 22 0
BBX 20 36 1 0
BITMAP
01F000
01FC00
001C00
001C00
003C00
00F000
00C000
00C000
000000
000000
00F000
00F000
01F800
01F800
01F800
01F800
039C00
039C00
039C00
070E00
070E00
070E00
0F0700
0E0700
0E0700
1FFF80
1FFF80
1FFF80
3C03C0
3801C0
3801C0
7801E0
7000E0
7000E0
F000F0
F000F0
ENDCHAR
STARTCHAR uni1EA3
ENCODING -1
SWIDTH 600 0
DWIDTH 22 0
BBX 16 30 2 0
BITMAP
03E0
03F8
0038
0038
0078
01E0
0180
0180
0000
0000
0000
07F0
3FFC
3FFE
301F
000F
0007
0007
0007
03FF
1FFF
7F07
F007
F007
E00F
E00F
F01F
7FF7
3FE7
1FC3
ENDCHAR
STARTCHAR uni1EA4
ENCODING -1
SWIDTH 600 0
DWIDTH 22 0
BBX 20 35 1 0
BITMAP
000070
0000E0
00F8C0
00F980
01DC00
038E00
070700
000000
000000
00F000
00F000
01F800
01F800
01F800
01F800
039C00
039C00
039C00
070E00
070E00
070E00
0F0700
0E0700
0E0700
1FFF80
1FFF80
1FFF80
3C03C0
3801C0
3801C0
7801E0
7000E0
7000E0
F000F0
F000F0
ENDCHAR
STARTCHAR uni1EA5
ENCODING -1
SWIDTH 600 0
DWIDTH 22 0
BBX 19 29 2 0
BITMAP
0000E0
0001C0
01F180
01F300
03B800
071C00
0E0E00
000000
000000
000000
07F000
3FFC00
3FFE00
301F00
000F00
000700
000700
000700
03FF00
1FFF00
7F0700
F00700
F00700
E00F00
E00F00
F01F00
7FF700
3FE700
1FC300
ENDCHAR
STARTCHAR uni1EA6
ENCODING -1
SWIDTH 600 0
DWIDTH 22 0
BBX 20 35 1 0
BITMAP
700000
380000
18F800
0CF800
01DC00
038E00
070700
000000
000000
00F000
00F000
01F800
01F800
01F800
01F800
039C00
039C00
039C00
070E00
070E00
070E00
0F0700
0E0700
0E0700
1FFF80
1FFF80
1FFF80
3C03C0
3801C0
3801C0
7801E0
7000E0
7000E0
F000F0
F000F0
ENDCHAR
STARTCHAR uni1EA7
ENCODING -1
SWIDTH 600 0
DWIDTH 22 0
BBX 16 29 2 0
BITMAP
E000
7000
31F0
19F0
03B8
071C
0E0E
0000
0000
0000
07F0
3FFC
3FFE
301F
000F
0007
0007
0007
03FF
1FFF
7F07
F007
F007
E00F
E00F
F01F
7FF7
3FE7
1FC3
ENDCHAR
STARTCHAR uni1EA8
ENCODING -1
SWIDTH 600 0
DWIDTH 22 0
BBX 20 37 1 0
BITMAP
0003C0
0003E0
000060
000060
00F9C0
00F980
01DC00
038E00
070700
000000
000000
00F000
00F000
01F800
01F800
01F800
01F800
039C00
039C00
039C00
070E00
070E00
070E00
0F0700
0E0700
0E0700
1FFF80
1FFF80
1FFF80
3C03C0
3801C0
3801C0
7801E0
7000E0
7000E0
F000F0
F000F0
ENDCHAR
STARTCHAR uni1EA9
ENCODING -1
SWIDTH 600 0
DWIDTH 22 0
BBX 17 31 2 0
BITMAP
000F00
000F80
000180
000180
03E700
03E600
077000
0E3800
1C1C00
000000
000000
000000
07F000
3FFC00
3FFE00
301F00
000F00
000700
000700
000700
03FF00
1FFF00
7F0700
F00700
F00700
E00F00
E00F00
F01F00
7FF700
3FE700
1FC300
ENDCHAR
STARTCHAR uni1EAA
ENCODING -1
SWIDTH 600 0
DWIDTH 22 0
BBX 20 38 1 0
BITMAP
01C300
03F700
077E00
061C00
000000
00F800
00F800
01DC00
038E00
060700
000000
000000
00F000
00F000
01F800
01F800
01F800
01F800
039C00
039C00
039C00
070E00
070E00
070E00
0F0700
0E0700
0E0700
1FFF80
1FFF80
1FFF80
3C03C0
3801C0
3801C0
7801E0
7000E0
7000E0
F000F0
F000F0
ENDCHAR
STARTCHAR uni1EAB
ENCODING -1
SWIDTH 600 0
DWIDTH 22 0
BBX 16 32 2 0
BITMAP
0386
07EE
0EFC
0C38
0000
01F0
01F0
03B8
071C
0C0E
0000
0000
0000
07F0
3FFC
3FFE
301F
000F
0007
0007
0007
03FF
1FFF
7F07
F007
F007
E00F
E00F
F01F
7FF7
3FE7
1FC3
ENDCHAR
STARTCHAR uni1EAC
ENCODING -1
SWIDTH 600 0
DWIDTH 22 0
BBX 20 40 1 -6
BITMAP
00F000
01F000
03F800
03BC00
070E00
0E0700
000000
000000
00F000
00F000
01F800
01F800
01F800
01F800
039C00
039C00
039C00
070E00
070E00
070E00
0F0700
0E0700
0E0700
1FFF80
1FFF80
1FFF80
3C03C0
3801C0
3801C0
7801E0
7000E0
7000E0
F000F0
F000F0
000000
000000
006000
00F000
00F000
006000
ENDCHAR
STARTCHAR uni1EAD
ENCODING -1
SWIDTH 600 0
DWIDTH 22 0
BBX 16 34 2 -6
BITMAP
01E0
03E0
07F0
0778
0E1C
1C0E
0000
0000
0000
07F0
3FFC
3FFE
301F
000F
0007
0007
0007
03FF
1FFF
7F07
F007
F007
E00F
E00F
F01F
7FF7
3FE7
1FC3
0000
0000
0180
03C0
03C0
0180
ENDCHAR
STARTCHAR uni1EAE
ENCODING -1
SWIDTH 600 0
DWIDTH 22 0
BBX 20 37 1 0
BITMAP
000E00
001C00
001800
003000
060300
070700
03FE00
03FE00
00F800
000000
000000
00F000
00F000
01F800
01F800
01F800
01F800
039C00
039C00
039C00
070E00
070E00
070E00
0F0700
0E0700
0E0700
1FFF80
1FFF80
1FFF80
3C03C0
3801C0
3801C0
7801E0
7000E0
7000E0
F000F0
F000F0
ENDCHAR
STARTCHAR uni1EAF
ENCODING -1
SWIDTH 600 0
DWIDTH 22 0
BBX 16 31 2 0
BITMAP
0038
0070
0060
00C0
180C
1C1C
0FF8
0FF8
03E0
0000
0000
0000
07F0
3FFC
3FFE
301F
000F
0007
0007
0007
03FF
1FFF
7F07
F007
F007
E00F
E00F
F01F
7FF7
3FE7
1FC3
ENDCHAR
STARTCHAR uni1EB0
ENCODING -1
SWIDTH 600 0
DWIDTH 22 0
BBX 20 37 1 0
BITMAP
038000
01C000
00C000
006000
060300
070700
03FE00
03FE00
00F800
000000
000000
00F000
00F000
01F800
01F800
01F800
01F800
039C00
039C00
039C00
070E00
070E00
070E00
0F0700
0E0700
0E0700
1FFF80
1FFF80
1FFF80
3C03C0
3801C0
3801C0
7801E0
7000E0
7000E0
F000F0
F000F0
ENDCHAR
STARTCHAR uni1EB1
ENCODING -1
SWIDTH 600 0
DWIDTH 22 0
BBX 16 31 2 0
BITMAP
0E00
0700
0300
0180
180C
1C1C
0FF8
0FF8
03E0
0000
0000
0000
07F0
3FFC
3FFE
301F
000F
0007
0007
0007
03FF
1FFF
7F07
F007
F007
E00F
E00F
F01F
7FF7
3FE7
1FC3
ENDCHAR
STARTCHAR uni1EB2
ENCODING -1
SWIDTH 600 0
DWIDTH 22 0
BBX 20 37 1 0
BITMAP
01E000
01F000
003000
00F000
06C600
060E00
03FC00
03FC00
01F000
000000
000000
00F000
00F000
01F800
01F800
01F800
01F800
039C00
039C00
039C00
070E00
070E00
070E00
0F0700
0E0700
0E0700
1FFF80
1FFF80
1FFF80
3C03C0
3801C0
3801C0
7801E0
7000E0
7000E0
F000F0
F000F0
ENDCHAR
STARTCHAR uni1EB3
ENCODING -1
SWIDTH 600 0
DWIDTH 22 0
BBX 16 31 2 0
BITMAP
03C0
03E0
0060
01E0
0D8C
0C1C
07F8
07F8
03E0
0000
0000
0000
07F0
3FFC
3FFE
301F
000F
0007
0007
0007
03FF
1FFF
7F07
F007
F007
E00F
E00F
F01F
7FF7
3FE7
1FC3
ENDCHAR
STARTCHAR uni1EB4
ENCODING -1
SWIDTH 600 0
DWIDTH 22 0
BBX 20 38 1 0
BITMAP
038300
07E300
0C7E00
0C1C00
000000
0C0600
0C0E00
07FC00
07FC00
01F000
000000
000000
00F000
00F000
01F800
01F800
01F800
01F800
039C00
039C00
039C00
070E00
070E00
070E00
0F0700
0E0700
0E0700
1FFF80
1FFF80
1FFF80
3C03C0
3801C0
3801C0
7801E0
7000E0
7000E0
F000F0
F000F0
ENDCHAR
STARTCHAR uni1EB5
ENCODING -1
SWIDTH 600 0
DWIDTH 22 0
BBX 16 32 2 0
BITMAP
0706
0FC6
18FC
1838
0000
180C
181C
0FF8
0FF8
03E0
0000
0000
0000
07F0
3FFC
3FFE
301F
000F
0007
0007
0007
03FF
1FFF
7F07
F007
F007
E00F
E00F
F01F
7FF7
3FE7
1FC3
ENDCHAR
STARTCHAR uni1EB6
ENCODING -1
SWIDTH 600 0
DWIDTH 22 0
BBX 20 39 1 -6
BITMAP
060300
060700
03FE00
03FE00
00F800
000000
000000
00F000
00F000
01F800
01F800
01F800
01F800
039C00
039C00
039C00
070E00
070E00
070E00
0F0700
0E0700
0E0700
1FFF80
1FFF80
1FFF80
3C03C0
3801C0
3801C0
7801E0
7000E0
7000E0
F000F0
F000F0
000000
000000
006000
00F000
00F000
006000
ENDCHAR
ENDFONT
